<?xml version="1.0" standalone="no"?>
<!DOCTYPE svg PUBLIC "-//W3C//DTD SVG 1.1//EN" "http://www.w3.org/Graphics/SVG/1.1/DTD/svg11.dtd" >
<svg xmlns="http://www.w3.org/2000/svg" xmlns:xlink="http://www.w3.org/1999/xlink" version="1.1">
<metadata>
Created by FontForge 20170731 at Tue May 16 21:03:01 2023
 By Aleksey,,,
Copyright (c) 2017 by Jonathan Hill. All rights reserved.
</metadata>
<defs>
<font id="Typold-Bold" horiz-adv-x="1814" >
  <font-face 
    font-family="Typold"
    font-weight="700"
    font-stretch="normal"
    units-per-em="2048"
    panose-1="2 11 0 4 3 2 4 6 11 3"
    ascent="1536"
    descent="-512"
    x-height="1034"
    cap-height="1434"
    bbox="-1208 -539 2777 2413"
    underline-thickness="102"
    underline-position="-307"
    unicode-range="U+0020-1F636"
  />
<missing-glyph horiz-adv-x="1024" 
d="M840 1536v-2048h-650v2048h650zM682 1399h-338v-68h133v-76h-135v-67h340v67h-135v76h135v68zM547 1135h-205v-213h340v69h-135v144zM477 1065v-74h-67v74h67zM682 866h-340v-67h135v-76h-135v-68h205v144h135v67zM682 743h-68v-135h-272v-69h340v204zM682 494h-205v-115
h70v47h67v-96h-204v164h-68v-232h340v232zM682 139h-340v-231h340v231zM614 72v-97h-204v97h204zM682 -139h-340v-68h143l-143 -96v-68h340v68h-209l143 96h66v68z" />
    <glyph glyph-name="fi" unicode="fi" horiz-adv-x="1505" 
d="M1350 1034v-1034h-281v780h-528v-780h-283v780h-207v254h207v107q0 206 107.5 314t316.5 108q185 0 291 -86l-135 -232q-54 41 -144 41q-83 0 -118 -38t-35 -126v-88h809zM1208 1161q-70 0 -120 49.5t-50 120.5t50 121.5t120 50.5t121 -50.5t51 -121.5q0 -70 -50.5 -120
t-121.5 -50z" />
    <glyph glyph-name="fl" unicode="fl" horiz-adv-x="1452" 
d="M1038 1536h289v-1536h-289v780h-497v-780h-283v780h-207v254h207v107q0 206 107.5 314t316.5 108q185 0 291 -86l-135 -232q-54 41 -144 41q-83 0 -118 -38t-35 -126v-88h497v502z" />
    <glyph glyph-name=".notdef" horiz-adv-x="1024" 
d="M840 1536v-2048h-650v2048h650zM682 1399h-338v-68h133v-76h-135v-67h340v67h-135v76h135v68zM547 1135h-205v-213h340v69h-135v144zM477 1065v-74h-67v74h67zM682 866h-340v-67h135v-76h-135v-68h205v144h135v67zM682 743h-68v-135h-272v-69h340v204zM682 494h-205v-115
h70v47h67v-96h-204v164h-68v-232h340v232zM682 139h-340v-231h340v231zM614 72v-97h-204v97h204zM682 -139h-340v-68h143l-143 -96v-68h340v68h-209l143 96h66v68z" />
    <glyph glyph-name=".null" horiz-adv-x="0" 
 />
    <glyph glyph-name="nonmarkingreturn" horiz-adv-x="682" 
 />
    <glyph glyph-name="space" unicode=" " horiz-adv-x="552" 
 />
    <glyph glyph-name="exclam" unicode="!" horiz-adv-x="604" 
d="M162 481l-23 953h326l-23 -953h-280zM303 -27q-71 0 -121.5 50.5t-50.5 121.5q0 70 50.5 120t121.5 50q69 0 119.5 -50t50.5 -120t-50.5 -121t-119.5 -51z" />
    <glyph glyph-name="quotedbl" unicode="&#x22;" horiz-adv-x="909" 
d="M111 854l-19 631h287l-19 -631h-249zM549 854l-19 631h287l-18 -631h-250z" />
    <glyph glyph-name="numbersign" unicode="#" horiz-adv-x="1439" 
d="M1339 870h-213l-63 -299h211l-49 -239h-213l-70 -332h-262l70 332h-238l-70 -332h-264l70 332h-197l49 239h199l63 299h-196l49 238h199l69 326h265l-70 -326h237l70 326h262l-69 -326h211zM801 571l63 299h-237l-64 -299h238z" />
    <glyph glyph-name="dollar" unicode="$" horiz-adv-x="1382" 
d="M1298 426q0 -184 -128 -303t-343 -143v-246h-262v252q-145 22 -273.5 73t-199.5 105l141 246q92 -70 230.5 -116t257.5 -46q114 0 182 40.5t68 121.5q0 25 -6 43.5t-25.5 34t-33.5 24.5t-53.5 20t-59 16t-75.5 17q-12 3 -18 4q-132 29 -219.5 55.5t-158.5 60.5t-110 76.5
t-59 98t-20 131.5q0 105 35 187.5t97.5 135.5t136.5 85t163 47v254h262v-242q233 -18 435 -143l-142 -246q-184 115 -395 115q-135 0 -201.5 -43.5t-66.5 -120.5q0 -64 58.5 -96.5t225.5 -63.5q174 -33 249 -58q283 -96 306 -332q2 -21 2 -44z" />
    <glyph glyph-name="percent" unicode="%" horiz-adv-x="1959" 
d="M369 -27l929 1487h289l-932 -1487h-286zM463 676q-173 0 -285 108t-112 277t112 277t285 108t285 -107t112 -278q0 -169 -112 -277t-285 -108zM463 883q77 0 123.5 48.5t46.5 129.5t-46.5 129.5t-123.5 48.5q-78 0 -124 -47t-46 -131q0 -82 46 -130t124 -48zM1497 -12
q-172 0 -283.5 107.5t-111.5 277.5t111.5 277.5t283.5 107.5q173 0 285 -108t112 -277q0 -171 -112 -278t-285 -107zM1497 195q78 0 124 48t46 130q0 81 -46.5 129.5t-123.5 48.5t-122.5 -47.5t-45.5 -130.5q0 -82 45.5 -130t122.5 -48z" />
    <glyph glyph-name="ampersand" unicode="&#x26;" horiz-adv-x="1583" 
d="M1513 0h-385l-157 156l-41 -43q-60 -64 -152.5 -102t-208.5 -38q-200 0 -329 108t-129 281q0 96 41.5 181.5t117.5 146.5l90 72l-67 65q-111 108 -111 263q0 160 121.5 265t306.5 105q181 0 302.5 -103.5t121.5 -264.5q0 -89 -37.5 -163.5t-101.5 -121.5l-113 -84
l189 -184l243 260l207 -164l-264 -281zM614 1208q-61 0 -98 -34t-37 -95q0 -55 35 -90l84 -82l107 84q38 30 38 92q0 57 -35 91t-94 34zM737 289l47 51l-235 233l-68 -53q-59 -47 -59 -133q0 -74 44.5 -115t123.5 -41q89 0 147 58z" />
    <glyph glyph-name="quotesingle" unicode="'" horiz-adv-x="471" 
d="M111 854l-19 631h287l-19 -631h-249z" />
    <glyph glyph-name="parenleft" unicode="(" horiz-adv-x="886" 
d="M731 -311q-276 107 -438 344t-162 551t162 551t438 344l88 -254q-182 -80 -286.5 -249t-104.5 -392t104.5 -392t286.5 -249z" />
    <glyph glyph-name="parenright" unicode=")" horiz-adv-x="886" 
d="M156 -311l-86 254q182 80 285.5 248.5t103.5 392.5t-103.5 392.5t-285.5 248.5l86 254q276 -108 439 -345t163 -550t-163 -550t-439 -345z" />
    <glyph glyph-name="asterisk" unicode="*" horiz-adv-x="974" 
d="M893 1108l-236 -70l152 -196l-182 -131l-140 204l-139 -204l-180 131l151 196l-239 70l70 213l233 -84l-6 248h223l-8 -248l233 84z" />
    <glyph glyph-name="plus" unicode="+" horiz-adv-x="1118" 
d="M1059 692v-241h-379v-377h-242v377h-379v241h379v379h242v-379h379z" />
    <glyph glyph-name="comma" unicode="," horiz-adv-x="585" 
d="M78 -322l82 650h301l-150 -650h-233z" />
    <glyph glyph-name="hyphen" unicode="-" horiz-adv-x="829" 
d="M92 700h647v-254h-647v254z" />
    <glyph glyph-name="period" unicode="." horiz-adv-x="606" 
d="M303 -27q-73 0 -125.5 52.5t-52.5 126.5t51.5 125t126.5 51q74 0 126 -51.5t52 -124.5q0 -74 -52.5 -126.5t-125.5 -52.5z" />
    <glyph glyph-name="slash" unicode="/" horiz-adv-x="1208" 
d="M51 -102l803 1638h305l-803 -1638h-305z" />
    <glyph glyph-name="zero" unicode="0" horiz-adv-x="1464" 
d="M731 -27q-132 0 -247 53t-197 147.5t-129 229.5t-47 293t47 293t129 229.5t197 147.5t247 53q270 0 447.5 -203t177.5 -520t-177.5 -520t-447.5 -203zM731 260q136 0 223.5 121.5t87.5 314.5q0 196 -87.5 316.5t-223.5 120.5q-135 0 -222 -121.5t-87 -315.5
q0 -193 87 -314.5t222 -121.5z" />
    <glyph glyph-name="one" unicode="1" horiz-adv-x="854" 
d="M612 1393h74v-1393h-297v1020l-334 -135v274z" />
    <glyph glyph-name="two" unicode="2" horiz-adv-x="1198" 
d="M580 276h495v-276h-948v227l25 23l-2 2l468 479q65 66 91 110.5t26 106.5q0 87 -50 140t-142 53q-81 0 -155.5 -43.5t-121.5 -120.5l-186 180q74 124 205 193t284 69q208 0 343 -124t135 -337q0 -116 -50.5 -211.5t-177.5 -224.5z" />
    <glyph glyph-name="three" unicode="3" horiz-adv-x="1232" 
d="M897 711q107 -46 167 -130.5t60 -195.5q0 -182 -154 -297t-401 -115q-168 0 -292.5 55t-196.5 146l174 184q114 -127 305 -127q122 0 188 48t66 131t-65 129.5t-179 46.5h-184v250h178q100 0 157.5 40.5t57.5 120.5q0 75 -55 119.5t-168 44.5q-194 0 -287 -127l-172 168
q64 98 184.5 157.5t284.5 59.5q228 0 373 -112t145 -291q0 -102 -48.5 -180.5t-137.5 -124.5z" />
    <glyph glyph-name="four" unicode="4" horiz-adv-x="1273" 
d="M1194 528v-278h-184v-250h-289v250h-645v229l434 914h321l-411 -865h301v310h289v-310h184z" />
    <glyph glyph-name="five" unicode="5" horiz-adv-x="1247" 
d="M592 879q243 0 394 -125.5t151 -327.5q0 -201 -151.5 -327t-393.5 -126q-165 0 -293.5 61.5t-198.5 164.5l160 192q53 -77 136 -118.5t184 -41.5q119 0 182 53t63 146q0 94 -62 147.5t-175 53.5q-117 0 -199 -51l-172 184l33 629h807v-265h-527l-12 -254q57 5 74 5z" />
    <glyph glyph-name="six" unicode="6" horiz-adv-x="1275" 
d="M692 922q220 0 357 -127t137 -320q0 -229 -150.5 -365.5t-386.5 -136.5q-237 0 -387.5 136t-150.5 358q0 121 71 231l436 695h320l-293 -473q16 2 47 2zM649 231q109 0 172.5 63t63.5 177q0 86 -63.5 141.5t-170.5 55.5q-108 0 -172.5 -56.5t-64.5 -142.5
q0 -113 62.5 -175.5t172.5 -62.5z" />
    <glyph glyph-name="seven" unicode="7" horiz-adv-x="1087" 
d="M45 1393h997v-228l-569 -1165h-338l557 1116h-647v277z" />
    <glyph glyph-name="eight" unicode="8" horiz-adv-x="1333" 
d="M993 709q113 -46 171.5 -128.5t58.5 -195.5q0 -182 -154 -297t-401 -115q-246 0 -401.5 116.5t-155.5 297.5q0 112 59 194t172 128q-195 92 -195 309q0 178 144.5 289.5t372.5 111.5q230 0 376 -112t146 -291q0 -213 -193 -307zM666 1161q-101 0 -157 -43.5t-56 -120.5
q0 -76 55 -118.5t158 -42.5q100 0 157.5 41.5t57.5 117.5q0 75 -55 120.5t-160 45.5zM668 231q116 0 179.5 48t63.5 131q0 81 -64 128.5t-179 47.5q-117 0 -181.5 -47.5t-64.5 -128.5q0 -82 66 -130.5t180 -48.5z" />
    <glyph glyph-name="nine" unicode="9" horiz-adv-x="1275" 
d="M627 1417q236 0 388 -132.5t152 -340.5q0 -134 -75 -254l-447 -690h-319l305 473q-16 -2 -47 -2q-221 0 -357.5 130t-136.5 335q0 143 69.5 253t191.5 169t276 59zM862 942q2 99 -62.5 159t-172.5 60q-107 0 -171.5 -60t-64.5 -161q0 -100 62.5 -157.5t171.5 -57.5
t173 59.5t64 157.5z" />
    <glyph glyph-name="colon" unicode=":" horiz-adv-x="606" 
d="M303 707q-73 0 -125.5 52.5t-52.5 125.5t52 124.5t126 51.5t126 -51.5t52 -124.5t-52.5 -125.5t-125.5 -52.5zM303 -27q-73 0 -125.5 52.5t-52.5 126.5q0 73 52 124.5t126 51.5t126 -51.5t52 -124.5q0 -74 -52.5 -126.5t-125.5 -52.5z" />
    <glyph glyph-name="semicolon" unicode=";" horiz-adv-x="606" 
d="M303 707q-73 0 -124.5 52t-51.5 126q0 73 51.5 124.5t124.5 51.5q74 0 126 -51.5t52 -124.5t-52.5 -125.5t-125.5 -52.5zM78 -322l82 650h301l-150 -650h-233z" />
    <glyph glyph-name="less" unicode="&#x3c;" horiz-adv-x="983" 
d="M911 1102v-275l-587 -252l587 -253v-275l-845 389v277z" />
    <glyph glyph-name="equal" unicode="=" horiz-adv-x="1118" 
d="M59 668v243h1000v-243h-1000zM59 233v242h1000v-242h-1000z" />
    <glyph glyph-name="greater" unicode="&#x3e;" horiz-adv-x="976" 
d="M72 1102l846 -389v-277l-846 -389v275l587 253l-587 252v275z" />
    <glyph glyph-name="question" unicode="?" horiz-adv-x="1146" 
d="M414 481q-1 49 1.5 75.5t8 52t29 55.5t49 59t82.5 88q86 87 109.5 121t23.5 82q0 77 -45.5 118.5t-126.5 41.5q-159 0 -250 -144l-215 178q167 252 483 252q214 0 338.5 -116t124.5 -322q0 -97 -46.5 -176t-199.5 -230q-57 -59 -71 -79.5t-15 -55.5h-280zM555 -27
q-72 0 -122 50t-50 122q0 71 50 120.5t122 49.5q71 0 120.5 -49.5t49.5 -120.5t-50 -121.5t-120 -50.5z" />
    <glyph glyph-name="at" unicode="@" horiz-adv-x="2086" 
d="M1206 983h230v-690q35 -6 61 -6q113 0 167 78.5t54 212.5q0 138 -50.5 262t-138 214t-212.5 142.5t-268 52.5q-145 0 -270.5 -52.5t-215.5 -145t-142 -227t-52 -292.5q0 -208 87 -371.5t243.5 -255t355.5 -91.5q232 0 418 145l145 -172q-245 -190 -563 -190
q-267 0 -478.5 121t-328.5 334t-117 480q0 202 70.5 375.5t192.5 294.5t291.5 189.5t363.5 68.5q197 0 367.5 -71.5t288 -192t184.5 -282t67 -339.5q0 -234 -120 -366.5t-337 -132.5q-142 0 -272 59l-8 101q-93 -123 -256 -123q-165 0 -279.5 125.5t-114.5 310.5
t113.5 309.5t284.5 124.5q149 0 239 -96v96zM1016 330q91 0 148 60t57 159q0 98 -57.5 158.5t-149.5 60.5q-93 0 -149 -60t-56 -159q0 -98 56.5 -158.5t150.5 -60.5z" />
    <glyph glyph-name="A" unicode="A" horiz-adv-x="1576" 
d="M1208 0l-121 322h-598l-120 -322h-318l563 1434h349l563 -1434h-318zM592 600h393l-197 526z" />
    <glyph glyph-name="B" unicode="B" horiz-adv-x="1462" 
d="M1100 739q129 -23 200.5 -110.5t71.5 -222.5q0 -177 -122.5 -291.5t-327.5 -114.5h-756v1434h708q200 0 317.5 -106.5t117.5 -278.5q0 -113 -54.5 -194t-154.5 -116zM821 1180h-356v-326h356q87 0 131.5 44.5t44.5 127.5q0 73 -45 113.5t-131 40.5zM872 254q93 0 141 46
t48 132q0 84 -48 128t-141 44h-407v-350h407z" />
    <glyph glyph-name="C" unicode="C" horiz-adv-x="1546" 
d="M836 -27q-212 0 -382 94t-267 264.5t-97 385.5t97.5 385.5t268 264t382.5 93.5q196 0 356 -79t256 -210l-258 -167q-58 80 -150 125t-204 45q-192 0 -314.5 -127.5t-122.5 -329.5q0 -201 121.5 -329t313.5 -128q118 0 215 51.5t155 147.5l250 -176q-98 -147 -262 -228.5
t-358 -81.5z" />
    <glyph glyph-name="D" unicode="D" horiz-adv-x="1568" 
d="M725 1434q216 0 386.5 -86.5t269 -250.5t98.5 -380q0 -215 -98.5 -379t-269 -251t-386.5 -87h-559v1434h559zM725 279q201 0 321.5 119.5t120.5 318.5t-120.5 318.5t-321.5 119.5h-260v-876h260z" />
    <glyph glyph-name="E" unicode="E" horiz-adv-x="1329" 
d="M465 276h774v-276h-1073v1434h1057v-277h-758v-293h725v-278h-725v-310z" />
    <glyph glyph-name="F" unicode="F" horiz-adv-x="1282" 
d="M1190 1157h-725v-338h665v-278h-665v-541h-299v1434h1024v-277z" />
    <glyph glyph-name="G" unicode="G" horiz-adv-x="1648" 
d="M1559 694q1 -157 -52 -292t-148.5 -229t-230 -147t-290.5 -53q-212 0 -382.5 94t-268 265t-97.5 387q0 163 58 302t158.5 235t239.5 150t298 54q170 0 318 -62.5t257 -185.5l-231 -194q-135 156 -346 156q-197 0 -319 -127.5t-122 -329.5q0 -201 122 -329t321 -128
q148 0 248 76t135 215h-385v248h710q7 -35 7 -105z" />
    <glyph glyph-name="H" unicode="H" horiz-adv-x="1585" 
d="M1120 1434h299v-1434h-299v586h-655v-586h-299v1434h299v-570h655v570z" />
    <glyph glyph-name="I" unicode="I" horiz-adv-x="630" 
d="M465 1434v-1434h-299v1434h299z" />
    <glyph glyph-name="J" unicode="J" horiz-adv-x="1150" 
d="M463 -27q-278 0 -412 168l182 226q43 -56 93.5 -81.5t130.5 -25.5q134 0 192 79.5t58 264.5v830h292v-830q0 -111 -15.5 -202t-53.5 -172.5t-97.5 -137t-153.5 -87.5t-216 -32z" />
    <glyph glyph-name="K" unicode="K" horiz-adv-x="1486" 
d="M1081 0l-436 567l-180 -209v-358h-299v1434h299v-648l557 648h364l-555 -650l613 -784h-363z" />
    <glyph glyph-name="L" unicode="L" horiz-adv-x="1224" 
d="M465 276h709v-276h-1008v1434h299v-1158z" />
    <glyph glyph-name="M" unicode="M" horiz-adv-x="1914" 
d="M1749 1434v-1434h-295v1053l-334 -897h-325l-334 897v-1053h-295v1434h436l356 -977l355 977h436z" />
    <glyph glyph-name="N" unicode="N" horiz-adv-x="1562" 
d="M1100 1434h295v-1434h-267l-667 909v-909h-295v1434h266l668 -906v906z" />
    <glyph glyph-name="O" unicode="O" horiz-adv-x="1685" 
d="M842 -27q-214 0 -385.5 94t-269 264t-97.5 386q0 162 57 300.5t156.5 235.5t239 152t299.5 55q214 0 385 -93t268.5 -263.5t97.5 -386.5q0 -162 -57 -301t-156.5 -236t-238.5 -152t-299 -55zM842 260q196 0 319 127t123 330t-123 330t-319 127t-318.5 -127t-122.5 -330
t122.5 -330t318.5 -127z" />
    <glyph glyph-name="P" unicode="P" horiz-adv-x="1392" 
d="M756 1434q251 0 397.5 -136.5t146.5 -359.5q0 -224 -146.5 -360t-397.5 -136h-291v-442h-299v1434h590zM752 721q116 0 177.5 56t61.5 161t-61.5 161t-177.5 56h-287v-434h287z" />
    <glyph glyph-name="Q" unicode="Q" horiz-adv-x="1724" 
d="M1599 -190h-335l-148 208q-130 -45 -274 -45q-214 0 -385.5 94t-269 264t-97.5 386q0 162 57 300.5t156.5 235.5t239 152t299.5 55q214 0 385 -93t268.5 -263.5t97.5 -386.5q0 -170 -62.5 -313.5t-174.5 -245.5zM842 260q45 0 100 10l-225 320h336l127 -182
q104 122 104 309q0 203 -123 330t-319 127t-318.5 -127t-122.5 -330t122.5 -330t318.5 -127z" />
    <glyph glyph-name="R" unicode="R" horiz-adv-x="1396" 
d="M989 0l-332 522h-192v-522h-299v1434h641q229 0 363.5 -125.5t134.5 -329.5q0 -162 -87 -277.5t-243 -158.5l373 -543h-359zM465 1155v-354h334q97 0 146.5 45t49.5 131q0 178 -196 178h-334z" />
    <glyph glyph-name="S" unicode="S" horiz-adv-x="1398" 
d="M707 -27q-182 0 -356 61t-265 130l141 246q91 -69 230 -115.5t260 -46.5q115 0 181.5 41.5t66.5 118.5q0 31 -12.5 54t-31.5 37.5t-53.5 27t-66 19.5t-82.5 18q-16 3 -25 5q-112 25 -191 47t-145.5 49.5t-108 57t-70 69.5t-40.5 87t-12 108q0 108 37.5 192.5t97 136.5
t141 85.5t161.5 46t167 12.5q284 0 524 -145l-141 -248q-189 117 -401 117q-130 0 -196 -44t-66 -120q0 -64 61.5 -97t226.5 -63q61 -12 96 -19.5t101 -26.5t107.5 -38.5t93.5 -53.5t82 -73.5t51.5 -97t21.5 -125.5q0 -209 -160.5 -331t-424.5 -122z" />
    <glyph glyph-name="T" unicode="T" horiz-adv-x="1300" 
d="M1249 1434v-277h-450v-1157h-297v1157h-451v277h1198z" />
    <glyph glyph-name="U" unicode="U" horiz-adv-x="1521" 
d="M760 -27q-138 0 -243.5 33t-174 91t-111.5 145t-61 186.5t-18 224.5v781h301v-783q0 -212 70 -301.5t237 -89.5q168 0 238.5 89t70.5 302v783h303v-781q0 -123 -17 -221.5t-60 -186t-111.5 -146t-175.5 -92.5t-248 -34z" />
    <glyph glyph-name="V" unicode="V" horiz-adv-x="1527" 
d="M1159 1434h318l-539 -1434h-348l-539 1434h318l395 -1112z" />
    <glyph glyph-name="W" unicode="W" horiz-adv-x="2285" 
d="M1919 1434h315l-434 -1434h-354l-303 1010l-303 -1010h-355l-434 1434h314l301 -1088l315 1088h324l315 -1086z" />
    <glyph glyph-name="X" unicode="X" horiz-adv-x="1466" 
d="M1415 0h-356l-326 514l-325 -514h-357l500 727l-477 707h356l303 -488l301 488h359l-480 -707z" />
    <glyph glyph-name="Y" unicode="Y" horiz-adv-x="1507" 
d="M1456 1434l-553 -869v-565h-297v561l-555 873h357l346 -594l346 594h356z" />
    <glyph glyph-name="Z" unicode="Z" horiz-adv-x="1316" 
d="M1233 1434v-228l-735 -930h716v-276h-1128v227l735 930h-710v277h1122z" />
    <glyph glyph-name="bracketleft" unicode="[" horiz-adv-x="784" 
d="M733 1169h-278v-1171h278v-264h-567v1700h567v-265z" />
    <glyph glyph-name="backslash" unicode="\" horiz-adv-x="1208" 
d="M854 -102l-803 1638h305l803 -1638h-305z" />
    <glyph glyph-name="bracketright" unicode="]" horiz-adv-x="784" 
d="M618 1434v-1700h-567v264h279v1171h-279v265h567z" />
    <glyph glyph-name="asciicircum" unicode="^" horiz-adv-x="1046" 
d="M981 739h-270l-189 437l-188 -437h-268l321 695h272z" />
    <glyph glyph-name="underscore" unicode="_" horiz-adv-x="1155" 
d="M1063 -96v-232h-971v232h971z" />
    <glyph glyph-name="grave" unicode="`" horiz-adv-x="659" 
d="M338 1200l-279 332h320l221 -332h-262z" />
    <glyph glyph-name="a" unicode="a" horiz-adv-x="1185" 
d="M618 1061q449 0 449 -445v-616h-254l-12 137q-58 -79 -151.5 -121.5t-194.5 -42.5q-95 0 -175.5 35.5t-133 111t-52.5 177.5q0 84 36 148.5t97 102t133.5 56.5t151.5 19q141 0 274 -39v22q0 106 -55.5 156.5t-169.5 50.5q-170 0 -297 -96l-106 201q190 143 460 143z
M530 199q99 0 177 59t79 150q-103 32 -221 32q-83 0 -134.5 -31t-51.5 -94q0 -56 41 -86t110 -30z" />
    <glyph glyph-name="b" unicode="b" horiz-adv-x="1294" 
d="M711 1061q137 0 250.5 -68t180 -192.5t66.5 -280.5q0 -157 -66.5 -283.5t-178 -195t-244.5 -68.5q-104 0 -187.5 43t-138.5 121l-12 -137h-256v1536h283v-602q111 127 303 127zM653 238q119 0 193 77t74 203t-74 203.5t-193 77.5t-192.5 -77.5t-73.5 -203.5
q0 -128 74 -204t192 -76z" />
    <glyph glyph-name="c" unicode="c" horiz-adv-x="1130" 
d="M631 -27q-117 0 -218 40.5t-173 112t-113 173t-41 219.5q0 238 154 390.5t391 152.5q124 0 229.5 -45t177.5 -129l-209 -178q-70 90 -196 90q-116 0 -187 -77.5t-71 -203.5t71 -203t189 -77q132 0 205 104l211 -180q-74 -90 -182.5 -139.5t-237.5 -49.5z" />
    <glyph glyph-name="d" unicode="d" horiz-adv-x="1294" 
d="M889 1536h280v-1536h-254l-12 141q-55 -80 -139 -124t-189 -44q-133 0 -244.5 68.5t-178 195t-66.5 283.5q0 156 67 280.5t180.5 192.5t250.5 68q195 0 305 -129v604zM641 238q118 0 192 76t74 204q0 126 -73.5 203.5t-192.5 77.5t-192.5 -77.5t-73.5 -203.5t73.5 -203
t192.5 -77z" />
    <glyph glyph-name="e" unicode="e" horiz-adv-x="1218" 
d="M377 418q23 -97 91 -149t171 -52q144 0 248 96l184 -176q-81 -78 -190.5 -121t-233.5 -43q-244 0 -402.5 151t-158.5 396q0 237 150 389t391 152q124 0 223 -41.5t159.5 -111t92 -156t31.5 -181.5q0 -80 -15 -153h-741zM625 815q-97 0 -161.5 -53t-86.5 -148h481
q-8 92 -69 146.5t-164 54.5z" />
    <glyph glyph-name="f" unicode="f" horiz-adv-x="921" 
d="M537 1122v-88h329v-254h-329v-780h-283v780h-203v254h203v107q0 206 107.5 314t316.5 108q184 0 293 -86l-137 -232q-51 41 -144 41q-83 0 -118 -38t-35 -126z" />
    <glyph glyph-name="g" unicode="g" horiz-adv-x="1187" 
d="M1122 1034v-178l-166 -14q39 -80 39 -174q0 -177 -122.5 -286.5t-319.5 -109.5q-47 0 -111 11q-33 -3 -53 -22t-20 -50q0 -59 82 -59h141q269 0 399.5 -80t130.5 -252q0 -175 -131 -267t-397 -92q-260 0 -404.5 93t-144.5 247q0 143 141 213q-71 71 -71 172
q0 68 33.5 117.5t91.5 71.5q-127 111 -127 293q0 177 120.5 285t319.5 108q88 0 174 -27h395zM553 502q90 0 137 43.5t47 122.5q0 77 -47 120t-137 43t-137 -43t-47 -120q0 -79 47 -122.5t137 -43.5zM836 -180q0 63 -53 87.5t-193 24.5h-164q-88 -40 -88 -114q0 -63 65 -99
t189 -36q127 0 185.5 33.5t58.5 103.5z" />
    <glyph glyph-name="h" unicode="h" horiz-adv-x="1239" 
d="M723 1061q176 0 287.5 -108t111.5 -289v-664h-280v602q0 93 -53.5 145t-147.5 52q-91 0 -162 -53.5t-71 -147.5v-598h-283v1536h283v-608q54 63 135.5 98t179.5 35z" />
    <glyph glyph-name="i" unicode="i" horiz-adv-x="593" 
d="M297 1161q-71 0 -121.5 50t-50.5 120q0 71 50.5 121.5t121.5 50.5t121.5 -50.5t50.5 -121.5q0 -70 -50.5 -120t-121.5 -50zM438 1034v-1034h-282v1034h282z" />
    <glyph glyph-name="j" unicode="j" horiz-adv-x="608" 
d="M313 1161q-71 0 -121.5 50t-50.5 120q0 71 50.5 121.5t121.5 50.5t120.5 -50t49.5 -122q0 -71 -49.5 -120.5t-120.5 -49.5zM72 -436q-115 0 -189 35l90 235q33 -16 72 -16q64 0 93.5 32t29.5 101v1083h285v-1089q0 -381 -381 -381z" />
    <glyph glyph-name="k" unicode="k" horiz-adv-x="1181" 
d="M825 0l-276 399l-141 -149v-250h-283v1536h283v-932l376 420h355l-416 -440l430 -584h-328z" />
    <glyph glyph-name="l" unicode="l" horiz-adv-x="532" 
d="M125 0v1536h283v-1536h-283z" />
    <glyph glyph-name="m" unicode="m" horiz-adv-x="1884" 
d="M1382 1061q171 0 279 -109t108 -288v-664h-282v602q0 95 -47.5 146t-132.5 51q-90 0 -155 -54.5t-65 -146.5v-598h-280v602q0 94 -48 145.5t-134 51.5q-89 0 -153 -53.5t-64 -147.5v-598h-283v1034h254l12 -129q51 74 133 115t181 41q106 0 190.5 -46.5t134.5 -131.5
q57 84 149.5 131t202.5 47z" />
    <glyph glyph-name="n" unicode="n" horiz-adv-x="1236" 
d="M719 1061q175 0 289 -109t114 -288v-664h-280v602q0 88 -54.5 142.5t-144.5 54.5q-93 0 -164 -53.5t-71 -147.5v-598h-283v1034h254l12 -127q54 73 140 113.5t188 40.5z" />
    <glyph glyph-name="o" unicode="o" horiz-adv-x="1284" 
d="M641 -27q-243 0 -399 152.5t-156 392.5q0 239 156.5 391t398.5 152q243 0 400 -151.5t157 -391.5t-157 -392.5t-400 -152.5zM641 238q120 0 193 77t73 203q0 125 -73.5 203t-192.5 78q-120 0 -193 -77.5t-73 -203.5t73 -203t193 -77z" />
    <glyph glyph-name="p" unicode="p" horiz-adv-x="1294" 
d="M719 1061q133 0 245 -69.5t178 -195t66 -280.5q0 -235 -144 -389t-353 -154q-193 0 -303 129v-614h-283v1546h256l12 -137q56 77 139.5 120.5t186.5 43.5zM653 236q118 0 192.5 78.5t74.5 201.5q0 125 -74.5 204t-192.5 79q-116 0 -191 -78t-75 -203q0 -124 74.5 -203
t191.5 -79z" />
    <glyph glyph-name="q" unicode="q" horiz-adv-x="1294" 
d="M915 1034h254v-1546h-280v616q-112 -131 -305 -131q-137 0 -250.5 69t-180.5 194t-67 280t66 280.5t178 195t245 69.5q104 0 188.5 -44t139.5 -122zM641 236q118 0 192 78.5t74 203.5t-74 203t-192 78t-192 -79t-74 -204q0 -123 74 -201.5t192 -78.5z" />
    <glyph glyph-name="r" unicode="r" horiz-adv-x="874" 
d="M707 1061q70 0 137 -23l-72 -268q-67 25 -125 25q-100 0 -169.5 -61t-69.5 -167v-567h-283v1034h256l12 -143q53 80 135 125t179 45z" />
    <glyph glyph-name="s" unicode="s" horiz-adv-x="1077" 
d="M539 -27q-123 0 -257.5 39t-215.5 103l88 207q65 -55 177.5 -86t221.5 -31q178 0 178 102q0 22 -12.5 37t-43 26.5t-61 18.5t-86.5 17q-86 15 -142 29t-113 38t-89.5 55t-52.5 78.5t-20 110.5q0 95 41 165t110.5 107.5t146 54.5t162.5 17q116 0 223 -32t187 -89l-88 -205
q-61 43 -147.5 68.5t-176.5 25.5q-168 0 -168 -96q0 -34 30.5 -50t123.5 -34q65 -12 106 -20t94.5 -22.5t86.5 -30t69 -39.5t55.5 -52.5t32.5 -68.5t13 -88q0 -167 -130.5 -261t-342.5 -94z" />
    <glyph glyph-name="t" unicode="t" horiz-adv-x="1021" 
d="M829 295l113 -223q-119 -99 -309 -99q-199 0 -304.5 103t-105.5 303v401h-196v254h196v305h283v-305h366v-254h-366v-372q0 -170 162 -170q91 0 161 57z" />
    <glyph glyph-name="u" unicode="u" horiz-adv-x="1196" 
d="M799 1034h282v-1034h-256l-12 125q-52 -72 -131.5 -112t-177.5 -40q-167 0 -278 110t-111 288v663h282v-610q0 -88 55 -138t136 -50q84 0 147.5 54t63.5 146v598z" />
    <glyph glyph-name="v" unicode="v" horiz-adv-x="1193" 
d="M858 1034h305l-405 -1034h-322l-405 1034h303l262 -725z" />
    <glyph glyph-name="w" unicode="w" horiz-adv-x="1830" 
d="M1499 1034h301l-354 -1034h-313l-218 686l-217 -686h-315l-352 1034h299l219 -708l223 708h285l223 -706z" />
    <glyph glyph-name="x" unicode="x" horiz-adv-x="1200" 
d="M1159 0h-330l-229 336l-231 -336h-328l377 518l-359 516h330l211 -327l211 327h330l-359 -518z" />
    <glyph glyph-name="y" unicode="y" horiz-adv-x="1189" 
d="M854 1034h305l-573 -1444h-264l151 410l-442 1034h303l272 -674z" />
    <glyph glyph-name="z" unicode="z" horiz-adv-x="1036" 
d="M446 254h508v-254h-888v217l497 563h-481v254h860v-215z" />
    <glyph glyph-name="braceleft" unicode="{" horiz-adv-x="901" 
d="M610 817q0 -176 -123 -233q123 -57 123 -232v-215q0 -90 38 -133t128 -43q40 0 76 8v-252q-54 -8 -113 -8q-204 0 -310.5 105t-106.5 309v166q0 92 -41 135t-127 43h-50v238h50q88 0 128 42t40 134v166q0 203 107 308t310 105q68 0 113 -10v-250q-36 8 -76 8
q-90 0 -128 -43t-38 -135v-213z" />
    <glyph glyph-name="bar" unicode="|" horiz-adv-x="630" 
d="M166 -287v1721h299v-1721h-299z" />
    <glyph glyph-name="braceright" unicode="}" horiz-adv-x="901" 
d="M750 705h47v-238h-47q-88 0 -128 -43t-40 -135v-166q0 -204 -107 -309t-311 -105q-59 0 -113 8v252q45 -10 74 -10q91 0 129.5 43.5t38.5 134.5v215q0 174 121 232q-121 58 -121 233v213q0 92 -38.5 135t-129.5 43q-38 0 -74 -8v250q45 10 113 10q203 0 310.5 -105
t107.5 -308v-166q0 -92 40 -134t128 -42z" />
    <glyph glyph-name="asciitilde" unicode="~" horiz-adv-x="1097" 
d="M248 469l-189 68q28 133 98 208.5t177 79.5q40 1 85.5 -12t131.5 -49l63 -29q95 -43 140 -35q35 3 55.5 31.5t34.5 87.5l194 -71q-65 -286 -284 -295q-71 -3 -217 63l-64 29q-83 40 -133 33q-37 -3 -57.5 -28.5t-34.5 -80.5z" />
    <glyph glyph-name="exclamdown" unicode="&#xa1;" horiz-adv-x="604" 
d="M303 709q-71 0 -121.5 50t-50.5 120q0 71 50.5 121.5t121.5 50.5q69 0 119.5 -51t50.5 -121t-50.5 -120t-119.5 -50zM139 -410l23 953h280l23 -953h-326z" />
    <glyph glyph-name="cent" unicode="&#xa2;" horiz-adv-x="1148" 
d="M1059 162q-117 -146 -311 -180v-215h-250v223q-179 43 -288.5 184t-109.5 338t109.5 338t288.5 184v223h250v-215q180 -30 299 -168l-207 -174q-71 88 -193 88q-116 0 -187 -76t-71 -200q0 -123 70.5 -198.5t187.5 -75.5q131 0 205 102z" />
    <glyph glyph-name="sterling" unicode="&#xa3;" horiz-adv-x="1320" 
d="M571 586v-310h664v-276h-1139v276h178v310h-178v262h178v92q0 230 154 375t391 145q132 0 243 -47t183 -135l-213 -197q-80 93 -211 93q-111 0 -180.5 -68t-69.5 -180v-78h504v-262h-504z" />
    <glyph glyph-name="yen" unicode="&#xa5;" horiz-adv-x="1507" 
d="M1456 1434l-399 -627h223v-197h-348l-29 -45v-100h377v-197h-377v-268h-297v268h-375v197h375v96l-31 49h-344v197h220l-400 627h357l346 -594l346 594h356z" />
    <glyph glyph-name="brokenbar" unicode="&#xa6;" horiz-adv-x="630" 
d="M166 723v711h299v-711h-299zM166 -287v711h299v-711h-299z" />
    <glyph glyph-name="section" unicode="&#xa7;" horiz-adv-x="1267" 
d="M1044 313q123 -94 123 -252q0 -182 -145 -286.5t-379 -104.5q-162 0 -317.5 51t-239.5 113l129 221q84 -62 206 -101.5t230 -39.5q102 0 158.5 33.5t56.5 99.5q0 40 -30 65t-63.5 34.5t-124.5 29.5q-11 3 -17 4q-94 20 -158.5 37.5t-126 40t-100 48.5t-68 60.5
t-42.5 77.5t-13 99q0 181 135 270q-63 40 -91 96t-28 140q0 94 33.5 167.5t86.5 118.5t127 74t147 40t153 11q256 0 467 -127l-131 -221q-163 102 -352 102q-117 0 -175.5 -35t-58.5 -100q0 -50 50.5 -79t197.5 -54q147 -28 201 -44q297 -91 297 -329q0 -169 -138 -260z
M422 571q0 -55 51 -80t197 -51q46 -7 78 -14q63 11 98 43.5t35 83.5q0 25 -10 43t-24.5 30t-43.5 22t-55.5 16.5t-71.5 15.5q-6 1 -9.5 2t-9 2t-10.5 2q-62 14 -76 16q-149 -21 -149 -131z" />
    <glyph glyph-name="dieresis" unicode="&#xa8;" horiz-adv-x="925" 
d="M229 1165q-66 0 -113.5 48t-47.5 114t47.5 114t113.5 48t114 -48t48 -114t-48 -114t-114 -48zM696 1165q-66 0 -113.5 48t-47.5 114t47.5 114t113.5 48t114 -48t48 -114t-48 -114t-114 -48z" />
    <glyph glyph-name="copyright" unicode="&#xa9;" horiz-adv-x="1798" 
d="M899 -27q-219 0 -394 94t-274.5 264t-99.5 386t99.5 386t274.5 263.5t394 93.5t394 -93.5t274.5 -263.5t99.5 -386t-99.5 -386t-274.5 -264t-394 -94zM899 164q243 0 398 154t155 399t-155 399t-398 154t-399 -154t-156 -399t155.5 -399t399.5 -154zM901 317
q-177 0 -292 113.5t-115 286.5t116 287t293 114q110 0 202 -51t142 -139l-180 -117q-53 109 -164 109q-86 0 -138 -56t-52 -147q0 -92 51.5 -147.5t136.5 -55.5q122 0 172 121l178 -125q-51 -91 -143.5 -142t-206.5 -51z" />
    <glyph glyph-name="ordfeminine" unicode="&#xaa;" horiz-adv-x="811" 
d="M416 1446q153 0 233 -79t80 -232v-420h-180l-8 90q-41 -52 -105 -80.5t-131 -28.5q-105 0 -177.5 62.5t-72.5 165.5q0 77 44.5 130t108 75t138.5 22q87 0 182 -25v4q0 138 -151 138q-119 0 -201 -68l-78 146q132 100 318 100zM358 858q67 0 117 38.5t53 96.5v4
q-73 21 -145 21q-59 0 -92 -21.5t-33 -60.5q0 -36 27 -57t73 -21z" />
    <glyph glyph-name="guillemotleft" unicode="&#xab;" horiz-adv-x="1269" 
d="M692 973l-340 -404l340 -403h-303l-338 403l338 404h303zM1219 973l-338 -404l338 -403h-304l-337 403l337 404h304z" />
    <glyph glyph-name="registered" unicode="&#xae;" horiz-adv-x="1148" 
d="M573 1446q220 0 363 -139t143 -357t-143 -356.5t-363 -138.5q-218 0 -359.5 138.5t-141.5 356.5q0 219 141.5 357.5t359.5 138.5zM573 573q165 0 269 105t104 272t-104 272t-269 105q-164 0 -267 -104t-103 -273q0 -167 103.5 -272t266.5 -105zM778 1042
q0 -114 -108 -151l131 -184h-148l-114 174h-41v-174h-125v495h227q80 0 129 -44t49 -116zM598 1092h-100v-101h100q51 0 51 49q0 52 -51 52z" />
    <glyph glyph-name="macron" unicode="&#xaf;" horiz-adv-x="792" 
d="M59 1444h674v-230h-674v230z" />
    <glyph glyph-name="degree" unicode="&#xb0;" horiz-adv-x="929" 
d="M465 940q-171 0 -282 110.5t-111 284.5q0 173 111 283.5t282 110.5q170 0 281.5 -111t111.5 -283q0 -174 -111.5 -284.5t-281.5 -110.5zM465 1145q79 0 128.5 51t49.5 139q0 87 -49.5 138t-128.5 51q-80 0 -130 -51t-50 -138q0 -88 49.5 -139t130.5 -51z" />
    <glyph glyph-name="plusminus" unicode="&#xb1;" horiz-adv-x="1118" 
d="M680 936h379v-244h-379v-334h-242v334h-379v244h379v330h242v-330zM59 0v244h1000v-244h-1000z" />
    <glyph glyph-name="acute" unicode="&#xb4;" horiz-adv-x="659" 
d="M59 1200l220 332h321l-278 -332h-263z" />
    <glyph glyph-name="paragraph" unicode="&#xb6;" horiz-adv-x="1413" 
d="M848 1434v-1721h-250v819h-41q-196 0 -323.5 126.5t-127.5 324.5t127.5 324.5t323.5 126.5h291zM999 1434h248v-1721h-248v1721z" />
    <glyph glyph-name="periodcentered" unicode="&#xb7;" horiz-adv-x="606" 
d="M303 442q-73 0 -125.5 52.5t-52.5 126.5q0 73 52.5 125.5t125.5 52.5t125.5 -52.5t52.5 -125.5q0 -74 -52.5 -126.5t-125.5 -52.5z" />
    <glyph glyph-name="cedilla" unicode="&#xb8;" horiz-adv-x="655" 
d="M387 -80q106 -6 157.5 -69.5t51.5 -145.5q0 -94 -74.5 -157.5t-208.5 -63.5q-175 0 -254 106l121 105q37 -55 121 -55q105 0 105 67q0 30 -21 49t-63 19q-47 0 -74 -17l-66 109l92 184h179z" />
    <glyph glyph-name="ordmasculine" unicode="&#xba;" horiz-adv-x="933" 
d="M467 696q-169 0 -278 106t-109 271q0 164 109 268.5t278 104.5t278 -104.5t109 -268.5q0 -165 -109 -271t-278 -106zM467 885q82 0 131 51t49 137q0 84 -49.5 135.5t-130.5 51.5q-80 0 -130 -52t-50 -135q0 -86 49 -137t131 -51z" />
    <glyph glyph-name="guillemotright" unicode="&#xbb;" horiz-adv-x="1269" 
d="M354 973l338 -404l-338 -403h-303l340 403l-340 404h303zM881 973l338 -404l-338 -403h-303l337 403l-337 404h303z" />
    <glyph glyph-name="onequarter" unicode="&#xbc;" horiz-adv-x="1718" 
d="M1128 1460h252l-929 -1487h-252zM219 604v567l-188 -73v192l344 144h53v-830h-209zM1671 328v-195h-98v-133h-193v133h-393v162l223 534h222l-213 -501h161v172h193v-172h98z" />
    <glyph glyph-name="onehalf" unicode="&#xbd;" horiz-adv-x="1742" 
d="M1128 1460h252l-929 -1487h-252zM219 604v567l-188 -73v192l344 144h53v-830h-209zM1415 195h262v-195h-581v160l8 8l274 274q35 37 50.5 61.5t15.5 53.5q0 42 -25 67t-71 25q-43 0 -85 -24t-69 -66l-127 125q45 76 125.5 118t175.5 42q128 0 210.5 -74.5t82.5 -202.5
q0 -71 -31.5 -129.5t-111.5 -138.5z" />
    <glyph glyph-name="threequarters" unicode="&#xbe;" horiz-adv-x="1857" 
d="M1268 1460h252l-930 -1487h-252zM678 836q0 -108 -94 -178t-244 -70q-103 0 -180 34.5t-119 90.5l121 127q67 -78 172 -78q62 0 94.5 25t32.5 65q0 41 -31.5 66.5t-89.5 25.5h-115v164h109q49 0 77.5 21.5t28.5 62.5q0 35 -27 57.5t-83 22.5q-104 0 -162 -74l-119 117
q87 133 287 133q141 0 229 -67.5t88 -174.5q0 -119 -106 -180q62 -28 96.5 -77t34.5 -113zM1810 328v-195h-98v-133h-192v133h-394v162l224 534h221l-213 -501h162v172h192v-172h98z" />
    <glyph glyph-name="questiondown" unicode="&#xbf;" horiz-adv-x="1146" 
d="M594 709q-72 0 -122 49.5t-50 120.5t50 121.5t122 50.5q71 0 121.5 -50t50.5 -122q0 -70 -50.5 -120t-121.5 -50zM586 -436q-215 0 -340 116t-125 322q0 96 47 175t201 231q56 57 69.5 78t16.5 57h278q2 -61 0 -88.5t-22 -66.5t-49 -71t-99 -104q-84 -88 -107.5 -121.5
t-23.5 -81.5q0 -78 45 -119t127 -41q157 0 248 144l215 -178q-167 -252 -481 -252z" />
    <glyph glyph-name="Agrave" unicode="&#xc0;" horiz-adv-x="1576" 
d="M907 1599h-262l-278 332h319zM1208 0l-121 322h-598l-120 -322h-318l563 1434h349l563 -1434h-318zM592 600h393l-197 526z" />
    <glyph glyph-name="Aacute" unicode="&#xc1;" horiz-adv-x="1576" 
d="M1194 1931l-279 -332h-262l219 332h322zM1208 0l-121 322h-598l-120 -322h-318l563 1434h349l563 -1434h-318zM592 600h393l-197 526z" />
    <glyph glyph-name="Acircumflex" unicode="&#xc2;" horiz-adv-x="1576" 
d="M784 1776l-135 -177h-256l240 332h301l240 -332h-254zM1208 0l-121 322h-598l-120 -322h-318l563 1434h349l563 -1434h-318zM592 600h393l-197 526z" />
    <glyph glyph-name="Atilde" unicode="&#xc3;" horiz-adv-x="1576" 
d="M635 1702q-33 0 -50.5 -26t-29.5 -77l-158 64q51 252 221 252q69 0 166 -51l47 -25q65 -33 93 -33q32 0 49.5 29t27.5 82l164 -64q-23 -119 -80.5 -189.5t-150.5 -70.5q-66 0 -164 52l-47 26q-60 31 -88 31zM1208 0l-121 322h-598l-120 -322h-318l563 1434h349l563 -1434
h-318zM592 600h393l-197 526z" />
    <glyph glyph-name="Adieresis" unicode="&#xc4;" horiz-adv-x="1576" 
d="M549 1565q-66 0 -114 47.5t-48 113.5t48 114t114 48t114 -48t48 -114t-48 -113.5t-114 -47.5zM1016 1565q-66 0 -114 47.5t-48 113.5t48 114t114 48t114 -48t48 -114t-48 -113.5t-114 -47.5zM1208 0l-121 322h-598l-120 -322h-318l563 1434h349l563 -1434h-318zM592 600
h393l-197 526z" />
    <glyph glyph-name="Aring" unicode="&#xc5;" horiz-adv-x="1576" 
d="M782 1505q-113 0 -186.5 72.5t-73.5 187.5t73.5 187.5t186.5 72.5t186.5 -72.5t73.5 -187.5t-73.5 -187.5t-186.5 -72.5zM782 1874q-46 0 -76 -30t-30 -79t30 -78.5t76 -29.5q48 0 77.5 29.5t29.5 78.5t-29.5 79t-77.5 30zM1208 0l-121 322h-598l-120 -322h-318l563 1434
h349l563 -1434h-318zM592 600h393l-197 526z" />
    <glyph glyph-name="AE" unicode="&#xc6;" horiz-adv-x="2138" 
d="M1274 276h772v-276h-1071v322h-434l-166 -322h-324l766 1434h1213v-277h-756v-293h723v-278h-723v-310zM686 600h289v561z" />
    <glyph glyph-name="Ccedilla" unicode="&#xc7;" horiz-adv-x="1546" 
d="M1456 283q-96 -146 -258.5 -227t-355.5 -83l-27 -53q106 -6 157.5 -69.5t51.5 -145.5q0 -94 -74.5 -157.5t-208.5 -63.5q-175 0 -254 106l121 105q37 -55 121 -55q105 0 105 67q0 30 -21 49t-63 19q-47 0 -74 -17l-66 109l62 123q-260 52 -421 248.5t-161 478.5
q0 215 97.5 385.5t268 264t382.5 93.5q196 0 356 -79t256 -210l-258 -167q-58 80 -150 125t-204 45q-192 0 -314.5 -127.5t-122.5 -329.5q0 -201 121.5 -329t313.5 -128q118 0 215 51.5t155 147.5z" />
    <glyph glyph-name="Egrave" unicode="&#xc8;" horiz-adv-x="1329" 
d="M807 1599h-262l-279 332h320zM465 276h774v-276h-1073v1434h1057v-277h-758v-293h725v-278h-725v-310z" />
    <glyph glyph-name="Eacute" unicode="&#xc9;" horiz-adv-x="1329" 
d="M1094 1931l-279 -332h-262l219 332h322zM465 276h774v-276h-1073v1434h1057v-277h-758v-293h725v-278h-725v-310z" />
    <glyph glyph-name="Ecircumflex" unicode="&#xca;" horiz-adv-x="1329" 
d="M684 1776l-135 -177h-256l239 332h302l239 -332h-254zM465 276h774v-276h-1073v1434h1057v-277h-758v-293h725v-278h-725v-310z" />
    <glyph glyph-name="Edieresis" unicode="&#xcb;" horiz-adv-x="1329" 
d="M449 1565q-66 0 -114 47.5t-48 113.5t48 114t114 48t113.5 -48t47.5 -114t-47.5 -113.5t-113.5 -47.5zM915 1565q-66 0 -113.5 47.5t-47.5 113.5t47.5 114t113.5 48t114 -48t48 -114t-48 -113.5t-114 -47.5zM465 276h774v-276h-1073v1434h1057v-277h-758v-293h725v-278
h-725v-310z" />
    <glyph glyph-name="Igrave" unicode="&#xcc;" horiz-adv-x="630" 
d="M176 1599l-278 332h319l221 -332h-262zM465 1434v-1434h-299v1434h299z" />
    <glyph glyph-name="Iacute" unicode="&#xcd;" horiz-adv-x="630" 
d="M184 1599l219 332h322l-279 -332h-262zM465 1434v-1434h-299v1434h299z" />
    <glyph glyph-name="Icircumflex" unicode="&#xce;" horiz-adv-x="630" 
d="M315 1776l-135 -177h-256l240 332h301l240 -332h-254zM166 0v1434h299v-1434h-299z" />
    <glyph glyph-name="Idieresis" unicode="&#xcf;" horiz-adv-x="630" 
d="M80 1565q-66 0 -114 47.5t-48 113.5t48 114t114 48t114 -48t48 -114t-48 -113.5t-114 -47.5zM547 1565q-66 0 -114 47.5t-48 113.5t48 114t114 48t114 -48t48 -114t-48 -113.5t-114 -47.5zM465 1434v-1434h-299v1434h299z" />
    <glyph glyph-name="Eth" unicode="&#xd0;" horiz-adv-x="1609" 
d="M768 1434q216 0 386 -86.5t268 -250.5t98 -380q0 -215 -98 -379t-268 -251t-386 -87h-561v608h-187v217h187v609h561zM768 279q200 0 320 119.5t120 318.5t-120 318.5t-320 119.5h-262v-330h424v-217h-424v-329h262z" />
    <glyph glyph-name="Ntilde" unicode="&#xd1;" horiz-adv-x="1562" 
d="M639 1702q-33 0 -50.5 -26t-29.5 -77l-158 64q26 127 83 189.5t139 62.5q68 0 165 -51l48 -25q65 -33 92 -33q32 0 50 29t28 82l163 -64q-23 -119 -80.5 -189.5t-150.5 -70.5q-66 0 -164 52l-47 26q-60 31 -88 31zM1100 1434h295v-1434h-267l-667 909v-909h-295v1434h266
l668 -906v906z" />
    <glyph glyph-name="Ograve" unicode="&#xd2;" horiz-adv-x="1685" 
d="M709 1599l-279 332h320l221 -332h-262zM842 -27q-214 0 -385.5 94t-269 264t-97.5 386q0 162 57 300.5t156.5 235.5t239 152t299.5 55q214 0 385 -93t268.5 -263.5t97.5 -386.5q0 -162 -57 -301t-156.5 -236t-238.5 -152t-299 -55zM842 260q196 0 319 127t123 330
t-123 330t-319 127t-318.5 -127t-122.5 -330t122.5 -330t318.5 -127z" />
    <glyph glyph-name="Oacute" unicode="&#xd3;" horiz-adv-x="1685" 
d="M717 1599l219 332h321l-278 -332h-262zM842 -27q-214 0 -385.5 94t-269 264t-97.5 386q0 162 57 300.5t156.5 235.5t239 152t299.5 55q214 0 385 -93t268.5 -263.5t97.5 -386.5q0 -162 -57 -301t-156.5 -236t-238.5 -152t-299 -55zM842 260q196 0 319 127t123 330
t-123 330t-319 127t-318.5 -127t-122.5 -330t122.5 -330t318.5 -127z" />
    <glyph glyph-name="Ocircumflex" unicode="&#xd4;" horiz-adv-x="1685" 
d="M848 1776l-135 -177h-256l239 332h301l240 -332h-254zM842 1460q214 0 385 -93t268.5 -263.5t97.5 -386.5q0 -162 -57 -301t-156.5 -236t-238.5 -152t-299 -55q-214 0 -385.5 94t-269 264t-97.5 386q0 162 57 300.5t156.5 235.5t239 152t299.5 55zM842 260q196 0 319 127
t123 330t-123 330t-319 127t-318.5 -127t-122.5 -330t122.5 -330t318.5 -127z" />
    <glyph glyph-name="Otilde" unicode="&#xd5;" horiz-adv-x="1685" 
d="M618 1599l-157 64q51 252 221 252q69 0 166 -51l47 -25q65 -33 92 -33q32 0 50 29t28 82l164 -64q-23 -118 -81 -189t-151 -71q-65 0 -163 52l-48 26q-60 31 -88 31q-33 0 -50.5 -26t-29.5 -77zM842 -27q-214 0 -385.5 94t-269 264t-97.5 386q0 162 57 300.5t156.5 235.5
t239 152t299.5 55q214 0 385 -93t268.5 -263.5t97.5 -386.5q0 -162 -57 -301t-156.5 -236t-238.5 -152t-299 -55zM842 260q196 0 319 127t123 330t-123 330t-319 127t-318.5 -127t-122.5 -330t122.5 -330t318.5 -127z" />
    <glyph glyph-name="Odieresis" unicode="&#xd6;" horiz-adv-x="1685" 
d="M612 1565q-66 0 -113.5 47.5t-47.5 113.5t47.5 114t113.5 48t114 -48t48 -114t-48 -113.5t-114 -47.5zM1079 1565q-66 0 -113.5 47.5t-47.5 113.5t47.5 114t113.5 48t114 -48t48 -114t-48 -113.5t-114 -47.5zM842 -27q-214 0 -385.5 94t-269 264t-97.5 386
q0 162 57 300.5t156.5 235.5t239 152t299.5 55q214 0 385 -93t268.5 -263.5t97.5 -386.5q0 -162 -57 -301t-156.5 -236t-238.5 -152t-299 -55zM842 260q196 0 319 127t123 330t-123 330t-319 127t-318.5 -127t-122.5 -330t122.5 -330t318.5 -127z" />
    <glyph glyph-name="multiply" unicode="&#xd7;" horiz-adv-x="1067" 
d="M242 109l-172 172l292 290l-292 293l172 172l293 -293l290 293l172 -172l-290 -293l290 -290l-172 -172l-290 292z" />
    <glyph glyph-name="Oslash" unicode="&#xd8;" horiz-adv-x="1685" 
d="M1288 1329q144 -98 224.5 -257t80.5 -355q0 -216 -97 -386t-268 -264t-384 -94q-104 0 -207 25l-80 -162h-291l131 268q-145 98 -226 257t-81 356q0 162 57 300.5t156.5 235.5t239 152t299.5 55q108 0 207 -24l79 161h291zM401 717q0 -213 131 -338l386 788q-44 7 -76 7
q-196 0 -318.5 -127t-122.5 -330zM842 260q196 0 319 127t123 330q0 210 -131 338l-385 -789q35 -6 74 -6z" />
    <glyph glyph-name="Ugrave" unicode="&#xd9;" horiz-adv-x="1521" 
d="M623 1599l-279 332h320l221 -332h-262zM760 -27q-138 0 -243.5 33t-174 91t-111.5 145t-61 186.5t-18 224.5v781h301v-783q0 -212 70 -301.5t237 -89.5q168 0 238.5 89t70.5 302v783h303v-781q0 -123 -17 -221.5t-60 -186t-111.5 -146t-175.5 -92.5t-248 -34z" />
    <glyph glyph-name="Uacute" unicode="&#xda;" horiz-adv-x="1521" 
d="M631 1599l219 332h321l-278 -332h-262zM760 -27q-138 0 -243.5 33t-174 91t-111.5 145t-61 186.5t-18 224.5v781h301v-783q0 -212 70 -301.5t237 -89.5q168 0 238.5 89t70.5 302v783h303v-781q0 -123 -17 -221.5t-60 -186t-111.5 -146t-175.5 -92.5t-248 -34z" />
    <glyph glyph-name="Ucircumflex" unicode="&#xdb;" horiz-adv-x="1521" 
d="M762 1776l-135 -177h-256l239 332h301l240 -332h-254zM1069 1434h303v-781q0 -123 -17 -221.5t-60 -186t-111.5 -146t-175.5 -92.5t-248 -34q-138 0 -243.5 33t-174 91t-111.5 145t-61 186.5t-18 224.5v781h301v-783q0 -212 70 -301.5t237 -89.5q168 0 238.5 89t70.5 302
v783z" />
    <glyph glyph-name="Udieresis" unicode="&#xdc;" horiz-adv-x="1521" 
d="M526 1565q-66 0 -113.5 47.5t-47.5 113.5t47.5 114t113.5 48t114 -48t48 -114t-48 -113.5t-114 -47.5zM993 1565q-66 0 -114 47.5t-48 113.5t48 114t114 48t114 -48t48 -114t-48 -113.5t-114 -47.5zM760 -27q-138 0 -243.5 33t-174 91t-111.5 145t-61 186.5t-18 224.5
v781h301v-783q0 -212 70 -301.5t237 -89.5q168 0 238.5 89t70.5 302v783h303v-781q0 -123 -17 -221.5t-60 -186t-111.5 -146t-175.5 -92.5t-248 -34z" />
    <glyph glyph-name="Yacute" unicode="&#xdd;" horiz-adv-x="1507" 
d="M1161 1931l-278 -332h-262l219 332h321zM1456 1434l-553 -869v-565h-297v561l-555 873h357l346 -594l346 594h356z" />
    <glyph glyph-name="Thorn" unicode="&#xde;" horiz-adv-x="1406" 
d="M772 1233q243 0 385.5 -132.5t142.5 -348.5q0 -218 -142 -350t-386 -132h-307v-270h-299v1434h299v-201h307zM768 549q107 0 165 53t58 150q0 98 -57.5 150t-165.5 52h-303v-405h303z" />
    <glyph glyph-name="germandbls" unicode="&#xdf;" horiz-adv-x="1282" 
d="M977 778q223 -83 223 -358q0 -204 -136.5 -325.5t-369.5 -121.5q-106 0 -202 29l49 236q49 -21 121 -21q121 0 184 56t63 161q0 116 -61 165.5t-189 49.5h-65v242h45q113 0 170 53t57 152q0 101 -58.5 157t-166.5 56q-110 0 -171.5 -57.5t-61.5 -157.5v-1094h-283v1104
q0 208 144 333.5t372 125.5q229 0 372.5 -124t143.5 -331q0 -111 -45.5 -196t-134.5 -134z" />
    <glyph glyph-name="agrave" unicode="&#xe0;" horiz-adv-x="1185" 
d="M741 1200h-262l-278 332h319zM618 1061q449 0 449 -445v-616h-254l-12 137q-58 -79 -151.5 -121.5t-194.5 -42.5q-95 0 -175.5 35.5t-133 111t-52.5 177.5q0 84 36 148.5t97 102t133.5 56.5t151.5 19q141 0 274 -39v22q0 106 -55.5 156.5t-169.5 50.5q-170 0 -297 -96
l-106 201q190 143 460 143zM530 199q99 0 177 59t79 150q-103 32 -221 32q-83 0 -134.5 -31t-51.5 -94q0 -56 41 -86t110 -30z" />
    <glyph glyph-name="aacute" unicode="&#xe1;" horiz-adv-x="1185" 
d="M1028 1532l-278 -332h-263l220 332h321zM618 1061q449 0 449 -445v-616h-254l-12 137q-58 -79 -151.5 -121.5t-194.5 -42.5q-95 0 -175.5 35.5t-133 111t-52.5 177.5q0 84 36 148.5t97 102t133.5 56.5t151.5 19q141 0 274 -39v22q0 106 -55.5 156.5t-169.5 50.5
q-170 0 -297 -96l-106 201q190 143 460 143zM530 199q99 0 177 59t79 150q-103 32 -221 32q-83 0 -134.5 -31t-51.5 -94q0 -56 41 -86t110 -30z" />
    <glyph glyph-name="acircumflex" unicode="&#xe2;" horiz-adv-x="1185" 
d="M618 1376l-135 -176h-256l240 332h301l240 -332h-254zM618 1061q449 0 449 -445v-616h-254l-12 137q-58 -79 -151.5 -121.5t-194.5 -42.5q-95 0 -175.5 35.5t-133 111t-52.5 177.5q0 84 36 148.5t97 102t133.5 56.5t151.5 19q141 0 274 -39v22q0 106 -55.5 156.5
t-169.5 50.5q-170 0 -297 -96l-106 201q190 143 460 143zM530 199q99 0 177 59t79 150q-103 32 -221 32q-83 0 -134.5 -31t-51.5 -94q0 -56 41 -86t110 -30z" />
    <glyph glyph-name="atilde" unicode="&#xe3;" horiz-adv-x="1185" 
d="M469 1303q-33 0 -50.5 -26t-29.5 -77l-158 64q26 127 83 189.5t139 62.5q66 0 165 -52l48 -24q65 -33 92 -33q32 0 50 29t28 82l163 -64q-23 -119 -80.5 -189.5t-150.5 -70.5q-68 0 -164 51l-47 27q-60 31 -88 31zM618 1061q449 0 449 -445v-616h-254l-12 137
q-58 -79 -151.5 -121.5t-194.5 -42.5q-95 0 -175.5 35.5t-133 111t-52.5 177.5q0 84 36 148.5t97 102t133.5 56.5t151.5 19q141 0 274 -39v22q0 106 -55.5 156.5t-169.5 50.5q-170 0 -297 -96l-106 201q190 143 460 143zM530 199q99 0 177 59t79 150q-103 32 -221 32
q-83 0 -134.5 -31t-51.5 -94q0 -56 41 -86t110 -30z" />
    <glyph glyph-name="adieresis" unicode="&#xe4;" horiz-adv-x="1185" 
d="M383 1165q-66 0 -114 48t-48 114t48 114t114 48t114 -48t48 -114t-48 -114t-114 -48zM850 1165q-66 0 -114 48t-48 114t48 114t114 48t114 -48t48 -114t-48 -114t-114 -48zM618 1061q449 0 449 -445v-616h-254l-12 137q-58 -79 -151.5 -121.5t-194.5 -42.5
q-95 0 -175.5 35.5t-133 111t-52.5 177.5q0 84 36 148.5t97 102t133.5 56.5t151.5 19q141 0 274 -39v22q0 106 -55.5 156.5t-169.5 50.5q-170 0 -297 -96l-106 201q190 143 460 143zM530 199q99 0 177 59t79 150q-103 32 -221 32q-83 0 -134.5 -31t-51.5 -94q0 -56 41 -86
t110 -30z" />
    <glyph glyph-name="aring" unicode="&#xe5;" horiz-adv-x="1185" 
d="M616 1106q-113 0 -186.5 72.5t-73.5 187.5t73.5 187.5t186.5 72.5t187 -72.5t74 -187.5t-74 -187.5t-187 -72.5zM616 1475q-46 0 -76 -30t-30 -79t30 -79t76 -30q48 0 77.5 30t29.5 79t-29.5 79t-77.5 30zM618 1061q449 0 449 -445v-616h-254l-12 137
q-58 -79 -151.5 -121.5t-194.5 -42.5q-95 0 -175.5 35.5t-133 111t-52.5 177.5q0 84 36 148.5t97 102t133.5 56.5t151.5 19q141 0 274 -39v22q0 106 -55.5 156.5t-169.5 50.5q-170 0 -297 -96l-106 201q190 143 460 143zM530 199q99 0 177 59t79 150q-103 32 -221 32
q-83 0 -134.5 -31t-51.5 -94q0 -56 41 -86t110 -30z" />
    <glyph glyph-name="ae" unicode="&#xe6;" horiz-adv-x="1908" 
d="M1077 416q23 -94 90 -145.5t168 -51.5q145 0 246 94l186 -176q-79 -76 -189 -120t-237 -44q-144 0 -262 56t-194 157q-65 -103 -182 -158t-244 -55q-71 0 -135.5 21t-116.5 61t-82.5 103t-30.5 141q0 83 36 147.5t96.5 102t132.5 56t151 18.5q139 0 272 -39v22
q0 207 -225 207q-166 0 -293 -96l-106 201q87 66 204.5 104.5t247.5 38.5q237 0 353 -131q150 131 372 131q97 0 178 -26.5t137.5 -72t96 -108t58 -133.5t18.5 -148q0 -89 -15 -157h-731zM1323 813q-93 0 -158 -53.5t-88 -147.5h469q-8 93 -65.5 147t-157.5 54zM528 199
q97 0 174 59t80 150q-100 32 -219 32q-82 0 -133 -31t-51 -94q0 -56 40.5 -86t108.5 -30z" />
    <glyph glyph-name="ccedilla" unicode="&#xe7;" horiz-adv-x="1130" 
d="M1051 162q-145 -175 -383 -187l-27 -55q106 -6 157.5 -69.5t51.5 -145.5q0 -94 -74.5 -157.5t-208.5 -63.5q-175 0 -254 106l121 105q37 -55 121 -55q104 0 104 67q0 30 -21 49t-63 19q-46 0 -73 -17l-66 109l62 121q-186 42 -299 185t-113 345q0 238 154 390.5
t391 152.5q124 0 229.5 -45t177.5 -129l-209 -178q-70 90 -196 90q-116 0 -187 -77.5t-71 -203.5t71 -203t189 -77q132 0 205 104z" />
    <glyph glyph-name="egrave" unicode="&#xe8;" horiz-adv-x="1218" 
d="M743 1200h-262l-278 332h319zM377 418q23 -97 91 -149t171 -52q144 0 248 96l184 -176q-81 -78 -190.5 -121t-233.5 -43q-244 0 -402.5 151t-158.5 396q0 237 150 389t391 152q124 0 223 -41.5t159.5 -111t92 -156t31.5 -181.5q0 -80 -15 -153h-741zM625 815
q-97 0 -161.5 -53t-86.5 -148h481q-8 92 -69 146.5t-164 54.5z" />
    <glyph glyph-name="eacute" unicode="&#xe9;" horiz-adv-x="1218" 
d="M1030 1532l-278 -332h-263l220 332h321zM377 418q23 -97 91 -149t171 -52q144 0 248 96l184 -176q-81 -78 -190.5 -121t-233.5 -43q-244 0 -402.5 151t-158.5 396q0 237 150 389t391 152q124 0 223 -41.5t159.5 -111t92 -156t31.5 -181.5q0 -80 -15 -153h-741zM625 815
q-97 0 -161.5 -53t-86.5 -148h481q-8 92 -69 146.5t-164 54.5z" />
    <glyph glyph-name="ecircumflex" unicode="&#xea;" horiz-adv-x="1218" 
d="M621 1376l-136 -176h-256l240 332h301l240 -332h-254zM377 418q23 -97 91 -149t171 -52q144 0 248 96l184 -176q-81 -78 -190.5 -121t-233.5 -43q-244 0 -402.5 151t-158.5 396q0 237 150 389t391 152q124 0 223 -41.5t159.5 -111t92 -156t31.5 -181.5q0 -80 -15 -153
h-741zM625 815q-97 0 -161.5 -53t-86.5 -148h481q-8 92 -69 146.5t-164 54.5z" />
    <glyph glyph-name="edieresis" unicode="&#xeb;" horiz-adv-x="1218" 
d="M385 1165q-66 0 -114 48t-48 114t48 114t114 48t114 -48t48 -114t-48 -114t-114 -48zM852 1165q-66 0 -114 48t-48 114t48 114t114 48t114 -48t48 -114t-48 -114t-114 -48zM377 418q23 -97 91 -149t171 -52q144 0 248 96l184 -176q-81 -78 -190.5 -121t-233.5 -43
q-244 0 -402.5 151t-158.5 396q0 237 150 389t391 152q124 0 223 -41.5t159.5 -111t92 -156t31.5 -181.5q0 -80 -15 -153h-741zM625 815q-97 0 -161.5 -53t-86.5 -148h481q-8 92 -69 146.5t-164 54.5z" />
    <glyph glyph-name="igrave" unicode="&#xec;" horiz-adv-x="528" 
d="M127 1200l-279 332h320l221 -332h-262zM406 1034v-1034h-283v1034h283z" />
    <glyph glyph-name="iacute" unicode="&#xed;" horiz-adv-x="528" 
d="M135 1200l219 332h322l-279 -332h-262zM406 1034v-1034h-283v1034h283z" />
    <glyph glyph-name="icircumflex" unicode="&#xee;" horiz-adv-x="528" 
d="M266 1376l-135 -176h-256l240 332h301l239 -332h-254zM123 0v1034h283v-1034h-283z" />
    <glyph glyph-name="idieresis" unicode="&#xef;" horiz-adv-x="528" 
d="M31 1165q-66 0 -114 48t-48 114t48 114t114 48t114 -48t48 -114t-48 -114t-114 -48zM498 1165q-66 0 -114 48t-48 114t48 114t114 48t113.5 -48t47.5 -114t-47.5 -114t-113.5 -48zM406 1034v-1034h-283v1034h283z" />
    <glyph glyph-name="eth" unicode="&#xf0;" horiz-adv-x="1273" 
d="M961 1157q227 -277 227 -659q0 -230 -155.5 -377.5t-395.5 -147.5q-237 0 -394 146.5t-157 372.5q0 142 63.5 254t171 172.5t238.5 60.5q143 0 260 -74q-22 46 -69 103q-58 73 -136 139l-223 -133l-90 141l164 98q-72 44 -189 101l123 209q173 -78 303 -168l211 127
l93 -144l-162 -96q65 -62 117 -125zM637 221q118 0 190 72.5t72 189.5t-72 188.5t-190 71.5q-117 0 -189.5 -71.5t-72.5 -188.5t72.5 -189.5t189.5 -72.5z" />
    <glyph glyph-name="ntilde" unicode="&#xf1;" horiz-adv-x="1236" 
d="M485 1303q-33 0 -50 -26t-29 -77l-158 64q51 252 221 252q67 0 166 -52l47 -24q65 -33 92 -33q32 0 50 29t28 82l164 -64q-23 -118 -81 -189t-151 -71q-67 0 -163 51l-48 27q-60 31 -88 31zM719 1061q175 0 289 -109t114 -288v-664h-280v602q0 88 -54.5 142.5
t-144.5 54.5q-93 0 -164 -53.5t-71 -147.5v-598h-283v1034h254l12 -127q54 73 140 113.5t188 40.5z" />
    <glyph glyph-name="ograve" unicode="&#xf2;" horiz-adv-x="1284" 
d="M502 1200l-279 332h320l221 -332h-262zM641 -27q-243 0 -399 152.5t-156 392.5q0 239 156.5 391t398.5 152q243 0 400 -151.5t157 -391.5t-157 -392.5t-400 -152.5zM641 238q120 0 193 77t73 203q0 125 -73.5 203t-192.5 78q-120 0 -193 -77.5t-73 -203.5t73 -203
t193 -77z" />
    <glyph glyph-name="oacute" unicode="&#xf3;" horiz-adv-x="1284" 
d="M510 1200l219 332h322l-279 -332h-262zM641 -27q-243 0 -399 152.5t-156 392.5q0 239 156.5 391t398.5 152q243 0 400 -151.5t157 -391.5t-157 -392.5t-400 -152.5zM641 238q120 0 193 77t73 203q0 125 -73.5 203t-192.5 78q-120 0 -193 -77.5t-73 -203.5t73 -203
t193 -77z" />
    <glyph glyph-name="ocircumflex" unicode="&#xf4;" horiz-adv-x="1284" 
d="M641 1376l-135 -176h-256l239 332h302l239 -332h-254zM641 1061q243 0 400 -151.5t157 -391.5t-157 -392.5t-400 -152.5t-399 152.5t-156 392.5q0 239 156.5 391t398.5 152zM641 238q120 0 193 77t73 203q0 125 -73.5 203t-192.5 78q-120 0 -193 -77.5t-73 -203.5
t73 -203t193 -77z" />
    <glyph glyph-name="otilde" unicode="&#xf5;" horiz-adv-x="1284" 
d="M412 1200l-158 64q51 252 221 252q67 0 166 -52l47 -24q65 -33 92 -33q32 0 50 29t28 82l164 -64q-23 -119 -80.5 -189.5t-150.5 -70.5q-68 0 -164 51l-47 27q-60 31 -88 31q-33 0 -50.5 -26t-29.5 -77zM641 -27q-243 0 -399 152.5t-156 392.5q0 239 156.5 391t398.5 152
q243 0 400 -151.5t157 -391.5t-157 -392.5t-400 -152.5zM641 238q120 0 193 77t73 203q0 125 -73.5 203t-192.5 78q-120 0 -193 -77.5t-73 -203.5t73 -203t193 -77z" />
    <glyph glyph-name="odieresis" unicode="&#xf6;" horiz-adv-x="1284" 
d="M406 1165q-66 0 -114 48t-48 114t48 114t114 48t113.5 -48t47.5 -114t-47.5 -114t-113.5 -48zM872 1165q-66 0 -113.5 48t-47.5 114t47.5 114t113.5 48t114 -48t48 -114t-48 -114t-114 -48zM641 -27q-243 0 -399 152.5t-156 392.5q0 239 156.5 391t398.5 152
q243 0 400 -151.5t157 -391.5t-157 -392.5t-400 -152.5zM641 238q120 0 193 77t73 203q0 125 -73.5 203t-192.5 78q-120 0 -193 -77.5t-73 -203.5t73 -203t193 -77z" />
    <glyph glyph-name="divide" unicode="&#xf7;" horiz-adv-x="1118" 
d="M559 801q-67 0 -115.5 48.5t-48.5 115.5t48 115t116 48t116 -48t48 -115t-48.5 -115.5t-115.5 -48.5zM59 457v243h1000v-243h-1000zM559 29q-68 0 -116 48.5t-48 117.5q0 66 48.5 114.5t115.5 48.5t115.5 -48.5t48.5 -114.5q0 -69 -48 -117.5t-116 -48.5z" />
    <glyph glyph-name="oslash" unicode="&#xf8;" horiz-adv-x="1284" 
d="M973 965q106 -72 165.5 -187.5t59.5 -259.5q0 -240 -157 -392.5t-400 -152.5q-67 0 -143 17l-76 -154h-221l112 232q-107 72 -167 188t-60 262q0 239 156.5 391t398.5 152q69 0 152 -17l69 144h221zM375 518q0 -120 65 -194l232 473q-10 2 -31 2q-120 0 -193 -77.5
t-73 -203.5zM641 238q120 0 193 77t73 203q0 112 -59 187l-230 -467h23z" />
    <glyph glyph-name="ugrave" unicode="&#xf9;" horiz-adv-x="1196" 
d="M719 1200h-262l-279 332h320zM799 1034h282v-1034h-256l-12 125q-52 -72 -131.5 -112t-177.5 -40q-167 0 -278 110t-111 288v663h282v-610q0 -88 55 -138t136 -50q84 0 147.5 54t63.5 146v598z" />
    <glyph glyph-name="uacute" unicode="&#xfa;" horiz-adv-x="1196" 
d="M1006 1532l-279 -332h-262l219 332h322zM799 1034h282v-1034h-256l-12 125q-52 -72 -131.5 -112t-177.5 -40q-167 0 -278 110t-111 288v663h282v-610q0 -88 55 -138t136 -50q84 0 147.5 54t63.5 146v598z" />
    <glyph glyph-name="ucircumflex" unicode="&#xfb;" horiz-adv-x="1196" 
d="M596 1376l-135 -176h-256l239 332h301l240 -332h-254zM799 1034h282v-1034h-256l-12 125q-52 -72 -131.5 -112t-177.5 -40q-167 0 -278 110t-111 288v663h282v-610q0 -88 55 -138t136 -50q84 0 147.5 54t63.5 146v598z" />
    <glyph glyph-name="udieresis" unicode="&#xfc;" horiz-adv-x="1196" 
d="M360 1165q-66 0 -113.5 48t-47.5 114t47.5 114t113.5 48t114 -48t48 -114t-48 -114t-114 -48zM827 1165q-66 0 -113.5 48t-47.5 114t47.5 114t113.5 48t114 -48t48 -114t-48 -114t-114 -48zM799 1034h282v-1034h-256l-12 125q-52 -72 -131.5 -112t-177.5 -40
q-167 0 -278 110t-111 288v663h282v-610q0 -88 55 -138t136 -50q84 0 147.5 54t63.5 146v598z" />
    <glyph glyph-name="yacute" unicode="&#xfd;" horiz-adv-x="1189" 
d="M1010 1532l-279 -332h-262l219 332h322zM854 1034h305l-573 -1444h-264l151 410l-442 1034h303l272 -674z" />
    <glyph glyph-name="thorn" unicode="&#xfe;" horiz-adv-x="1294" 
d="M719 1061q133 0 245 -69.5t178 -195t66 -280.5q0 -235 -144 -389t-353 -154q-193 0 -303 129v-614h-283v2048h283v-621q117 146 311 146zM653 236q118 0 192.5 78.5t74.5 201.5q0 125 -74.5 204t-192.5 79q-116 0 -191 -78t-75 -203q0 -124 74.5 -203t191.5 -79z" />
    <glyph glyph-name="ydieresis" unicode="&#xff;" horiz-adv-x="1189" 
d="M365 1165q-66 0 -114 48t-48 114t48 114t114 48t113.5 -48t47.5 -114t-47.5 -114t-113.5 -48zM831 1165q-66 0 -113.5 48t-47.5 114t47.5 114t113.5 48t114 -48t48 -114t-48 -114t-114 -48zM854 1034h305l-573 -1444h-264l151 410l-442 1034h303l272 -674z" />
    <glyph glyph-name="Amacron" unicode="&#x100;" horiz-adv-x="1576" 
d="M1118 1843v-229h-674v229h674zM1208 0l-121 322h-598l-120 -322h-318l563 1434h349l563 -1434h-318zM592 600h393l-197 526z" />
    <glyph glyph-name="amacron" unicode="&#x101;" horiz-adv-x="1185" 
d="M952 1444v-230h-673v230h673zM618 1061q449 0 449 -445v-616h-254l-12 137q-58 -79 -151.5 -121.5t-194.5 -42.5q-95 0 -175.5 35.5t-133 111t-52.5 177.5q0 84 36 148.5t97 102t133.5 56.5t151.5 19q141 0 274 -39v22q0 106 -55.5 156.5t-169.5 50.5q-170 0 -297 -96
l-106 201q190 143 460 143zM530 199q99 0 177 59t79 150q-103 32 -221 32q-83 0 -134.5 -31t-51.5 -94q0 -56 41 -86t110 -30z" />
    <glyph glyph-name="Abreve" unicode="&#x102;" horiz-adv-x="1576" 
d="M782 1577q-160 0 -268 91t-131 243l225 31q6 -74 53 -122t119 -48q73 0 122 45t56 125l226 -31q-25 -154 -134 -244t-268 -90zM1208 0l-121 322h-598l-120 -322h-318l563 1434h349l563 -1434h-318zM592 600h393l-197 526z" />
    <glyph glyph-name="abreve" unicode="&#x103;" horiz-adv-x="1185" 
d="M616 1178q-160 0 -268 90.5t-131 242.5l225 31q6 -74 53 -122t119 -48q74 0 123 45t56 125l225 -31q-25 -154 -134 -243.5t-268 -89.5zM618 1061q449 0 449 -445v-616h-254l-12 137q-58 -79 -151.5 -121.5t-194.5 -42.5q-95 0 -175.5 35.5t-133 111t-52.5 177.5
q0 84 36 148.5t97 102t133.5 56.5t151.5 19q141 0 274 -39v22q0 106 -55.5 156.5t-169.5 50.5q-170 0 -297 -96l-106 201q190 143 460 143zM530 199q99 0 177 59t79 150q-103 32 -221 32q-83 0 -134.5 -31t-51.5 -94q0 -56 41 -86t110 -30z" />
    <glyph glyph-name="Aogonek" unicode="&#x104;" horiz-adv-x="1576" 
d="M1450 -197l109 -155q-47 -44 -115 -70.5t-137 -26.5q-110 0 -187.5 66t-77.5 166q0 122 123 205l37 26l-115 308h-598l-120 -322h-318l563 1434h349l563 -1434h-78l-150 -113q-45 -31 -45 -77q0 -30 19.5 -47t52.5 -17q65 0 125 57zM592 600h393l-197 526z" />
    <glyph glyph-name="aogonek" unicode="&#x105;" horiz-adv-x="1181" 
d="M1036 -203l111 -155q-47 -44 -115 -70.5t-137 -26.5q-111 0 -187.5 66t-76.5 166q0 122 123 205l57 38l-10 117q-58 -79 -151.5 -121.5t-194.5 -42.5q-95 0 -175.5 35.5t-133 111t-52.5 177.5q0 84 36 148.5t97 102t133.5 56.5t151.5 19q141 0 274 -39v22
q0 106 -55.5 156.5t-169.5 50.5q-170 0 -297 -96l-106 201q190 143 460 143q449 0 449 -445v-616h-23l-159 -119q-45 -36 -45 -78q0 -30 19.5 -46.5t51.5 -16.5q68 0 125 57zM530 199q99 0 177 59t79 150q-103 32 -221 32q-83 0 -134.5 -31t-51.5 -94q0 -56 41 -86t110 -30z
" />
    <glyph glyph-name="Cacute" unicode="&#x106;" horiz-adv-x="1546" 
d="M688 1599l219 332h322l-279 -332h-262zM836 -27q-212 0 -382 94t-267 264.5t-97 385.5t97.5 385.5t268 264t382.5 93.5q196 0 356 -79t256 -210l-258 -167q-58 80 -150 125t-204 45q-192 0 -314.5 -127.5t-122.5 -329.5q0 -201 121.5 -329t313.5 -128q118 0 215 51.5
t155 147.5l250 -176q-98 -147 -262 -228.5t-358 -81.5z" />
    <glyph glyph-name="cacute" unicode="&#x107;" horiz-adv-x="1130" 
d="M469 1200l219 332h322l-279 -332h-262zM631 -27q-117 0 -218 40.5t-173 112t-113 173t-41 219.5q0 238 154 390.5t391 152.5q124 0 229.5 -45t177.5 -129l-209 -178q-70 90 -196 90q-116 0 -187 -77.5t-71 -203.5t71 -203t189 -77q132 0 205 104l211 -180
q-74 -90 -182.5 -139.5t-237.5 -49.5z" />
    <glyph glyph-name="Cdotaccent" unicode="&#x10a;" horiz-adv-x="1546" 
d="M815 1561q-71 0 -121.5 50t-50.5 120q0 71 50.5 121.5t121.5 50.5t121.5 -50.5t50.5 -121.5q0 -70 -50.5 -120t-121.5 -50zM836 -27q-212 0 -382 94t-267 264.5t-97 385.5t97.5 385.5t268 264t382.5 93.5q196 0 356 -79t256 -210l-258 -167q-58 80 -150 125t-204 45
q-192 0 -314.5 -127.5t-122.5 -329.5q0 -201 121.5 -329t313.5 -128q118 0 215 51.5t155 147.5l250 -176q-98 -147 -262 -228.5t-358 -81.5z" />
    <glyph glyph-name="cdotaccent" unicode="&#x10b;" horiz-adv-x="1130" 
d="M596 1161q-71 0 -121.5 50t-50.5 120q0 71 51 121.5t121 50.5t121 -50.5t51 -121.5q0 -70 -50.5 -120t-121.5 -50zM631 -27q-117 0 -218 40.5t-173 112t-113 173t-41 219.5q0 238 154 390.5t391 152.5q124 0 229.5 -45t177.5 -129l-209 -178q-70 90 -196 90
q-116 0 -187 -77.5t-71 -203.5t71 -203t189 -77q132 0 205 104l211 -180q-74 -90 -182.5 -139.5t-237.5 -49.5z" />
    <glyph glyph-name="Ccaron" unicode="&#x10c;" horiz-adv-x="1546" 
d="M668 1599l-240 332h256l135 -176l135 176h254l-239 -332h-301zM1206 459l250 -176q-98 -147 -262 -228.5t-358 -81.5q-212 0 -382 94t-267 264.5t-97 385.5t97.5 385.5t268 264t382.5 93.5q196 0 356 -79t256 -210l-258 -167q-58 80 -150 125t-204 45
q-192 0 -314.5 -127.5t-122.5 -329.5q0 -201 121.5 -329t313.5 -128q118 0 215 51.5t155 147.5z" />
    <glyph glyph-name="ccaron" unicode="&#x10d;" horiz-adv-x="1130" 
d="M449 1200l-240 332h256l135 -176l135 176h254l-239 -332h-301zM840 342l211 -180q-74 -90 -182.5 -139.5t-237.5 -49.5q-117 0 -218 40.5t-173 112t-113 173t-41 219.5q0 238 154 390.5t391 152.5q124 0 229.5 -45t177.5 -129l-209 -178q-70 90 -196 90
q-116 0 -187 -77.5t-71 -203.5t71 -203t189 -77q132 0 205 104z" />
    <glyph glyph-name="Dcaron" unicode="&#x10e;" horiz-adv-x="1568" 
d="M561 1599l-239 332h256l135 -176l135 176h254l-240 -332h-301zM725 1434q216 0 386.5 -86.5t269 -250.5t98.5 -380q0 -215 -98.5 -379t-269 -251t-386.5 -87h-559v1434h559zM725 279q201 0 321.5 119.5t120.5 318.5t-120.5 318.5t-321.5 119.5h-260v-876h260z" />
    <glyph glyph-name="dcaron" unicode="&#x10f;" horiz-adv-x="1697" 
d="M889 932v604h280v-1536h-254l-12 141q-55 -80 -139 -124t-189 -44q-133 0 -244.5 68.5t-178 195t-66.5 283.5q0 156 67 280.5t180.5 192.5t250.5 68q195 0 305 -129zM1378 1509h320l-185 -331h-260zM641 238q118 0 192 76t74 204q0 126 -73.5 203.5t-192.5 77.5
t-192.5 -77.5t-73.5 -203.5t73.5 -203t192.5 -77z" />
    <glyph glyph-name="Dcroat" unicode="&#x110;" horiz-adv-x="1609" 
d="M768 1434q216 0 386 -86.5t268 -250.5t98 -380q0 -215 -98 -379t-268 -251t-386 -87h-561v608h-187v217h187v609h561zM768 279q200 0 320 119.5t120 318.5t-120 318.5t-320 119.5h-262v-330h424v-217h-424v-329h262z" />
    <glyph glyph-name="dcroat" unicode="&#x111;" horiz-adv-x="1296" 
d="M1360 1350v-197h-191v-1153h-254l-12 141q-55 -80 -139 -124t-189 -44q-133 0 -244.5 68.5t-178 195t-66.5 283.5q0 156 67 280.5t180.5 192.5t250.5 68q195 0 305 -129v221h-318v197h318v186h280v-186h191zM641 238q118 0 192 76t74 204q0 126 -73.5 203.5t-192.5 77.5
t-192.5 -77.5t-73.5 -203.5t73.5 -203t192.5 -77z" />
    <glyph glyph-name="Emacron" unicode="&#x112;" horiz-adv-x="1329" 
d="M1018 1843v-229h-674v229h674zM465 276h774v-276h-1073v1434h1057v-277h-758v-293h725v-278h-725v-310z" />
    <glyph glyph-name="emacron" unicode="&#x113;" horiz-adv-x="1218" 
d="M954 1444v-230h-673v230h673zM377 418q23 -97 91 -149t171 -52q144 0 248 96l184 -176q-81 -78 -190.5 -121t-233.5 -43q-244 0 -402.5 151t-158.5 396q0 237 150 389t391 152q124 0 223 -41.5t159.5 -111t92 -156t31.5 -181.5q0 -80 -15 -153h-741zM625 815
q-97 0 -161.5 -53t-86.5 -148h481q-8 92 -69 146.5t-164 54.5z" />
    <glyph glyph-name="Edotaccent" unicode="&#x116;" horiz-adv-x="1329" 
d="M680 1561q-71 0 -121.5 50t-50.5 120q0 71 51 121.5t121 50.5t121 -50.5t51 -121.5q0 -70 -50.5 -120t-121.5 -50zM465 276h774v-276h-1073v1434h1057v-277h-758v-293h725v-278h-725v-310z" />
    <glyph glyph-name="edotaccent" unicode="&#x117;" horiz-adv-x="1218" 
d="M616 1161q-71 0 -121.5 50t-50.5 120q0 71 51 121.5t121 50.5t121 -50.5t51 -121.5q0 -70 -50.5 -120t-121.5 -50zM377 418q23 -97 91 -149t171 -52q144 0 248 96l184 -176q-81 -78 -190.5 -121t-233.5 -43q-244 0 -402.5 151t-158.5 396q0 237 150 389t391 152
q124 0 223 -41.5t159.5 -111t92 -156t31.5 -181.5q0 -80 -15 -153h-741zM625 815q-97 0 -161.5 -53t-86.5 -148h481q-8 92 -69 146.5t-164 54.5z" />
    <glyph glyph-name="Eogonek" unicode="&#x118;" horiz-adv-x="1329" 
d="M973 -119q-47 -33 -47 -78q0 -30 19.5 -46.5t51.5 -16.5q68 0 125 57l111 -155q-47 -44 -115 -70.5t-135 -26.5q-113 0 -189.5 65.5t-76.5 166.5q0 122 123 205l26 18h-700v1434h1057v-277h-758v-293h725v-278h-725v-310h774v-276h-109z" />
    <glyph glyph-name="eogonek" unicode="&#x119;" horiz-adv-x="1230" 
d="M1147 575q0 -94 -14 -157h-742q23 -95 92 -148t170 -53q145 0 246 96l186 -176q-35 -31 -73 -60.5t-81 -59.5t-59 -42q-145 -103 -145 -172q0 -30 18.5 -46.5t53.5 -16.5q68 0 125 57l108 -155q-46 -44 -113.5 -70.5t-136.5 -26.5q-116 0 -191 63t-75 161q0 116 109 206
q-230 12 -377.5 162t-147.5 383q0 237 152.5 389t394.5 152q99 0 182 -27.5t141 -74t98.5 -109t59.5 -132t19 -143.5zM637 815q-202 0 -246 -201h481q-8 92 -69.5 146.5t-165.5 54.5z" />
    <glyph glyph-name="Ecaron" unicode="&#x11a;" horiz-adv-x="1329" 
d="M532 1599l-239 332h256l135 -176l135 176h254l-239 -332h-302zM465 276h774v-276h-1073v1434h1057v-277h-758v-293h725v-278h-725v-310z" />
    <glyph glyph-name="ecaron" unicode="&#x11b;" horiz-adv-x="1218" 
d="M469 1200l-240 332h256l136 -176l135 176h254l-240 -332h-301zM377 418q23 -97 91 -149t171 -52q144 0 248 96l184 -176q-81 -78 -190.5 -121t-233.5 -43q-244 0 -402.5 151t-158.5 396q0 237 150 389t391 152q124 0 223 -41.5t159.5 -111t92 -156t31.5 -181.5
q0 -80 -15 -153h-741zM625 815q-97 0 -161.5 -53t-86.5 -148h481q-8 92 -69 146.5t-164 54.5z" />
    <glyph glyph-name="Gbreve" unicode="&#x11e;" horiz-adv-x="1648" 
d="M834 1577q-160 0 -268.5 91t-131.5 243l225 31q6 -74 53 -122t119 -48q74 0 123 45t56 125l225 -31q-25 -154 -133.5 -244t-267.5 -90zM1559 694q1 -157 -52 -292t-148.5 -229t-230 -147t-290.5 -53q-212 0 -382.5 94t-268 265t-97.5 387q0 163 58 302t158.5 235
t239.5 150t298 54q170 0 318 -62.5t257 -185.5l-231 -194q-135 156 -346 156q-197 0 -319 -127.5t-122 -329.5q0 -201 122 -329t321 -128q148 0 248 76t135 215h-385v248h710q7 -35 7 -105z" />
    <glyph glyph-name="gbreve" unicode="&#x11f;" horiz-adv-x="1187" 
d="M584 1178q-160 0 -268.5 90.5t-131.5 242.5l226 31q6 -74 53 -122t119 -48q73 0 122 45t56 125l225 -31q-25 -154 -133.5 -243.5t-267.5 -89.5zM1122 1034v-178l-166 -14q39 -80 39 -174q0 -177 -122.5 -286.5t-319.5 -109.5q-47 0 -111 11q-33 -3 -53 -22t-20 -50
q0 -59 82 -59h141q269 0 399.5 -80t130.5 -252q0 -175 -131 -267t-397 -92q-260 0 -404.5 93t-144.5 247q0 143 141 213q-71 71 -71 172q0 68 33.5 117.5t91.5 71.5q-127 111 -127 293q0 177 120.5 285t319.5 108q88 0 174 -27h395zM553 502q90 0 137 43.5t47 122.5
q0 77 -47 120t-137 43t-137 -43t-47 -120q0 -79 47 -122.5t137 -43.5zM836 -180q0 63 -53 87.5t-193 24.5h-164q-88 -40 -88 -114q0 -63 65 -99t189 -36q127 0 185.5 33.5t58.5 103.5z" />
    <glyph glyph-name="Gdotaccent" unicode="&#x120;" horiz-adv-x="1648" 
d="M831 1561q-71 0 -121.5 50t-50.5 120q0 71 50.5 121.5t121.5 50.5t122 -51t51 -121t-51 -120t-122 -50zM1559 694q1 -157 -52 -292t-148.5 -229t-230 -147t-290.5 -53q-212 0 -382.5 94t-268 265t-97.5 387q0 163 58 302t158.5 235t239.5 150t298 54q170 0 318 -62.5
t257 -185.5l-231 -194q-135 156 -346 156q-197 0 -319 -127.5t-122 -329.5q0 -201 122 -329t321 -128q148 0 248 76t135 215h-385v248h710q7 -35 7 -105z" />
    <glyph glyph-name="gdotaccent" unicode="&#x121;" horiz-adv-x="1187" 
d="M582 1161q-71 0 -121.5 50t-50.5 120q0 71 51 121.5t121 50.5t121 -50.5t51 -121.5q0 -70 -50.5 -120t-121.5 -50zM1122 1034v-178l-166 -14q39 -80 39 -174q0 -177 -122.5 -286.5t-319.5 -109.5q-47 0 -111 11q-33 -3 -53 -22t-20 -50q0 -59 82 -59h141q269 0 399.5 -80
t130.5 -252q0 -175 -131 -267t-397 -92q-260 0 -404.5 93t-144.5 247q0 143 141 213q-71 71 -71 172q0 68 33.5 117.5t91.5 71.5q-127 111 -127 293q0 177 120.5 285t319.5 108q88 0 174 -27h395zM553 502q90 0 137 43.5t47 122.5q0 77 -47 120t-137 43t-137 -43t-47 -120
q0 -79 47 -122.5t137 -43.5zM836 -180q0 63 -53 87.5t-193 24.5h-164q-88 -40 -88 -114q0 -63 65 -99t189 -36q127 0 185.5 33.5t58.5 103.5z" />
    <glyph glyph-name="Gcommaaccent" unicode="&#x122;" horiz-adv-x="1648" 
d="M1559 694q1 -157 -52 -292t-148.5 -229t-230 -147t-290.5 -53q-212 0 -382.5 94t-268 265t-97.5 387q0 163 58 302t158.5 235t239.5 150t298 54q170 0 318 -62.5t257 -185.5l-231 -194q-135 156 -346 156q-197 0 -319 -127.5t-122 -329.5q0 -201 122 -329t321 -128
q148 0 248 76t135 215h-385v248h710q7 -35 7 -105zM651 -518l49 403h277l-92 -403h-234z" />
    <glyph glyph-name="gcommaaccent" unicode="&#x123;" horiz-adv-x="1187" 
d="M762 1571l-49 -404h-277l94 404h232zM1122 1034v-178l-166 -14q39 -80 39 -174q0 -177 -122.5 -286.5t-319.5 -109.5q-47 0 -111 11q-33 -3 -53 -22t-20 -50q0 -59 82 -59h141q269 0 399.5 -80t130.5 -252q0 -175 -131 -267t-397 -92q-260 0 -404.5 93t-144.5 247
q0 143 141 213q-71 71 -71 172q0 68 33.5 117.5t91.5 71.5q-127 111 -127 293q0 177 120.5 285t319.5 108q88 0 174 -27h395zM553 502q90 0 137 43.5t47 122.5q0 77 -47 120t-137 43t-137 -43t-47 -120q0 -79 47 -122.5t137 -43.5zM836 -180q0 63 -53 87.5t-193 24.5h-164
q-88 -40 -88 -114q0 -63 65 -99t189 -36q127 0 185.5 33.5t58.5 103.5z" />
    <glyph glyph-name="Hbar" unicode="&#x126;" horiz-adv-x="1599" 
d="M1599 1257v-229h-182v-1028h-297v586h-657v-586h-297v1028h-166v229h166v177h297v-177h657v177h297v-177h182zM1120 864v164h-657v-164h657z" />
    <glyph glyph-name="hbar" unicode="&#x127;" horiz-adv-x="1247" 
d="M733 1061q176 0 288 -108.5t112 -288.5v-664h-281v602q0 93 -53.5 145t-147.5 52q-91 0 -162 -53.5t-71 -147.5v-598h-283v1153h-223v199h223v157h283v-157h307v-199h-307v-225q54 63 135.5 98t179.5 35z" />
    <glyph glyph-name="Itilde" unicode="&#x128;" horiz-adv-x="630" 
d="M86 1599l-158 64q26 127 83 189.5t139 62.5q68 0 165 -51l47 -25q65 -33 93 -33q32 0 49.5 29t27.5 82l164 -64q-23 -119 -80.5 -189.5t-150.5 -70.5q-66 0 -164 52l-47 26q-60 31 -88 31q-33 0 -50.5 -26t-29.5 -77zM465 1434v-1434h-299v1434h299z" />
    <glyph glyph-name="itilde" unicode="&#x129;" horiz-adv-x="528" 
d="M37 1200l-158 64q51 252 221 252q67 0 166 -52l47 -24q65 -33 93 -33q32 0 49.5 29t27.5 82l164 -64q-23 -119 -80.5 -189.5t-150.5 -70.5q-68 0 -164 51l-47 27q-60 31 -88 31q-33 0 -50.5 -26t-29.5 -77zM406 1034v-1034h-283v1034h283z" />
    <glyph glyph-name="Imacron" unicode="&#x12a;" horiz-adv-x="630" 
d="M-25 1843h674v-229h-674v229zM465 1434v-1434h-299v1434h299z" />
    <glyph glyph-name="imacron" unicode="&#x12b;" horiz-adv-x="528" 
d="M-74 1444h674v-230h-674v230zM406 1034v-1034h-283v1034h283z" />
    <glyph glyph-name="Iogonek" unicode="&#x12e;" horiz-adv-x="630" 
d="M408 -203l110 -155q-47 -44 -115 -70.5t-135 -26.5q-113 0 -189.5 65.5t-76.5 166.5q0 122 123 205l41 28v1424h299v-1434h-49l-158 -119q-47 -33 -47 -78q0 -30 20 -46.5t52 -16.5q68 0 125 57z" />
    <glyph glyph-name="iogonek" unicode="&#x12f;" horiz-adv-x="604" 
d="M307 1163q-71 0 -120.5 49.5t-49.5 120.5t49.5 120.5t120.5 49.5t120.5 -49.5t49.5 -120.5t-49.5 -120.5t-120.5 -49.5zM401 -203l109 -155q-47 -44 -115 -70.5t-137 -26.5q-110 0 -187 66t-77 166q0 119 123 205l49 34v1018h283v-1034h-41l-158 -119q-45 -31 -45 -78
q0 -30 19 -46.5t52 -16.5q65 0 125 57z" />
    <glyph glyph-name="Idotaccent" unicode="&#x130;" horiz-adv-x="630" 
d="M311 1561q-71 0 -121.5 50t-50.5 120q0 71 50.5 121.5t121.5 50.5t121.5 -50.5t50.5 -121.5q0 -70 -50.5 -120t-121.5 -50zM465 1434v-1434h-299v1434h299z" />
    <glyph glyph-name="dotlessi" unicode="&#x131;" horiz-adv-x="528" 
d="M406 1034v-1034h-283v1034h283z" />
    <glyph glyph-name="IJ" unicode="&#x132;" horiz-adv-x="1781" 
d="M465 1434v-1434h-299v1434h299zM1094 -27q-278 0 -412 168l182 226q43 -56 93 -81.5t130 -25.5q134 0 192 79.5t58 264.5v830h293v-830q0 -111 -15.5 -202t-53.5 -172.5t-97.5 -137t-153.5 -87.5t-216 -32z" />
    <glyph glyph-name="ij" unicode="&#x133;" horiz-adv-x="1202" 
d="M297 1161q-71 0 -121.5 50t-50.5 120q0 71 50.5 121.5t121.5 50.5t121.5 -50.5t50.5 -121.5q0 -70 -50.5 -120t-121.5 -50zM907 1161q-71 0 -121.5 50t-50.5 120q0 71 50.5 121.5t121.5 50.5t120.5 -50t49.5 -122q0 -71 -49.5 -120.5t-120.5 -49.5zM438 1034v-1034h-282
v1034h282zM666 -436q-115 0 -189 35l90 235q33 -16 72 -16q64 0 93.5 32t29.5 101v1083h285v-1089q0 -381 -381 -381z" />
    <glyph glyph-name="Kcommaaccent" unicode="&#x136;" horiz-adv-x="1486" 
d="M831 784l613 -784h-363l-436 567l-180 -209v-358h-299v1434h299v-648l557 648h364zM571 -518l50 403h276l-92 -403h-234z" />
    <glyph glyph-name="kcommaaccent" unicode="&#x137;" horiz-adv-x="1181" 
d="M723 584l430 -584h-328l-276 399l-141 -149v-250h-283v1536h283v-932l376 420h355zM446 -518l50 403h276l-92 -403h-234z" />
    <glyph glyph-name="Lacute" unicode="&#x139;" horiz-adv-x="1224" 
d="M729 1931l-278 -332h-263l220 332h321zM465 276h709v-276h-1008v1434h299v-1158z" />
    <glyph glyph-name="lacute" unicode="&#x13a;" horiz-adv-x="532" 
d="M137 1702l219 332h322l-279 -332h-262zM125 0v1536h283v-1536h-283z" />
    <glyph glyph-name="Lcommaaccent" unicode="&#x13b;" horiz-adv-x="1224" 
d="M465 276h709v-276h-1008v1434h299v-1158zM487 -518l50 403h276l-92 -403h-234z" />
    <glyph glyph-name="lcommaaccent" unicode="&#x13c;" horiz-adv-x="532" 
d="M125 0v1536h283v-1536h-283zM84 -518l49 403h277l-93 -403h-233z" />
    <glyph glyph-name="Lcaron" unicode="&#x13d;" horiz-adv-x="1224" 
d="M465 276h709v-276h-1008v1434h299v-1158zM1042 1434l-184 -332h-260l125 332h319z" />
    <glyph glyph-name="lcaron" unicode="&#x13e;" horiz-adv-x="954" 
d="M125 0v1536h283v-1536h-283zM508 1204l123 332h323l-186 -332h-260z" />
    <glyph glyph-name="Ldot" unicode="&#x13f;" horiz-adv-x="1224" 
d="M465 276h709v-276h-1008v1434h299v-1158zM928 559q-74 0 -126 52.5t-52 125.5t52 125.5t126 52.5q73 0 124.5 -52t51.5 -126t-51.5 -126t-124.5 -52z" />
    <glyph glyph-name="ldot" unicode="&#x140;" horiz-adv-x="872" 
d="M125 0v1536h283v-1536h-283zM700 559q-73 0 -124.5 52t-51.5 126t51.5 126t124.5 52q74 0 126.5 -52.5t52.5 -125.5t-52.5 -125.5t-126.5 -52.5z" />
    <glyph glyph-name="Lslash" unicode="&#x141;" horiz-adv-x="1224" 
d="M465 276h709v-276h-1008v545l-211 -88v252l211 88v637h299v-512l305 129v-254l-305 -127v-394z" />
    <glyph glyph-name="lslash" unicode="&#x142;" horiz-adv-x="532" 
d="M614 1036v-229l-206 -86v-721h-283v602l-207 -86v229l207 86v705h283v-586z" />
    <glyph glyph-name="Nacute" unicode="&#x143;" horiz-adv-x="1562" 
d="M1198 1931l-278 -332h-263l220 332h321zM1100 1434h295v-1434h-267l-667 909v-909h-295v1434h266l668 -906v906z" />
    <glyph glyph-name="nacute" unicode="&#x144;" horiz-adv-x="1236" 
d="M1044 1532l-278 -332h-262l219 332h321zM719 1061q175 0 289 -109t114 -288v-664h-280v602q0 88 -54.5 142.5t-144.5 54.5q-93 0 -164 -53.5t-71 -147.5v-598h-283v1034h254l12 -127q54 73 140 113.5t188 40.5z" />
    <glyph glyph-name="Ncommaaccent" unicode="&#x145;" horiz-adv-x="1562" 
d="M1100 1434h295v-1434h-267l-667 909v-909h-295v1434h266l668 -906v906zM604 -518l49 403h277l-92 -403h-234z" />
    <glyph glyph-name="ncommaaccent" unicode="&#x146;" horiz-adv-x="1236" 
d="M719 1061q175 0 289 -109t114 -288v-664h-280v602q0 88 -54.5 142.5t-144.5 54.5q-93 0 -164 -53.5t-71 -147.5v-598h-283v1034h254l12 -127q54 73 140 113.5t188 40.5zM451 -518l49 403h276l-92 -403h-233z" />
    <glyph glyph-name="Ncaron" unicode="&#x147;" horiz-adv-x="1562" 
d="M637 1599l-240 332h256l135 -176l136 176h254l-240 -332h-301zM1100 1434h295v-1434h-267l-667 909v-909h-295v1434h266l668 -906v906z" />
    <glyph glyph-name="ncaron" unicode="&#x148;" horiz-adv-x="1236" 
d="M483 1200l-239 332h256l135 -176l135 176h254l-240 -332h-301zM719 1061q175 0 289 -109t114 -288v-664h-280v602q0 88 -54.5 142.5t-144.5 54.5q-93 0 -164 -53.5t-71 -147.5v-598h-283v1034h254l12 -127q54 73 140 113.5t188 40.5z" />
    <glyph glyph-name="Eng" unicode="&#x14a;" horiz-adv-x="1562" 
d="M1100 1434h295v-1264q0 -111 -16.5 -202.5t-56.5 -173t-102.5 -137t-160 -87.5t-223.5 -33q-291 0 -430 168l188 225q43 -54 96.5 -79t136.5 -25q118 0 182 53t83 170l-631 858v-907h-295v1434h266l668 -904v904z" />
    <glyph glyph-name="eng" unicode="&#x14b;" horiz-adv-x="1236" 
d="M719 1061q175 0 289 -109t114 -288v-719q0 -381 -383 -381q-113 0 -184 35l88 235q33 -16 72 -16q65 0 96 32t31 101v651q0 88 -54.5 142.5t-144.5 54.5q-93 0 -164 -53.5t-71 -147.5v-598h-283v1034h254l12 -127q54 73 140 113.5t188 40.5z" />
    <glyph glyph-name="Omacron" unicode="&#x14c;" horiz-adv-x="1685" 
d="M508 1843h674v-229h-674v229zM842 -27q-214 0 -385.5 94t-269 264t-97.5 386q0 162 57 300.5t156.5 235.5t239 152t299.5 55q214 0 385 -93t268.5 -263.5t97.5 -386.5q0 -162 -57 -301t-156.5 -236t-238.5 -152t-299 -55zM842 260q196 0 319 127t123 330t-123 330
t-319 127t-318.5 -127t-122.5 -330t122.5 -330t318.5 -127z" />
    <glyph glyph-name="omacron" unicode="&#x14d;" horiz-adv-x="1284" 
d="M301 1444h674v-230h-674v230zM641 -27q-243 0 -399 152.5t-156 392.5q0 239 156.5 391t398.5 152q243 0 400 -151.5t157 -391.5t-157 -392.5t-400 -152.5zM641 238q120 0 193 77t73 203q0 125 -73.5 203t-192.5 78q-120 0 -193 -77.5t-73 -203.5t73 -203t193 -77z" />
    <glyph glyph-name="Ohungarumlaut" unicode="&#x150;" horiz-adv-x="1685" 
d="M469 1599l188 285h312l-238 -285h-262zM901 1599l189 285h311l-240 -285h-260zM842 -27q-214 0 -385.5 94t-269 264t-97.5 386q0 162 57 300.5t156.5 235.5t239 152t299.5 55q214 0 385 -93t268.5 -263.5t97.5 -386.5q0 -162 -57 -301t-156.5 -236t-238.5 -152t-299 -55z
M842 260q196 0 319 127t123 330t-123 330t-319 127t-318.5 -127t-122.5 -330t122.5 -330t318.5 -127z" />
    <glyph glyph-name="ohungarumlaut" unicode="&#x151;" horiz-adv-x="1284" 
d="M262 1200l189 285h311l-238 -285h-262zM694 1200l189 285h311l-240 -285h-260zM641 -27q-243 0 -399 152.5t-156 392.5q0 239 156.5 391t398.5 152q243 0 400 -151.5t157 -391.5t-157 -392.5t-400 -152.5zM641 238q120 0 193 77t73 203q0 125 -73.5 203t-192.5 78
q-120 0 -193 -77.5t-73 -203.5t73 -203t193 -77z" />
    <glyph glyph-name="OE" unicode="&#x152;" horiz-adv-x="2449" 
d="M1585 276h772v-276h-1071v104q-192 -131 -444 -131q-214 0 -385.5 94t-269 264t-97.5 386q0 162 57 300.5t156.5 235.5t239 152t299.5 55q252 0 444 -131v105h1055v-277h-756v-293h723v-278h-723v-310zM842 260q196 0 319 127t123 330t-123 330t-319 127t-318.5 -127
t-122.5 -330t122.5 -330t318.5 -127z" />
    <glyph glyph-name="oe" unicode="&#x153;" horiz-adv-x="2039" 
d="M1208 416q23 -94 90 -145.5t168 -51.5q142 0 246 94l186 -176q-79 -76 -188.5 -120t-236.5 -44q-126 0 -234 44t-184 124q-74 -80 -181 -124t-233 -44q-243 0 -399 152.5t-156 392.5q0 239 156.5 391t398.5 152q126 0 233 -43.5t181 -122.5q160 166 411 166
q97 0 178 -26.5t137.5 -72t96 -108t58 -133.5t18.5 -148q0 -89 -15 -157h-731zM1454 813q-93 0 -158 -53.5t-88 -147.5h469q-8 93 -65.5 147t-157.5 54zM641 238q120 0 193 77t73 203q0 125 -73.5 203t-192.5 78q-120 0 -193 -77.5t-73 -203.5t73 -203t193 -77z" />
    <glyph glyph-name="Racute" unicode="&#x154;" horiz-adv-x="1396" 
d="M1081 1931l-278 -332h-262l219 332h321zM989 0l-332 522h-192v-522h-299v1434h641q229 0 363.5 -125.5t134.5 -329.5q0 -162 -87 -277.5t-243 -158.5l373 -543h-359zM465 1155v-354h334q97 0 146.5 45t49.5 131q0 178 -196 178h-334z" />
    <glyph glyph-name="racute" unicode="&#x155;" horiz-adv-x="874" 
d="M862 1532l-278 -332h-262l219 332h321zM393 891q53 80 135 125t179 45q70 0 137 -23l-72 -268q-67 25 -125 25q-100 0 -169.5 -61t-69.5 -167v-567h-283v1034h256z" />
    <glyph glyph-name="Rcommaaccent" unicode="&#x156;" horiz-adv-x="1396" 
d="M975 543l373 -543h-359l-332 522h-192v-522h-299v1434h641q229 0 363.5 -125.5t134.5 -329.5q0 -162 -87 -277.5t-243 -158.5zM465 1155v-354h334q97 0 146.5 45t49.5 131q0 178 -196 178h-334zM522 -518l49 403h277l-92 -403h-234z" />
    <glyph glyph-name="rcommaaccent" unicode="&#x157;" horiz-adv-x="874" 
d="M707 1061q70 0 137 -23l-72 -268q-67 25 -125 25q-100 0 -169.5 -61t-69.5 -167v-567h-283v1034h256l12 -143q53 80 135 125t179 45zM242 -518l49 403h276l-92 -403h-233z" />
    <glyph glyph-name="Rcaron" unicode="&#x158;" horiz-adv-x="1396" 
d="M520 1599l-239 332h256l135 -176l135 176h254l-240 -332h-301zM989 0l-332 522h-192v-522h-299v1434h641q229 0 363.5 -125.5t134.5 -329.5q0 -162 -87 -277.5t-243 -158.5l373 -543h-359zM465 1155v-354h334q97 0 146.5 45t49.5 131q0 178 -196 178h-334z" />
    <glyph glyph-name="rcaron" unicode="&#x159;" horiz-adv-x="874" 
d="M301 1200l-240 332h256l136 -176l135 176h254l-240 -332h-301zM707 1061q70 0 137 -23l-72 -268q-67 25 -125 25q-100 0 -169.5 -61t-69.5 -167v-567h-283v1034h256l12 -143q53 80 135 125t179 45z" />
    <glyph glyph-name="Sacute" unicode="&#x15a;" horiz-adv-x="1398" 
d="M584 1599l219 332h321l-278 -332h-262zM707 -27q-182 0 -356 61t-265 130l141 246q91 -69 230 -115.5t260 -46.5q115 0 181.5 41.5t66.5 118.5q0 31 -12.5 54t-31.5 37.5t-53.5 27t-66 19.5t-82.5 18q-16 3 -25 5q-112 25 -191 47t-145.5 49.5t-108 57t-70 69.5t-40.5 87
t-12 108q0 108 37.5 192.5t97 136.5t141 85.5t161.5 46t167 12.5q284 0 524 -145l-141 -248q-189 117 -401 117q-130 0 -196 -44t-66 -120q0 -64 61.5 -97t226.5 -63q61 -12 96 -19.5t101 -26.5t107.5 -38.5t93.5 -53.5t82 -73.5t51.5 -97t21.5 -125.5q0 -209 -160.5 -331
t-424.5 -122z" />
    <glyph glyph-name="sacute" unicode="&#x15b;" horiz-adv-x="1077" 
d="M416 1200l219 332h321l-278 -332h-262zM539 -27q-123 0 -257.5 39t-215.5 103l88 207q65 -55 177.5 -86t221.5 -31q178 0 178 102q0 22 -12.5 37t-43 26.5t-61 18.5t-86.5 17q-86 15 -142 29t-113 38t-89.5 55t-52.5 78.5t-20 110.5q0 95 41 165t110.5 107.5t146 54.5
t162.5 17q116 0 223 -32t187 -89l-88 -205q-61 43 -147.5 68.5t-176.5 25.5q-168 0 -168 -96q0 -34 30.5 -50t123.5 -34q65 -12 106 -20t94.5 -22.5t86.5 -30t69 -39.5t55.5 -52.5t32.5 -68.5t13 -88q0 -167 -130.5 -261t-342.5 -94z" />
    <glyph glyph-name="Scedilla" unicode="&#x15e;" horiz-adv-x="1398" 
d="M1292 426q0 -190 -135 -309t-362 -140l-29 -57q106 -6 157.5 -69.5t51.5 -145.5q0 -94 -74.5 -157.5t-208.5 -63.5q-175 0 -254 106l121 105q37 -55 121 -55q104 0 104 67q0 30 -21 49t-63 19q-46 0 -73 -17l-66 109l55 110q-160 14 -306 70.5t-224 116.5l141 246
q91 -69 230 -115.5t260 -46.5q115 0 181.5 41.5t66.5 118.5q0 31 -12.5 54t-31.5 37.5t-53.5 27t-66 19.5t-82.5 18q-16 3 -25 5q-112 25 -191 47t-145.5 49.5t-108 57t-70 69.5t-40.5 87t-12 108q0 108 37.5 192.5t97 136.5t141 85.5t161.5 46t167 12.5q284 0 524 -145
l-141 -248q-189 117 -401 117q-130 0 -196 -44t-66 -120q0 -64 61.5 -97t226.5 -63q61 -12 96 -19.5t101 -26.5t107.5 -38.5t93.5 -53.5t82 -73.5t51.5 -97t21.5 -125.5z" />
    <glyph glyph-name="scedilla" unicode="&#x15f;" horiz-adv-x="1077" 
d="M1012 328q0 -149 -105.5 -240.5t-283.5 -110.5l-29 -57q106 -6 157.5 -69.5t51.5 -145.5q0 -94 -74.5 -157.5t-208.5 -63.5q-175 0 -254 106l121 105q37 -55 121 -55q104 0 104 67q0 30 -21 49t-63 19q-46 0 -73 -17l-66 109l55 113q-106 11 -209 47t-169 88l88 207
q65 -55 177.5 -86t221.5 -31q178 0 178 102q0 22 -12.5 37t-43 26.5t-61 18.5t-86.5 17q-86 15 -142 29t-113 38t-89.5 55t-52.5 78.5t-20 110.5q0 95 41 165t110.5 107.5t146 54.5t162.5 17q116 0 223 -32t187 -89l-88 -205q-61 43 -147.5 68.5t-176.5 25.5
q-168 0 -168 -96q0 -34 30.5 -50t123.5 -34q65 -12 106 -20t94.5 -22.5t86.5 -30t69 -39.5t55.5 -52.5t32.5 -68.5t13 -88z" />
    <glyph glyph-name="Scaron" unicode="&#x160;" horiz-adv-x="1398" 
d="M563 1599l-239 332h256l135 -176l135 176h254l-240 -332h-301zM739 860q61 -12 96 -19.5t101 -26.5t107.5 -38.5t93.5 -53.5t82 -73.5t51.5 -97t21.5 -125.5q0 -209 -160.5 -331t-424.5 -122q-182 0 -356 61t-265 130l141 246q91 -69 230 -115.5t260 -46.5
q115 0 181.5 41.5t66.5 118.5q0 31 -12.5 54t-31.5 37.5t-53.5 27t-66 19.5t-82.5 18q-16 3 -25 5q-112 25 -191 47t-145.5 49.5t-108 57t-70 69.5t-40.5 87t-12 108q0 108 37.5 192.5t97 136.5t141 85.5t161.5 46t167 12.5q284 0 524 -145l-141 -248q-189 117 -401 117
q-130 0 -196 -44t-66 -120q0 -64 61.5 -97t226.5 -63z" />
    <glyph glyph-name="scaron" unicode="&#x161;" horiz-adv-x="1077" 
d="M395 1200l-239 332h256l135 -176l135 176h254l-240 -332h-301zM555 649q65 -12 106 -20t94.5 -22.5t86.5 -30t69 -39.5t55.5 -52.5t32.5 -68.5t13 -88q0 -167 -130.5 -261t-342.5 -94q-123 0 -257.5 39t-215.5 103l88 207q65 -55 177.5 -86t221.5 -31q178 0 178 102
q0 22 -12.5 37t-43 26.5t-61 18.5t-86.5 17q-86 15 -142 29t-113 38t-89.5 55t-52.5 78.5t-20 110.5q0 95 41 165t110.5 107.5t146 54.5t162.5 17q116 0 223 -32t187 -89l-88 -205q-61 43 -147.5 68.5t-176.5 25.5q-168 0 -168 -96q0 -34 30.5 -50t123.5 -34z" />
    <glyph glyph-name="uni0162" unicode="&#x162;" horiz-adv-x="1300" 
d="M799 0h-56l-38 -80q106 -7 157 -70.5t51 -144.5q0 -94 -74.5 -157.5t-209.5 -63.5q-173 0 -252 106l121 105q37 -55 120 -55q105 0 105 67q0 30 -21.5 49t-64.5 19t-74 -17l-63 109l65 133h-63v1157h-451v277h1198v-277h-450v-1157z" />
    <glyph glyph-name="uni0163" unicode="&#x163;" horiz-adv-x="1021" 
d="M608 -80q106 -6 157.5 -69.5t51.5 -145.5q0 -94 -74 -157.5t-208 -63.5q-175 0 -254 106l120 105q37 -55 121 -55q105 0 105 67q0 30 -21 49t-63 19q-47 0 -74 -17l-66 109l64 129q-244 76 -244 383v401h-196v254h196v305h283v-305h366v-254h-366v-372q0 -170 162 -170
q91 0 161 57l113 -223q-119 -99 -307 -99z" />
    <glyph glyph-name="Tcaron" unicode="&#x164;" horiz-adv-x="1300" 
d="M500 1599l-240 332h256l135 -176l135 176h254l-239 -332h-301zM1249 1434v-277h-450v-1157h-297v1157h-451v277h1198z" />
    <glyph glyph-name="tcaron" unicode="&#x165;" horiz-adv-x="1001" 
d="M1053 1536l-185 -332h-260l125 332h320zM668 238q91 0 161 57l113 -223q-119 -99 -309 -99q-199 0 -304.5 103t-105.5 303v401h-196v254h196v305h283v-305h366v-254h-366v-372q0 -170 162 -170z" />
    <glyph glyph-name="Tbar" unicode="&#x166;" horiz-adv-x="1300" 
d="M1249 1157h-450v-332h352v-217h-352v-608h-297v608h-355v217h355v332h-451v277h1198v-277z" />
    <glyph glyph-name="tbar" unicode="&#x167;" horiz-adv-x="1021" 
d="M829 295l113 -223q-119 -99 -309 -99q-199 0 -304.5 103t-105.5 303v88h-196v197h196v116h-196v254h196v305h283v-305h366v-254h-366v-116h366v-197h-366v-59q0 -170 162 -170q91 0 161 57z" />
    <glyph glyph-name="Utilde" unicode="&#x168;" horiz-adv-x="1521" 
d="M532 1599l-157 64q51 252 221 252q69 0 166 -51l47 -25q65 -33 92 -33q32 0 50 29t28 82l164 -64q-23 -118 -81 -189t-151 -71q-65 0 -163 52l-48 26q-60 31 -88 31q-33 0 -50.5 -26t-29.5 -77zM760 -27q-138 0 -243.5 33t-174 91t-111.5 145t-61 186.5t-18 224.5v781
h301v-783q0 -212 70 -301.5t237 -89.5q168 0 238.5 89t70.5 302v783h303v-781q0 -123 -17 -221.5t-60 -186t-111.5 -146t-175.5 -92.5t-248 -34z" />
    <glyph glyph-name="utilde" unicode="&#x169;" horiz-adv-x="1196" 
d="M446 1303q-33 0 -50 -26t-29 -77l-158 64q51 252 221 252q67 0 166 -52l47 -24q65 -33 92 -33q32 0 50 29t28 82l164 -64q-23 -118 -81 -189t-151 -71q-67 0 -163 51l-47 27q-60 31 -89 31zM799 1034h282v-1034h-256l-12 125q-52 -72 -131.5 -112t-177.5 -40
q-167 0 -278 110t-111 288v663h282v-610q0 -88 55 -138t136 -50q84 0 147.5 54t63.5 146v598z" />
    <glyph glyph-name="Umacron" unicode="&#x16a;" horiz-adv-x="1521" 
d="M422 1843h674v-229h-674v229zM760 -27q-138 0 -243.5 33t-174 91t-111.5 145t-61 186.5t-18 224.5v781h301v-783q0 -212 70 -301.5t237 -89.5q168 0 238.5 89t70.5 302v783h303v-781q0 -123 -17 -221.5t-60 -186t-111.5 -146t-175.5 -92.5t-248 -34z" />
    <glyph glyph-name="umacron" unicode="&#x16b;" horiz-adv-x="1196" 
d="M930 1444v-230h-674v230h674zM799 1034h282v-1034h-256l-12 125q-52 -72 -131.5 -112t-177.5 -40q-167 0 -278 110t-111 288v663h282v-610q0 -88 55 -138t136 -50q84 0 147.5 54t63.5 146v598z" />
    <glyph glyph-name="Uring" unicode="&#x16e;" horiz-adv-x="1521" 
d="M760 1505q-113 0 -186.5 72.5t-73.5 187.5t73.5 187.5t186.5 72.5t186.5 -72.5t73.5 -187.5t-73.5 -187.5t-186.5 -72.5zM760 1657q48 0 77 29.5t29 78.5t-29.5 79t-76.5 30q-46 0 -76.5 -30t-30.5 -79t30 -78.5t77 -29.5zM760 -27q-138 0 -243.5 33t-174 91t-111.5 145
t-61 186.5t-18 224.5v781h301v-783q0 -212 70 -301.5t237 -89.5q168 0 238.5 89t70.5 302v783h303v-781q0 -123 -17 -221.5t-60 -186t-111.5 -146t-175.5 -92.5t-248 -34z" />
    <glyph glyph-name="uring" unicode="&#x16f;" horiz-adv-x="1196" 
d="M594 1106q-113 0 -186.5 72.5t-73.5 187.5t73.5 187.5t186.5 72.5t186.5 -72.5t73.5 -187.5t-73.5 -187.5t-186.5 -72.5zM594 1475q-46 0 -76.5 -30t-30.5 -79t30.5 -79t76.5 -30q47 0 76.5 30t29.5 79t-29.5 79t-76.5 30zM799 1034h282v-1034h-256l-12 125
q-52 -72 -131.5 -112t-177.5 -40q-167 0 -278 110t-111 288v663h282v-610q0 -88 55 -138t136 -50q84 0 147.5 54t63.5 146v598z" />
    <glyph glyph-name="Uhungarumlaut" unicode="&#x170;" horiz-adv-x="1521" 
d="M383 1599l188 285h312l-238 -285h-262zM815 1599l189 285h311l-240 -285h-260zM760 -27q-138 0 -243.5 33t-174 91t-111.5 145t-61 186.5t-18 224.5v781h301v-783q0 -212 70 -301.5t237 -89.5q168 0 238.5 89t70.5 302v783h303v-781q0 -123 -17 -221.5t-60 -186
t-111.5 -146t-175.5 -92.5t-248 -34z" />
    <glyph glyph-name="uhungarumlaut" unicode="&#x171;" horiz-adv-x="1196" 
d="M717 1485l-238 -285h-262l189 285h311zM909 1200h-260l189 285h311zM799 436v598h282v-1034h-256l-12 125q-52 -72 -131.5 -112t-177.5 -40q-167 0 -278 110t-111 288v663h282v-610q0 -88 55 -138t136 -50q84 0 147.5 54t63.5 146z" />
    <glyph glyph-name="Uogonek" unicode="&#x172;" horiz-adv-x="1521" 
d="M1069 1434h301v-781q0 -225 -67 -362t-220 -254q-26 -19 -76 -59.5t-75 -59.5q-74 -57 -74 -108q0 -31 24.5 -50.5t61.5 -19.5q68 0 125 57l111 -155q-47 -44 -115 -70.5t-137 -26.5q-119 0 -192.5 71.5t-73.5 172.5q0 100 81 184q-135 2 -238 36t-169.5 92t-108 144.5
t-58.5 185t-17 222.5v781h301v-783q0 -213 70.5 -302t238.5 -89q166 0 236.5 89t70.5 302v783z" />
    <glyph glyph-name="uogonek" unicode="&#x173;" horiz-adv-x="1196" 
d="M1040 -203l111 -155q-47 -44 -115 -70.5t-137 -26.5q-112 0 -189 66t-77 166q0 120 125 205l65 45l-10 98q-52 -72 -131.5 -112t-177.5 -40q-167 0 -278 110t-111 288v663h282v-610q0 -88 55 -138t136 -50q85 2 148 55.5t63 144.5v598h282v-1034h-32l-160 -119
q-45 -36 -45 -78q0 -30 19.5 -46.5t51.5 -16.5q68 0 125 57z" />
    <glyph glyph-name="Wcircumflex" unicode="&#x174;" horiz-adv-x="2285" 
d="M1143 1776l-135 -177h-256l239 332h301l240 -332h-254zM1919 1434h315l-434 -1434h-354l-303 1010l-303 -1010h-355l-434 1434h314l301 -1088l315 1088h324l315 -1086z" />
    <glyph glyph-name="wcircumflex" unicode="&#x175;" horiz-adv-x="1830" 
d="M913 1376l-135 -176h-256l240 332h301l240 -332h-254zM1499 1034h301l-354 -1034h-313l-218 686l-217 -686h-315l-352 1034h299l219 -708l223 708h285l223 -706z" />
    <glyph glyph-name="Ycircumflex" unicode="&#x176;" horiz-adv-x="1507" 
d="M752 1776l-136 -177h-256l240 332h301l240 -332h-254zM1456 1434l-553 -869v-565h-297v561l-555 873h357l346 -594l346 594h356z" />
    <glyph glyph-name="ycircumflex" unicode="&#x177;" horiz-adv-x="1189" 
d="M600 1376l-135 -176h-256l240 332h301l239 -332h-254zM854 1034h305l-573 -1444h-264l151 410l-442 1034h303l272 -674z" />
    <glyph glyph-name="Ydieresis" unicode="&#x178;" horiz-adv-x="1507" 
d="M516 1565q-66 0 -114 47.5t-48 113.5t48 114t114 48t114 -48t48 -114t-48 -113.5t-114 -47.5zM983 1565q-66 0 -114 47.5t-48 113.5t48 114t114 48t114 -48t48 -114t-48 -113.5t-114 -47.5zM1456 1434l-553 -869v-565h-297v561l-555 873h357l346 -594l346 594h356z" />
    <glyph glyph-name="Zacute" unicode="&#x179;" horiz-adv-x="1316" 
d="M1071 1931l-278 -332h-263l220 332h321zM1233 1434v-228l-735 -930h716v-276h-1128v227l735 930h-710v277h1122z" />
    <glyph glyph-name="zacute" unicode="&#x17a;" horiz-adv-x="1036" 
d="M938 1532l-279 -332h-262l219 332h322zM446 254h508v-254h-888v217l497 563h-481v254h860v-215z" />
    <glyph glyph-name="Zdotaccent" unicode="&#x17b;" horiz-adv-x="1316" 
d="M657 1561q-71 0 -121.5 50t-50.5 120q0 71 50.5 121.5t121.5 50.5t121.5 -50.5t50.5 -121.5q0 -70 -50.5 -120t-121.5 -50zM1233 1434v-228l-735 -930h716v-276h-1128v227l735 930h-710v277h1122z" />
    <glyph glyph-name="zdotaccent" unicode="&#x17c;" horiz-adv-x="1036" 
d="M524 1161q-71 0 -121.5 50t-50.5 120q0 71 51 121.5t121 50.5t121 -50.5t51 -121.5q0 -70 -50.5 -120t-121.5 -50zM446 254h508v-254h-888v217l497 563h-481v254h860v-215z" />
    <glyph glyph-name="Zcaron" unicode="&#x17d;" horiz-adv-x="1316" 
d="M510 1599l-240 332h256l136 -176l135 176h254l-240 -332h-301zM1233 1434v-228l-735 -930h716v-276h-1128v227l735 930h-710v277h1122z" />
    <glyph glyph-name="zcaron" unicode="&#x17e;" horiz-adv-x="1036" 
d="M377 1200l-240 332h256l135 -176l136 176h254l-240 -332h-301zM446 254h508v-254h-888v217l497 563h-481v254h860v-215z" />
    <glyph glyph-name="florin" unicode="&#x192;" horiz-adv-x="880" 
d="M516 1122v-241h330v-254h-330v-682q0 -189 -93.5 -283.5t-285.5 -97.5q-86 0 -157 22l77 240q24 -8 56 -8q63 0 91.5 32t28.5 101v676h-202v254h202v260q0 207 107 314.5t317 107.5q184 0 291 -86l-135 -232q-54 41 -141 41q-84 0 -120 -37.5t-36 -126.5z" />
    <glyph glyph-name="Ohorn" unicode="&#x1a0;" horiz-adv-x="1724" 
d="M1604 1520q0 -249 -162 -334q151 -197 151 -469q0 -162 -57 -301t-156.5 -236t-238.5 -152t-299 -55q-214 0 -385.5 94t-269 264t-97.5 386q0 162 57 300.5t156.5 235.5t239 152t299.5 55q173 0 321 -63q12 -2 33 -2q65 0 94 31t29 100v157h285v-163zM842 260
q196 0 319 127t123 330t-123 330t-319 127t-318.5 -127t-122.5 -330t122.5 -330t318.5 -127z" />
    <glyph glyph-name="ohorn" unicode="&#x1a1;" horiz-adv-x="1298" 
d="M1022 1288h285v-164q0 -255 -172 -340q63 -117 63 -266q0 -240 -157 -392.5t-400 -152.5t-399 152.5t-156 392.5q0 239 156.5 391t398.5 152q145 0 272 -62q57 3 83 35.5t26 98.5v155zM641 238q120 0 193 77t73 203q0 125 -73.5 203t-192.5 78q-120 0 -193 -77.5
t-73 -203.5t73 -203t193 -77z" />
    <glyph glyph-name="Uhorn" unicode="&#x1af;" horiz-adv-x="1536" 
d="M1413 1722h285v-163q0 -350 -326 -377v-529q0 -123 -17 -221.5t-60 -186t-111.5 -146t-175.5 -92.5t-248 -34q-138 0 -243.5 33t-174 91t-111.5 145t-61 186.5t-18 224.5v781h301v-783q0 -212 70 -301.5t237 -89.5q168 0 238.5 89t70.5 302v783h172h49q63 0 93 32t30 101
v155z" />
    <glyph glyph-name="uhorn" unicode="&#x1b0;" horiz-adv-x="1196" 
d="M1065 1325h285v-164q0 -157 -68 -252t-201 -121v-788h-256l-12 125q-52 -72 -131.5 -112t-177.5 -40q-167 0 -278 110t-111 288v663h282v-610q0 -88 55 -138t136 -50q85 2 148 55.5t63 144.5v598h96h47q64 0 93.5 32t29.5 101v158z" />
    <glyph glyph-name="uni01CD" unicode="&#x1cd;" horiz-adv-x="1576" 
d="M633 1599l-240 332h256l135 -176l136 176h254l-240 -332h-301zM1208 0l-121 322h-598l-120 -322h-318l563 1434h349l563 -1434h-318zM592 600h393l-197 526z" />
    <glyph glyph-name="uni01CE" unicode="&#x1ce;" horiz-adv-x="1185" 
d="M467 1200l-240 332h256l135 -176l136 176h254l-240 -332h-301zM618 1061q449 0 449 -445v-616h-254l-12 137q-58 -79 -151.5 -121.5t-194.5 -42.5q-95 0 -175.5 35.5t-133 111t-52.5 177.5q0 84 36 148.5t97 102t133.5 56.5t151.5 19q141 0 274 -39v22q0 106 -55.5 156.5
t-169.5 50.5q-170 0 -297 -96l-106 201q190 143 460 143zM530 199q99 0 177 59t79 150q-103 32 -221 32q-83 0 -134.5 -31t-51.5 -94q0 -56 41 -86t110 -30z" />
    <glyph glyph-name="uni01CF" unicode="&#x1cf;" horiz-adv-x="630" 
d="M451 1931h254l-240 -332h-301l-240 332h256l135 -176zM166 0v1434h299v-1434h-299z" />
    <glyph glyph-name="uni01D0" unicode="&#x1d0;" horiz-adv-x="528" 
d="M401 1532h254l-239 -332h-301l-240 332h256l135 -176zM123 0v1034h283v-1034h-283z" />
    <glyph glyph-name="uni01D1" unicode="&#x1d1;" horiz-adv-x="1685" 
d="M696 1599l-239 332h256l135 -176l135 176h254l-240 -332h-301zM842 1460q214 0 385 -93t268.5 -263.5t97.5 -386.5q0 -162 -57 -301t-156.5 -236t-238.5 -152t-299 -55q-214 0 -385.5 94t-269 264t-97.5 386q0 162 57 300.5t156.5 235.5t239 152t299.5 55zM842 260
q196 0 319 127t123 330t-123 330t-319 127t-318.5 -127t-122.5 -330t122.5 -330t318.5 -127z" />
    <glyph glyph-name="uni01D2" unicode="&#x1d2;" horiz-adv-x="1284" 
d="M489 1200l-239 332h256l135 -176l135 176h254l-239 -332h-302zM641 1061q243 0 400 -151.5t157 -391.5t-157 -392.5t-400 -152.5t-399 152.5t-156 392.5q0 239 156.5 391t398.5 152zM641 238q120 0 193 77t73 203q0 125 -73.5 203t-192.5 78q-120 0 -193 -77.5
t-73 -203.5t73 -203t193 -77z" />
    <glyph glyph-name="uni01D3" unicode="&#x1d3;" horiz-adv-x="1521" 
d="M610 1599l-239 332h256l135 -176l135 176h254l-240 -332h-301zM1069 1434h303v-781q0 -123 -17 -221.5t-60 -186t-111.5 -146t-175.5 -92.5t-248 -34q-138 0 -243.5 33t-174 91t-111.5 145t-61 186.5t-18 224.5v781h301v-783q0 -212 70 -301.5t237 -89.5q168 0 238.5 89
t70.5 302v783z" />
    <glyph glyph-name="uni01D4" unicode="&#x1d4;" horiz-adv-x="1196" 
d="M444 1200l-239 332h256l135 -176l135 176h254l-240 -332h-301zM799 1034h282v-1034h-256l-12 125q-52 -72 -131.5 -112t-177.5 -40q-167 0 -278 110t-111 288v663h282v-610q0 -88 55 -138t136 -50q84 0 147.5 54t63.5 146v598z" />
    <glyph glyph-name="uni01D5" unicode="&#x1d5;" horiz-adv-x="1521" 
d="M422 2263h674v-229h-674v229zM526 1565q-66 0 -113.5 47.5t-47.5 113.5t47.5 114t113.5 48t114 -48t48 -114t-48 -113.5t-114 -47.5zM993 1565q-66 0 -114 47.5t-48 113.5t48 114t114 48t114 -48t48 -114t-48 -113.5t-114 -47.5zM760 -27q-138 0 -243.5 33t-174 91
t-111.5 145t-61 186.5t-18 224.5v781h301v-783q0 -212 70 -301.5t237 -89.5q168 0 238.5 89t70.5 302v783h303v-781q0 -123 -17 -221.5t-60 -186t-111.5 -146t-175.5 -92.5t-248 -34z" />
    <glyph glyph-name="uni01D6" unicode="&#x1d6;" horiz-adv-x="1196" 
d="M930 1864v-230h-674v230h674zM360 1165q-66 0 -113.5 48t-47.5 114t47.5 114t113.5 48t114 -48t48 -114t-48 -114t-114 -48zM666 1327q0 66 47.5 114t113.5 48t114 -48t48 -114t-48 -114t-114 -48t-113.5 48t-47.5 114zM799 1034h282v-1034h-256l-12 125
q-52 -72 -131.5 -112t-177.5 -40q-167 0 -278 110t-111 288v663h282v-610q0 -88 55 -138t136 -50q84 0 147.5 54t63.5 146v598z" />
    <glyph glyph-name="uni01D7" unicode="&#x1d7;" horiz-adv-x="1521" 
d="M631 2019l219 332h321l-278 -332h-262zM526 1565q-66 0 -113.5 47.5t-47.5 113.5t47.5 114t113.5 48t114 -48t48 -114t-48 -113.5t-114 -47.5zM993 1565q-66 0 -114 47.5t-48 113.5t48 114t114 48t114 -48t48 -114t-48 -113.5t-114 -47.5zM760 -27q-138 0 -243.5 33
t-174 91t-111.5 145t-61 186.5t-18 224.5v781h301v-783q0 -212 70 -301.5t237 -89.5q168 0 238.5 89t70.5 302v783h303v-781q0 -123 -17 -221.5t-60 -186t-111.5 -146t-175.5 -92.5t-248 -34z" />
    <glyph glyph-name="uni01D8" unicode="&#x1d8;" horiz-adv-x="1196" 
d="M1006 1952l-279 -332h-262l219 332h322zM360 1165q-66 0 -113.5 48t-47.5 114t47.5 114t113.5 48t114 -48t48 -114t-48 -114t-114 -48zM666 1327q0 66 47.5 114t113.5 48t114 -48t48 -114t-48 -114t-114 -48t-113.5 48t-47.5 114zM799 1034h282v-1034h-256l-12 125
q-52 -72 -131.5 -112t-177.5 -40q-167 0 -278 110t-111 288v663h282v-610q0 -88 55 -138t136 -50q84 0 147.5 54t63.5 146v598z" />
    <glyph glyph-name="uni01D9" unicode="&#x1d9;" horiz-adv-x="1521" 
d="M610 2019l-239 332h256l135 -176l135 176h254l-240 -332h-301zM526 1565q-66 0 -113.5 47.5t-47.5 113.5t47.5 114t113.5 48t114 -48t48 -114t-48 -113.5t-114 -47.5zM993 1888q66 0 114 -48t48 -114t-48 -113.5t-114 -47.5t-114 47.5t-48 113.5t48 114t114 48z
M1069 1434h303v-781q0 -123 -17 -221.5t-60 -186t-111.5 -146t-175.5 -92.5t-248 -34q-138 0 -243.5 33t-174 91t-111.5 145t-61 186.5t-18 224.5v781h301v-783q0 -212 70 -301.5t237 -89.5q168 0 238.5 89t70.5 302v783z" />
    <glyph glyph-name="uni01DA" unicode="&#x1da;" horiz-adv-x="1196" 
d="M444 1620l-239 332h256l135 -176l135 176h254l-240 -332h-301zM360 1165q-66 0 -113.5 48t-47.5 114t47.5 114t113.5 48t114 -48t48 -114t-48 -114t-114 -48zM827 1489q66 0 114 -48t48 -114t-48 -114t-114 -48t-113.5 48t-47.5 114t47.5 114t113.5 48zM799 1034h282
v-1034h-256l-12 125q-52 -72 -131.5 -112t-177.5 -40q-167 0 -278 110t-111 288v663h282v-610q0 -88 55 -138t136 -50q84 0 147.5 54t63.5 146v598z" />
    <glyph glyph-name="uni01DB" unicode="&#x1db;" horiz-adv-x="1521" 
d="M623 2019l-279 332h320l221 -332h-262zM526 1565q-66 0 -113.5 47.5t-47.5 113.5t47.5 114t113.5 48t114 -48t48 -114t-48 -113.5t-114 -47.5zM993 1565q-66 0 -114 47.5t-48 113.5t48 114t114 48t114 -48t48 -114t-48 -113.5t-114 -47.5zM760 -27q-138 0 -243.5 33
t-174 91t-111.5 145t-61 186.5t-18 224.5v781h301v-783q0 -212 70 -301.5t237 -89.5q168 0 238.5 89t70.5 302v783h303v-781q0 -123 -17 -221.5t-60 -186t-111.5 -146t-175.5 -92.5t-248 -34z" />
    <glyph glyph-name="uni01DC" unicode="&#x1dc;" horiz-adv-x="1196" 
d="M719 1620h-262l-279 332h320zM199 1327q0 66 47.5 114t113.5 48t114 -48t48 -114t-48 -114t-114 -48t-113.5 48t-47.5 114zM666 1327q0 66 47.5 114t113.5 48t114 -48t48 -114t-48 -114t-114 -48t-113.5 48t-47.5 114zM799 1034h282v-1034h-256l-12 125
q-52 -72 -131.5 -112t-177.5 -40q-167 0 -278 110t-111 288v663h282v-610q0 -88 55 -138t136 -50q84 0 147.5 54t63.5 146v598z" />
    <glyph glyph-name="uni01DE" unicode="&#x1de;" horiz-adv-x="1576" 
d="M1118 2263v-229h-674v229h674zM549 1565q-66 0 -114 47.5t-48 113.5t48 114t114 48t114 -48t48 -114t-48 -113.5t-114 -47.5zM854 1726q0 66 48 114t114 48t114 -48t48 -114t-48 -113.5t-114 -47.5t-114 47.5t-48 113.5zM1208 0l-121 322h-598l-120 -322h-318l563 1434
h349l563 -1434h-318zM592 600h393l-197 526z" />
    <glyph glyph-name="uni01DF" unicode="&#x1df;" horiz-adv-x="1185" 
d="M952 1864v-230h-673v230h673zM383 1165q-66 0 -114 48t-48 114t48 114t114 48t114 -48t48 -114t-48 -114t-114 -48zM688 1327q0 66 48 114t114 48t114 -48t48 -114t-48 -114t-114 -48t-114 48t-48 114zM618 1061q449 0 449 -445v-616h-254l-12 137q-58 -79 -151.5 -121.5
t-194.5 -42.5q-95 0 -175.5 35.5t-133 111t-52.5 177.5q0 84 36 148.5t97 102t133.5 56.5t151.5 19q141 0 274 -39v22q0 106 -55.5 156.5t-169.5 50.5q-170 0 -297 -96l-106 201q190 143 460 143zM530 199q99 0 177 59t79 150q-103 32 -221 32q-83 0 -134.5 -31t-51.5 -94
q0 -56 41 -86t110 -30z" />
    <glyph glyph-name="Gcaron" unicode="&#x1e6;" horiz-adv-x="1648" 
d="M684 1599l-240 332h256l136 -176l135 176h254l-240 -332h-301zM1559 694q1 -157 -52 -292t-148.5 -229t-230 -147t-290.5 -53q-212 0 -382.5 94t-268 265t-97.5 387q0 163 58 302t158.5 235t239.5 150t298 54q170 0 318 -62.5t257 -185.5l-231 -194q-135 156 -346 156
q-197 0 -319 -127.5t-122 -329.5q0 -201 122 -329t321 -128q148 0 248 76t135 215h-385v248h710q7 -35 7 -105z" />
    <glyph glyph-name="gcaron" unicode="&#x1e7;" horiz-adv-x="1187" 
d="M434 1200l-239 332h256l135 -176l135 176h254l-240 -332h-301zM1122 1034v-178l-166 -14q39 -80 39 -174q0 -177 -122.5 -286.5t-319.5 -109.5q-47 0 -111 11q-33 -3 -53 -22t-20 -50q0 -59 82 -59h141q269 0 399.5 -80t130.5 -252q0 -175 -131 -267t-397 -92
q-260 0 -404.5 93t-144.5 247q0 143 141 213q-71 71 -71 172q0 68 33.5 117.5t91.5 71.5q-127 111 -127 293q0 177 120.5 285t319.5 108q88 0 174 -27h395zM553 502q90 0 137 43.5t47 122.5q0 77 -47 120t-137 43t-137 -43t-47 -120q0 -79 47 -122.5t137 -43.5zM836 -180
q0 63 -53 87.5t-193 24.5h-164q-88 -40 -88 -114q0 -63 65 -99t189 -36q127 0 185.5 33.5t58.5 103.5z" />
    <glyph glyph-name="Oslashacute" unicode="&#x1fe;" horiz-adv-x="1685" 
d="M1227 1931l-279 -332h-262l219 332h322zM1288 1329q144 -98 224.5 -257t80.5 -355q0 -216 -97 -386t-268 -264t-384 -94q-104 0 -207 25l-80 -162h-291l131 268q-145 98 -226 257t-81 356q0 162 57 300.5t156.5 235.5t239 152t299.5 55q108 0 207 -24l79 161h291z
M401 717q0 -213 131 -338l386 788q-44 7 -76 7q-196 0 -318.5 -127t-122.5 -330zM842 260q196 0 319 127t123 330q0 210 -131 338l-385 -789q35 -6 74 -6z" />
    <glyph glyph-name="oslashacute" unicode="&#x1ff;" horiz-adv-x="1284" 
d="M1047 1532l-279 -332h-262l219 332h322zM973 965q106 -72 165.5 -187.5t59.5 -259.5q0 -240 -157 -392.5t-400 -152.5q-67 0 -143 17l-76 -154h-221l112 232q-107 72 -167 188t-60 262q0 239 156.5 391t398.5 152q69 0 152 -17l69 144h221zM375 518q0 -120 65 -194
l232 473q-10 2 -31 2q-120 0 -193 -77.5t-73 -203.5zM641 238q120 0 193 77t73 203q0 112 -59 187l-230 -467h23z" />
    <glyph glyph-name="Scommaaccent" unicode="&#x218;" horiz-adv-x="1398" 
d="M707 -27q-182 0 -356 61t-265 130l141 246q91 -69 230 -115.5t260 -46.5q115 0 181.5 41.5t66.5 118.5q0 31 -12.5 54t-31.5 37.5t-53.5 27t-66 19.5t-82.5 18q-16 3 -25 5q-112 25 -191 47t-145.5 49.5t-108 57t-70 69.5t-40.5 87t-12 108q0 108 37.5 192.5t97 136.5
t141 85.5t161.5 46t167 12.5q284 0 524 -145l-141 -248q-189 117 -401 117q-130 0 -196 -44t-66 -120q0 -64 61.5 -97t226.5 -63q61 -12 96 -19.5t101 -26.5t107.5 -38.5t93.5 -53.5t82 -73.5t51.5 -97t21.5 -125.5q0 -209 -160.5 -331t-424.5 -122zM524 -518l49 403h277
l-92 -403h-234z" />
    <glyph glyph-name="scommaaccent" unicode="&#x219;" horiz-adv-x="1077" 
d="M539 -27q-123 0 -257.5 39t-215.5 103l88 207q65 -55 177.5 -86t221.5 -31q178 0 178 102q0 22 -12.5 37t-43 26.5t-61 18.5t-86.5 17q-86 15 -142 29t-113 38t-89.5 55t-52.5 78.5t-20 110.5q0 95 41 165t110.5 107.5t146 54.5t162.5 17q116 0 223 -32t187 -89l-88 -205
q-61 43 -147.5 68.5t-176.5 25.5q-168 0 -168 -96q0 -34 30.5 -50t123.5 -34q65 -12 106 -20t94.5 -22.5t86.5 -30t69 -39.5t55.5 -52.5t32.5 -68.5t13 -88q0 -167 -130.5 -261t-342.5 -94zM352 -518l49 403h277l-92 -403h-234z" />
    <glyph glyph-name="uni021A" unicode="&#x21a;" horiz-adv-x="1300" 
d="M1249 1434v-277h-450v-1157h-297v1157h-451v277h1198zM467 -518l49 403h277l-93 -403h-233z" />
    <glyph glyph-name="uni021B" unicode="&#x21b;" horiz-adv-x="1021" 
d="M942 72q-119 -99 -309 -99q-199 0 -304.5 103t-105.5 303v401h-196v254h196v305h283v-305h366v-254h-366v-372q0 -170 162 -170q91 0 161 57zM367 -518l49 403h276l-92 -403h-233z" />
    <glyph glyph-name="uni0228" unicode="&#x228;" horiz-adv-x="1329" 
d="M1239 0h-457l-41 -80q106 -6 157.5 -69.5t51.5 -145.5q0 -94 -74 -157.5t-208 -63.5q-175 0 -254 106l121 105q37 -55 120 -55q105 0 105 67q0 30 -21 49t-63 19q-47 0 -74 -17l-65 109l67 133h-438v1434h1057v-277h-758v-293h725v-278h-725v-310h774v-276z" />
    <glyph glyph-name="uni0229" unicode="&#x229;" horiz-adv-x="1218" 
d="M377 418q23 -97 91 -149t171 -52q144 0 248 96l184 -176q-150 -144 -364 -162l-29 -55q106 -6 157.5 -69.5t51.5 -145.5q0 -94 -74.5 -157.5t-208.5 -63.5q-175 0 -254 106l121 105q37 -55 121 -55q104 0 104 67q0 30 -21 49t-63 19q-46 0 -73 -17l-66 109l57 117
q-199 34 -321.5 178.5t-122.5 357.5q0 237 150 389t391 152q124 0 223 -41.5t159.5 -111t92 -156t31.5 -181.5q0 -80 -15 -153h-741zM625 815q-97 0 -161.5 -53t-86.5 -148h481q-8 92 -69 146.5t-164 54.5z" />
    <glyph glyph-name="circumflex" unicode="&#x2c6;" horiz-adv-x="899" 
d="M840 1200h-254l-135 176l-136 -176h-256l240 332h301z" />
    <glyph glyph-name="caron" unicode="&#x2c7;" horiz-adv-x="899" 
d="M586 1532h254l-240 -332h-301l-240 332h256l136 -176z" />
    <glyph glyph-name="breve" unicode="&#x2d8;" horiz-adv-x="919" 
d="M459 1178q-160 0 -268.5 90.5t-131.5 242.5l226 31q6 -74 53 -122t119 -48q73 0 122 45t56 125l225 -31q-25 -154 -133.5 -243.5t-267.5 -89.5z" />
    <glyph glyph-name="dotaccent" unicode="&#x2d9;" horiz-adv-x="460" 
d="M229 1161q-71 0 -121.5 50t-50.5 120q0 71 50.5 121.5t121.5 50.5t121.5 -50.5t50.5 -121.5q0 -70 -50.5 -120t-121.5 -50z" />
    <glyph glyph-name="ring" unicode="&#x2da;" horiz-adv-x="638" 
d="M319 1106q-113 0 -186.5 72.5t-73.5 187.5t73.5 187.5t186.5 72.5t187 -72.5t74 -187.5t-74 -187.5t-187 -72.5zM319 1257q48 0 77.5 30t29.5 79t-29.5 79t-77.5 30q-46 0 -76 -30t-30 -79t30 -79t76 -30z" />
    <glyph glyph-name="ogonek" unicode="&#x2db;" horiz-adv-x="636" 
d="M313 -455q-110 0 -187 66t-77 166q0 122 123 205l193 133l98 -115l-158 -119q-45 -31 -45 -78q0 -30 19.5 -46.5t52.5 -16.5q65 0 125 57l108 -155q-47 -44 -115 -70.5t-137 -26.5z" />
    <glyph glyph-name="tilde" unicode="&#x2dc;" horiz-adv-x="886" 
d="M217 1190l-158 63q26 127 83 189.5t139 62.5q68 0 165 -51l48 -24q65 -33 92 -33q33 0 50.5 29t27.5 81l163 -63q-23 -119 -80.5 -189.5t-150.5 -70.5q-68 0 -164 51l-47 27q-58 30 -88 30q-33 0 -50.5 -25.5t-29.5 -76.5z" />
    <glyph glyph-name="hungarumlaut" unicode="&#x2dd;" horiz-adv-x="1071" 
d="M59 1200l189 285h311l-237 -285h-263zM492 1200l188 285h311l-239 -285h-260z" />
    <glyph glyph-name="gravecomb" unicode="&#x300;" horiz-adv-x="0" 
d="M-322 1200l-278 332h319l222 -332h-263z" />
    <glyph glyph-name="acutecomb" unicode="&#x301;" horiz-adv-x="0" 
d="M-600 1200l219 332h322l-279 -332h-262z" />
    <glyph glyph-name="uni0302" unicode="&#x302;" horiz-adv-x="0" 
d="M-59 1200h-254l-136 176l-135 -176h-256l240 332h301z" />
    <glyph glyph-name="tildecomb" unicode="&#x303;" horiz-adv-x="0" 
d="M-670 1200l-157 64q51 252 221 252q67 0 166 -52l47 -24q65 -33 92 -33q32 0 50 29t28 82l164 -64q-23 -118 -81 -189t-151 -71q-68 0 -164 51l-47 27q-60 31 -88 31q-33 0 -50.5 -26t-29.5 -77z" />
    <glyph glyph-name="uni0304" unicode="&#x304;" horiz-adv-x="0" 
d="M-733 1444h674v-230h-674v230z" />
    <glyph glyph-name="uni0306" unicode="&#x306;" horiz-adv-x="0" 
d="M-461 1178q-160 0 -268 90.5t-131 242.5l225 31q6 -74 53 -122t119 -48q73 0 122 45t56 125l226 -31q-25 -154 -134 -243.5t-268 -89.5z" />
    <glyph glyph-name="uni0307" unicode="&#x307;" horiz-adv-x="0" 
d="M-231 1155q-71 0 -121.5 50t-50.5 120q0 71 50.5 121.5t121.5 50.5t121.5 -50.5t50.5 -121.5q0 -70 -50.5 -120t-121.5 -50z" />
    <glyph glyph-name="uni0308" unicode="&#x308;" horiz-adv-x="0" 
d="M-696 1165q-66 0 -114 48t-48 114t48 114t114 48t113.5 -48t47.5 -114t-47.5 -114t-113.5 -48zM-229 1165q-66 0 -114 48t-48 114t48 114t114 48t113.5 -48t47.5 -114t-47.5 -114t-113.5 -48z" />
    <glyph glyph-name="hookabovecomb" unicode="&#x309;" horiz-adv-x="0" 
d="M-434 1128q-2 43 -2.5 63t3.5 44.5t8.5 33.5t21 26.5t31.5 28t48 32.5q34 24 45 35.5t11 27.5q0 23 -19.5 36t-52.5 13q-61 0 -102 -41l-123 95q87 116 258 116q115 0 180.5 -54t65.5 -152q0 -60 -30 -99t-102 -92q-46 -33 -56.5 -45.5t-10.5 -38.5z" />
    <glyph glyph-name="uni030A" unicode="&#x30a;" horiz-adv-x="0" 
d="M-319 1106q-113 0 -187 72.5t-74 187.5t74 187.5t187 72.5t186.5 -72.5t73.5 -187.5t-73.5 -187.5t-186.5 -72.5zM-319 1257q47 0 76.5 30t29.5 79t-29.5 79t-76.5 30q-46 0 -76.5 -30t-30.5 -79t30.5 -79t76.5 -30z" />
    <glyph glyph-name="uni030B" unicode="&#x30b;" horiz-adv-x="0" 
d="M-1012 1200l189 285h311l-238 -285h-262zM-580 1200l189 285h311l-239 -285h-261z" />
    <glyph glyph-name="uni030C" unicode="&#x30c;" horiz-adv-x="0" 
d="M-313 1532h254l-240 -332h-301l-240 332h256l135 -176z" />
    <glyph glyph-name="uni0312" unicode="&#x312;" horiz-adv-x="0" 
d="M-385 1167l94 404h232l-50 -404h-276z" />
    <glyph glyph-name="uni031B" unicode="&#x31b;" horiz-adv-x="0" 
d="M-442 907q-112 0 -189 35l92 236q30 -17 72 -17q63 0 92 31t29 100v158h287v-164q0 -379 -383 -379z" />
    <glyph glyph-name="dotbelowcomb" unicode="&#x323;" horiz-adv-x="0" 
d="M-229 -483q-72 0 -122 49.5t-50 120.5t50 121.5t122 50.5q69 0 119.5 -51t50.5 -121t-50.5 -120t-119.5 -50z" />
    <glyph glyph-name="uni0326" unicode="&#x326;" horiz-adv-x="0" 
d="M-385 -518l49 403h277l-93 -403h-233z" />
    <glyph glyph-name="uni0327" unicode="&#x327;" horiz-adv-x="0" 
d="M-270 -80q106 -6 157.5 -69.5t51.5 -145.5q0 -94 -74.5 -157.5t-208.5 -63.5q-175 0 -254 106l121 105q37 -55 121 -55q104 0 104 67q0 30 -21 49t-63 19q-47 0 -74 -17l-65 109l92 184h178z" />
    <glyph glyph-name="uni0328" unicode="&#x328;" horiz-adv-x="0" 
d="M-354 -455q-110 0 -187 66t-77 166q0 122 122 205l193 133l98 -115l-157 -119q-46 -32 -46 -78q0 -30 19.5 -46.5t52.5 -16.5q65 0 125 57l109 -155q-47 -44 -115 -70.5t-137 -26.5z" />
    <glyph glyph-name="uni032D" unicode="&#x32d;" horiz-adv-x="0" 
d="M-59 -473h-254l-136 176l-135 -176h-256l240 332h301z" />
    <glyph glyph-name="uni0331" unicode="&#x331;" horiz-adv-x="0" 
d="M-733 -180h674v-230h-674v230z" />
    <glyph glyph-name="uni1E04" unicode="&#x1e04;" horiz-adv-x="1462" 
d="M1100 739q129 -23 200.5 -110.5t71.5 -222.5q0 -177 -122.5 -291.5t-327.5 -114.5h-756v1434h708q200 0 317.5 -106.5t117.5 -278.5q0 -113 -54.5 -194t-154.5 -116zM821 1180h-356v-326h356q87 0 131.5 44.5t44.5 127.5q0 73 -45 113.5t-131 40.5zM872 254q93 0 141 46
t48 132q0 84 -48 128t-141 44h-407v-350h407zM723 -141q69 0 119.5 -51t50.5 -121t-50.5 -120t-119.5 -50q-72 0 -122 49.5t-50 120.5t50 121.5t122 50.5z" />
    <glyph glyph-name="uni1E05" unicode="&#x1e05;" horiz-adv-x="1294" 
d="M711 1061q137 0 250.5 -68t180 -192.5t66.5 -280.5q0 -157 -66.5 -283.5t-178 -195t-244.5 -68.5q-104 0 -187.5 43t-138.5 121l-12 -137h-256v1536h283v-602q111 127 303 127zM653 238q119 0 193 77t74 203t-74 203.5t-193 77.5t-192.5 -77.5t-73.5 -203.5
q0 -128 74 -204t192 -76zM647 -141q69 0 119.5 -51t50.5 -121t-50.5 -120t-119.5 -50q-72 0 -122 49.5t-50 120.5t50 121.5t122 50.5z" />
    <glyph glyph-name="uni1E0C" unicode="&#x1e0c;" horiz-adv-x="1568" 
d="M725 1434q216 0 386.5 -86.5t269 -250.5t98.5 -380q0 -215 -98.5 -379t-269 -251t-386.5 -87h-559v1434h559zM725 279q201 0 321.5 119.5t120.5 318.5t-120.5 318.5t-321.5 119.5h-260v-876h260zM711 -141q69 0 119.5 -51t50.5 -121t-50.5 -120t-119.5 -50
q-72 0 -122 49.5t-50 120.5t50 121.5t122 50.5z" />
    <glyph glyph-name="uni1E0D" unicode="&#x1e0d;" horiz-adv-x="1294" 
d="M889 1536h280v-1536h-254l-12 141q-55 -80 -139 -124t-189 -44q-133 0 -244.5 68.5t-178 195t-66.5 283.5q0 156 67 280.5t180.5 192.5t250.5 68q195 0 305 -129v604zM641 238q118 0 192 76t74 204q0 126 -73.5 203.5t-192.5 77.5t-192.5 -77.5t-73.5 -203.5t73.5 -203
t192.5 -77zM664 -141q69 0 119.5 -51t50.5 -121t-50.5 -120t-119.5 -50q-72 0 -122 49.5t-50 120.5t50 121.5t122 50.5z" />
    <glyph glyph-name="uni1E0E" unicode="&#x1e0e;" horiz-adv-x="1568" 
d="M725 1434q216 0 386.5 -86.5t269 -250.5t98.5 -380q0 -215 -98.5 -379t-269 -251t-386.5 -87h-559v1434h559zM725 279q201 0 321.5 119.5t120.5 318.5t-120.5 318.5t-321.5 119.5h-260v-876h260zM371 -410v230h673v-230h-673z" />
    <glyph glyph-name="uni1E0F" unicode="&#x1e0f;" horiz-adv-x="1294" 
d="M889 1536h280v-1536h-254l-12 141q-55 -80 -139 -124t-189 -44q-133 0 -244.5 68.5t-178 195t-66.5 283.5q0 156 67 280.5t180.5 192.5t250.5 68q195 0 305 -129v604zM641 238q118 0 192 76t74 204q0 126 -73.5 203.5t-192.5 77.5t-192.5 -77.5t-73.5 -203.5t73.5 -203
t192.5 -77zM324 -410v230h673v-230h-673z" />
    <glyph glyph-name="uni1E12" unicode="&#x1e12;" horiz-adv-x="1568" 
d="M725 1434q216 0 386.5 -86.5t269 -250.5t98.5 -380q0 -215 -98.5 -379t-269 -251t-386.5 -87h-559v1434h559zM725 279q201 0 321.5 119.5t120.5 318.5t-120.5 318.5t-321.5 119.5h-260v-876h260zM862 -141l240 -332h-254l-135 176l-135 -176h-256l239 332h301z" />
    <glyph glyph-name="uni1E13" unicode="&#x1e13;" horiz-adv-x="1294" 
d="M889 1536h280v-1536h-254l-12 141q-55 -80 -139 -124t-189 -44q-133 0 -244.5 68.5t-178 195t-66.5 283.5q0 156 67 280.5t180.5 192.5t250.5 68q195 0 305 -129v604zM641 238q118 0 192 76t74 204q0 126 -73.5 203.5t-192.5 77.5t-192.5 -77.5t-73.5 -203.5t73.5 -203
t192.5 -77zM815 -141l240 -332h-254l-135 176l-136 -176h-256l240 332h301z" />
    <glyph glyph-name="uni1E24" unicode="&#x1e24;" horiz-adv-x="1585" 
d="M1120 1434h299v-1434h-299v586h-655v-586h-299v1434h299v-570h655v570zM793 -141q69 0 119.5 -51t50.5 -121t-50.5 -120t-119.5 -50q-72 0 -122 49.5t-50 120.5t50 121.5t122 50.5z" />
    <glyph glyph-name="uni1E25" unicode="&#x1e25;" horiz-adv-x="1239" 
d="M723 1061q176 0 287.5 -108t111.5 -289v-664h-280v602q0 93 -53.5 145t-147.5 52q-91 0 -162 -53.5t-71 -147.5v-598h-283v1536h283v-608q54 63 135.5 98t179.5 35zM623 -141q69 0 119.5 -51t50.5 -121t-50.5 -120t-119.5 -50q-72 0 -122 49.5t-50 120.5t50 121.5
t122 50.5z" />
    <glyph glyph-name="uni1E2E" unicode="&#x1e2e;" horiz-adv-x="630" 
d="M184 2019l219 332h322l-279 -332h-262zM80 1565q-66 0 -114 47.5t-48 113.5t48 114t114 48t114 -48t48 -114t-48 -113.5t-114 -47.5zM547 1565q-66 0 -114 47.5t-48 113.5t48 114t114 48t114 -48t48 -114t-48 -113.5t-114 -47.5zM465 1434v-1434h-299v1434h299z" />
    <glyph glyph-name="uni1E2F" unicode="&#x1e2f;" horiz-adv-x="528" 
d="M135 1620l219 332h322l-279 -332h-262zM31 1165q-66 0 -114 48t-48 114t48 114t114 48t114 -48t48 -114t-48 -114t-114 -48zM498 1165q-66 0 -114 48t-48 114t48 114t114 48t113.5 -48t47.5 -114t-47.5 -114t-113.5 -48zM406 1034v-1034h-283v1034h283z" />
    <glyph glyph-name="uni1E36" unicode="&#x1e36;" horiz-adv-x="1224" 
d="M465 276h709v-276h-1008v1434h299v-1158zM670 -141q69 0 119.5 -51t50.5 -121t-50.5 -120t-119.5 -50q-72 0 -122 49.5t-50 120.5t50 121.5t122 50.5z" />
    <glyph glyph-name="uni1E37" unicode="&#x1e37;" horiz-adv-x="532" 
d="M125 0v1536h283v-1536h-283zM266 -483q-72 0 -122 49.5t-50 120.5t50 121.5t122 50.5q69 0 119.5 -51t50.5 -121t-50.5 -120t-119.5 -50z" />
    <glyph glyph-name="uni1E3C" unicode="&#x1e3c;" horiz-adv-x="1224" 
d="M465 276h709v-276h-1008v1434h299v-1158zM821 -141l240 -332h-254l-135 176l-135 -176h-256l239 332h301z" />
    <glyph glyph-name="uni1E3D" unicode="&#x1e3d;" horiz-adv-x="532" 
d="M408 1536v-1536h-283v1536h283zM657 -473h-254l-135 176l-135 -176h-256l240 332h301z" />
    <glyph glyph-name="uni1E3E" unicode="&#x1e3e;" horiz-adv-x="1914" 
d="M1370 1931l-278 -332h-263l220 332h321zM1749 1434v-1434h-295v1053l-334 -897h-325l-334 897v-1053h-295v1434h436l356 -977l355 977h436z" />
    <glyph glyph-name="uni1E3F" unicode="&#x1e3f;" horiz-adv-x="1884" 
d="M1423 1532l-278 -332h-262l219 332h321zM1382 1061q171 0 279 -109t108 -288v-664h-282v602q0 95 -47.5 146t-132.5 51q-90 0 -155 -54.5t-65 -146.5v-598h-280v602q0 94 -48 145.5t-134 51.5q-89 0 -153 -53.5t-64 -147.5v-598h-283v1034h254l12 -129q51 74 133 115
t181 41q106 0 190.5 -46.5t134.5 -131.5q57 84 149.5 131t202.5 47z" />
    <glyph glyph-name="uni1E44" unicode="&#x1e44;" horiz-adv-x="1562" 
d="M784 1561q-71 0 -121.5 50t-50.5 120q0 71 51 121.5t121 50.5t121 -50.5t51 -121.5q0 -70 -50.5 -120t-121.5 -50zM1100 1434h295v-1434h-267l-667 909v-909h-295v1434h266l668 -906v906z" />
    <glyph glyph-name="uni1E45" unicode="&#x1e45;" horiz-adv-x="1236" 
d="M631 1161q-71 0 -121.5 50t-50.5 120q0 71 50.5 121.5t121.5 50.5t121.5 -50.5t50.5 -121.5q0 -70 -50.5 -120t-121.5 -50zM719 1061q175 0 289 -109t114 -288v-664h-280v602q0 88 -54.5 142.5t-144.5 54.5q-93 0 -164 -53.5t-71 -147.5v-598h-283v1034h254l12 -127
q54 73 140 113.5t188 40.5z" />
    <glyph glyph-name="uni1E46" unicode="&#x1e46;" horiz-adv-x="1562" 
d="M1100 1434h295v-1434h-267l-667 909v-909h-295v1434h266l668 -906v906zM786 -141q69 0 119.5 -51t50.5 -121t-50.5 -120t-119.5 -50q-72 0 -122 49.5t-50 120.5t50 121.5t122 50.5z" />
    <glyph glyph-name="uni1E47" unicode="&#x1e47;" horiz-adv-x="1236" 
d="M719 1061q175 0 289 -109t114 -288v-664h-280v602q0 88 -54.5 142.5t-144.5 54.5q-93 0 -164 -53.5t-71 -147.5v-598h-283v1034h254l12 -127q54 73 140 113.5t188 40.5zM633 -141q69 0 119.5 -51t50.5 -121t-50.5 -120t-119.5 -50q-72 0 -122 49.5t-50 120.5t50 121.5
t122 50.5z" />
    <glyph glyph-name="uni1E4A" unicode="&#x1e4a;" horiz-adv-x="1562" 
d="M1100 1434h295v-1434h-267l-667 909v-909h-295v1434h266l668 -906v906zM938 -141l240 -332h-254l-136 176l-135 -176h-256l240 332h301z" />
    <glyph glyph-name="uni1E4B" unicode="&#x1e4b;" horiz-adv-x="1236" 
d="M719 1061q175 0 289 -109t114 -288v-664h-280v602q0 88 -54.5 142.5t-144.5 54.5q-93 0 -164 -53.5t-71 -147.5v-598h-283v1034h254l12 -127q54 73 140 113.5t188 40.5zM784 -141l240 -332h-254l-135 176l-135 -176h-256l239 332h301z" />
    <glyph glyph-name="uni1E4C" unicode="&#x1e4c;" horiz-adv-x="1685" 
d="M717 2028l219 331h321l-278 -331h-262zM618 1599l-157 64q51 252 221 252q69 0 166 -51l47 -25q65 -33 92 -33q32 0 50 29t28 82l164 -64q-23 -118 -81 -189t-151 -71q-65 0 -163 52l-48 26q-60 31 -88 31q-33 0 -50.5 -26t-29.5 -77zM842 -27q-214 0 -385.5 94t-269 264
t-97.5 386q0 162 57 300.5t156.5 235.5t239 152t299.5 55q214 0 385 -93t268.5 -263.5t97.5 -386.5q0 -162 -57 -301t-156.5 -236t-238.5 -152t-299 -55zM842 260q196 0 319 127t123 330t-123 330t-319 127t-318.5 -127t-122.5 -330t122.5 -330t318.5 -127z" />
    <glyph glyph-name="uni1E4D" unicode="&#x1e4d;" horiz-adv-x="1284" 
d="M510 1628l219 332h322l-279 -332h-262zM412 1200l-158 64q51 252 221 252q67 0 166 -52l47 -24q65 -33 92 -33q32 0 50 29t28 82l164 -64q-23 -119 -80.5 -189.5t-150.5 -70.5q-68 0 -164 51l-47 27q-60 31 -88 31q-33 0 -50.5 -26t-29.5 -77zM641 -27q-243 0 -399 152.5
t-156 392.5q0 239 156.5 391t398.5 152q243 0 400 -151.5t157 -391.5t-157 -392.5t-400 -152.5zM641 238q120 0 193 77t73 203q0 125 -73.5 203t-192.5 78q-120 0 -193 -77.5t-73 -203.5t73 -203t193 -77z" />
    <glyph glyph-name="uni1E50" unicode="&#x1e50;" horiz-adv-x="1685" 
d="M709 1989l-279 331h320l221 -331h-262zM508 1843h674v-229h-674v229zM842 -27q-214 0 -385.5 94t-269 264t-97.5 386q0 162 57 300.5t156.5 235.5t239 152t299.5 55q214 0 385 -93t268.5 -263.5t97.5 -386.5q0 -162 -57 -301t-156.5 -236t-238.5 -152t-299 -55zM842 260
q196 0 319 127t123 330t-123 330t-319 127t-318.5 -127t-122.5 -330t122.5 -330t318.5 -127z" />
    <glyph glyph-name="uni1E51" unicode="&#x1e51;" horiz-adv-x="1284" 
d="M502 1589l-279 332h320l221 -332h-262zM301 1444h674v-230h-674v230zM641 -27q-243 0 -399 152.5t-156 392.5q0 239 156.5 391t398.5 152q243 0 400 -151.5t157 -391.5t-157 -392.5t-400 -152.5zM641 238q120 0 193 77t73 203q0 125 -73.5 203t-192.5 78
q-120 0 -193 -77.5t-73 -203.5t73 -203t193 -77z" />
    <glyph glyph-name="uni1E52" unicode="&#x1e52;" horiz-adv-x="1685" 
d="M717 1989l219 331h321l-278 -331h-262zM508 1843h674v-229h-674v229zM842 -27q-214 0 -385.5 94t-269 264t-97.5 386q0 162 57 300.5t156.5 235.5t239 152t299.5 55q214 0 385 -93t268.5 -263.5t97.5 -386.5q0 -162 -57 -301t-156.5 -236t-238.5 -152t-299 -55zM842 260
q196 0 319 127t123 330t-123 330t-319 127t-318.5 -127t-122.5 -330t122.5 -330t318.5 -127z" />
    <glyph glyph-name="uni1E53" unicode="&#x1e53;" horiz-adv-x="1284" 
d="M510 1589l219 332h322l-279 -332h-262zM301 1444h674v-230h-674v230zM641 -27q-243 0 -399 152.5t-156 392.5q0 239 156.5 391t398.5 152q243 0 400 -151.5t157 -391.5t-157 -392.5t-400 -152.5zM641 238q120 0 193 77t73 203q0 125 -73.5 203t-192.5 78
q-120 0 -193 -77.5t-73 -203.5t73 -203t193 -77z" />
    <glyph glyph-name="uni1E62" unicode="&#x1e62;" horiz-adv-x="1398" 
d="M707 -27q-182 0 -356 61t-265 130l141 246q91 -69 230 -115.5t260 -46.5q115 0 181.5 41.5t66.5 118.5q0 31 -12.5 54t-31.5 37.5t-53.5 27t-66 19.5t-82.5 18q-16 3 -25 5q-112 25 -191 47t-145.5 49.5t-108 57t-70 69.5t-40.5 87t-12 108q0 108 37.5 192.5t97 136.5
t141 85.5t161.5 46t167 12.5q284 0 524 -145l-141 -248q-189 117 -401 117q-130 0 -196 -44t-66 -120q0 -64 61.5 -97t226.5 -63q61 -12 96 -19.5t101 -26.5t107.5 -38.5t93.5 -53.5t82 -73.5t51.5 -97t21.5 -125.5q0 -209 -160.5 -331t-424.5 -122zM707 -483
q-72 0 -122 49.5t-50 120.5t50 121.5t122 50.5q69 0 119.5 -51t50.5 -121t-50.5 -120t-119.5 -50z" />
    <glyph glyph-name="uni1E63" unicode="&#x1e63;" horiz-adv-x="1077" 
d="M539 -27q-123 0 -257.5 39t-215.5 103l88 207q65 -55 177.5 -86t221.5 -31q178 0 178 102q0 22 -12.5 37t-43 26.5t-61 18.5t-86.5 17q-86 15 -142 29t-113 38t-89.5 55t-52.5 78.5t-20 110.5q0 95 41 165t110.5 107.5t146 54.5t162.5 17q116 0 223 -32t187 -89l-88 -205
q-61 43 -147.5 68.5t-176.5 25.5q-168 0 -168 -96q0 -34 30.5 -50t123.5 -34q65 -12 106 -20t94.5 -22.5t86.5 -30t69 -39.5t55.5 -52.5t32.5 -68.5t13 -88q0 -167 -130.5 -261t-342.5 -94zM535 -483q-72 0 -122.5 49.5t-50.5 120.5t50.5 121.5t122.5 50.5q69 0 119.5 -51
t50.5 -121t-50.5 -120t-119.5 -50z" />
    <glyph glyph-name="uni1E6C" unicode="&#x1e6c;" horiz-adv-x="1300" 
d="M1249 1434v-277h-450v-1157h-297v1157h-451v277h1198zM649 -141q69 0 119.5 -51t50.5 -121t-50.5 -120t-119.5 -50q-72 0 -122 49.5t-50 120.5t50 121.5t122 50.5z" />
    <glyph glyph-name="uni1E6D" unicode="&#x1e6d;" horiz-adv-x="1021" 
d="M942 72q-119 -99 -309 -99q-199 0 -304.5 103t-105.5 303v401h-196v254h196v305h283v-305h366v-254h-366v-372q0 -170 162 -170q91 0 161 57zM549 -141q69 0 119.5 -51t50.5 -121t-50.5 -120t-119.5 -50q-72 0 -122 49.5t-50 120.5t50 121.5t122 50.5z" />
    <glyph glyph-name="uni1E6E" unicode="&#x1e6e;" horiz-adv-x="1300" 
d="M1249 1434v-277h-450v-1157h-297v1157h-451v277h1198zM309 -410v230h674v-230h-674z" />
    <glyph glyph-name="uni1E6F" unicode="&#x1e6f;" horiz-adv-x="1021" 
d="M223 379v401h-196v254h196v305h283v-305h366v-254h-366v-372q0 -170 162 -170q91 0 161 57l113 -223q-119 -99 -309 -99q-199 0 -304.5 103t-105.5 303zM209 -410v230h674v-230h-674z" />
    <glyph glyph-name="uni1E70" unicode="&#x1e70;" horiz-adv-x="1300" 
d="M1249 1434v-277h-450v-1157h-297v1157h-451v277h1198zM801 -141l239 -332h-254l-135 176l-135 -176h-256l240 332h301z" />
    <glyph glyph-name="uni1E71" unicode="&#x1e71;" horiz-adv-x="1021" 
d="M223 379v401h-196v254h196v305h283v-305h366v-254h-366v-372q0 -170 162 -170q91 0 161 57l113 -223q-119 -99 -309 -99q-199 0 -304.5 103t-105.5 303zM700 -141l240 -332h-254l-135 176l-135 -176h-256l239 332h301z" />
    <glyph glyph-name="Wgrave" unicode="&#x1e80;" horiz-adv-x="2285" 
d="M1266 1599h-262l-279 332h319zM1919 1434h315l-434 -1434h-354l-303 1010l-303 -1010h-355l-434 1434h314l301 -1088l315 1088h324l315 -1086z" />
    <glyph glyph-name="wgrave" unicode="&#x1e81;" horiz-adv-x="1830" 
d="M1036 1200h-262l-278 332h319zM1499 1034h301l-354 -1034h-313l-218 686l-217 -686h-315l-352 1034h299l219 -708l223 708h285l223 -706z" />
    <glyph glyph-name="Wacute" unicode="&#x1e82;" horiz-adv-x="2285" 
d="M1552 1931l-278 -332h-262l219 332h321zM1919 1434h315l-434 -1434h-354l-303 1010l-303 -1010h-355l-434 1434h314l301 -1088l315 1088h324l315 -1086z" />
    <glyph glyph-name="wacute" unicode="&#x1e83;" horiz-adv-x="1830" 
d="M1323 1532l-279 -332h-262l219 332h322zM1499 1034h301l-354 -1034h-313l-218 686l-217 -686h-315l-352 1034h299l219 -708l223 708h285l223 -706z" />
    <glyph glyph-name="Wdieresis" unicode="&#x1e84;" horiz-adv-x="2285" 
d="M907 1565q-66 0 -114 47.5t-48 113.5t48 114t114 48t114 -48t48 -114t-48 -113.5t-114 -47.5zM1374 1565q-66 0 -114 47.5t-48 113.5t48 114t114 48t114 -48t48 -114t-48 -113.5t-114 -47.5zM1919 1434h315l-434 -1434h-354l-303 1010l-303 -1010h-355l-434 1434h314
l301 -1088l315 1088h324l315 -1086z" />
    <glyph glyph-name="wdieresis" unicode="&#x1e85;" horiz-adv-x="1830" 
d="M678 1165q-66 0 -114 48t-48 114t48 114t114 48t114 -48t48 -114t-48 -114t-114 -48zM1145 1165q-66 0 -114 48t-48 114t48 114t114 48t114 -48t48 -114t-48 -114t-114 -48zM1499 1034h301l-354 -1034h-313l-218 686l-217 -686h-315l-352 1034h299l219 -708l223 708h285
l223 -706z" />
    <glyph glyph-name="uni1E92" unicode="&#x1e92;" horiz-adv-x="1316" 
d="M1233 1434v-228l-735 -930h716v-276h-1128v227l735 930h-710v277h1122zM668 -141q69 0 119.5 -51t50.5 -121t-50.5 -120t-119.5 -50q-72 0 -122 49.5t-50 120.5t50 121.5t122 50.5z" />
    <glyph glyph-name="uni1E93" unicode="&#x1e93;" horiz-adv-x="1036" 
d="M446 254h508v-254h-888v217l497 563h-481v254h860v-215zM528 -141q69 0 119.5 -51t50.5 -121t-50.5 -120t-119.5 -50q-72 0 -122 49.5t-50 120.5t50 121.5t122 50.5z" />
    <glyph glyph-name="uni1EA0" unicode="&#x1ea0;" horiz-adv-x="1576" 
d="M1526 0h-318l-121 322h-598l-120 -322h-318l563 1434h349zM592 600h393l-197 526zM782 -141q69 0 119.5 -51t50.5 -121t-50.5 -120t-119.5 -50q-72 0 -122 49.5t-50 120.5t50 121.5t122 50.5z" />
    <glyph glyph-name="uni1EA1" unicode="&#x1ea1;" horiz-adv-x="1185" 
d="M618 1061q449 0 449 -445v-616h-254l-12 137q-58 -79 -151.5 -121.5t-194.5 -42.5q-95 0 -175.5 35.5t-133 111t-52.5 177.5q0 84 36 148.5t97 102t133.5 56.5t151.5 19q141 0 274 -39v22q0 106 -55.5 156.5t-169.5 50.5q-170 0 -297 -96l-106 201q190 143 460 143z
M530 199q99 0 177 59t79 150q-103 32 -221 32q-83 0 -134.5 -31t-51.5 -94q0 -56 41 -86t110 -30zM612 -141q69 0 119.5 -51t50.5 -121t-50.5 -120t-119.5 -50q-72 0 -122 49.5t-50 120.5t50 121.5t122 50.5z" />
    <glyph glyph-name="uni1EA2" unicode="&#x1ea2;" horiz-adv-x="1576" 
d="M754 1868q-62 0 -103 -41l-123 94q88 117 258 117q115 0 180.5 -54.5t65.5 -152.5q0 -61 -30 -99.5t-101 -91.5q-46 -33 -56.5 -45.5t-10.5 -38.5l-175 -28q-1 32 -2 49t1 37.5t3.5 30t9 24t13 20.5t21 19t27.5 21.5t38 25.5q33 23 44 35.5t11 28.5q0 23 -19 36t-52 13z
M1208 0l-121 322h-598l-120 -322h-318l563 1434h349l563 -1434h-318zM592 600h393l-197 526z" />
    <glyph glyph-name="uni1EA3" unicode="&#x1ea3;" horiz-adv-x="1185" 
d="M588 1468q-62 0 -103 -41l-123 95q87 116 259 116q115 0 180 -54t65 -152q0 -61 -30 -99.5t-101 -91.5q-46 -33 -56.5 -45.5t-10.5 -38.5l-174 -29q-2 43 -2.5 63t3.5 44.5t8.5 33.5t21 26.5t31.5 28t48 32.5q33 24 44 35.5t11 27.5q0 23 -19 36t-52 13zM618 1061
q449 0 449 -445v-616h-254l-12 137q-58 -79 -151.5 -121.5t-194.5 -42.5q-95 0 -175.5 35.5t-133 111t-52.5 177.5q0 84 36 148.5t97 102t133.5 56.5t151.5 19q141 0 274 -39v22q0 106 -55.5 156.5t-169.5 50.5q-170 0 -297 -96l-106 201q190 143 460 143zM530 199
q99 0 177 59t79 150q-103 32 -221 32q-83 0 -134.5 -31t-51.5 -94q0 -56 41 -86t110 -30z" />
    <glyph glyph-name="uni1EA4" unicode="&#x1ea4;" horiz-adv-x="1576" 
d="M1599 2177l-276 -334h-262l219 334h319zM784 1776l-135 -177h-256l240 332h301l240 -332h-254zM963 1434l563 -1434h-318l-121 322h-598l-120 -322h-318l563 1434h349zM592 600h393l-197 526z" />
    <glyph glyph-name="uni1EA5" unicode="&#x1ea5;" horiz-adv-x="1185" 
d="M1114 1778h320l-277 -334h-262zM618 1376l-135 -176h-256l240 332h301l240 -332h-254zM618 1061q449 0 449 -445v-616h-254l-12 137q-58 -79 -151.5 -121.5t-194.5 -42.5q-95 0 -175.5 35.5t-133 111t-52.5 177.5q0 84 36 148.5t97 102t133.5 56.5t151.5 19
q141 0 274 -39v22q0 106 -55.5 156.5t-169.5 50.5q-170 0 -297 -96l-106 201q190 143 460 143zM530 199q99 0 177 59t79 150q-103 32 -221 32q-83 0 -134.5 -31t-51.5 -94q0 -56 41 -86t110 -30z" />
    <glyph glyph-name="uni1EA6" unicode="&#x1ea6;" horiz-adv-x="1576" 
d="M1415 1843h-262l-279 334h322zM784 1776l-135 -177h-256l240 332h301l240 -332h-254zM1208 0l-121 322h-598l-120 -322h-318l563 1434h349l563 -1434h-318zM592 600h393l-197 526z" />
    <glyph glyph-name="uni1EA7" unicode="&#x1ea7;" horiz-adv-x="1185" 
d="M1249 1444h-262l-278 334h321zM618 1376l-135 -176h-256l240 332h301l240 -332h-254zM618 1061q449 0 449 -445v-616h-254l-12 137q-58 -79 -151.5 -121.5t-194.5 -42.5q-95 0 -175.5 35.5t-133 111t-52.5 177.5q0 84 36 148.5t97 102t133.5 56.5t151.5 19q141 0 274 -39
v22q0 106 -55.5 156.5t-169.5 50.5q-170 0 -297 -96l-106 201q190 143 460 143zM530 199q99 0 177 59t79 150q-103 32 -221 32q-83 0 -134.5 -31t-51.5 -94q0 -56 41 -86t110 -30z" />
    <glyph glyph-name="uni1EA8" unicode="&#x1ea8;" horiz-adv-x="1576" 
d="M1194 2126q-56 0 -100 -41l-123 92q87 119 256 119q114 0 181 -55.5t67 -151.5q0 -62 -31 -100.5t-103 -90.5q-51 -38 -58 -48q-9 -13 -9 -35l-174 -29q-1 32 -1.5 48.5t1.5 37.5t3.5 30t9 23.5t13.5 21t20.5 19.5t27.5 21.5t38 25.5q32 23 43 35t11 29q0 23 -19.5 36
t-52.5 13zM784 1776l-135 -177h-256l240 332h301l240 -332h-254zM1208 0l-121 322h-598l-120 -322h-318l563 1434h349l563 -1434h-318zM592 600h393l-197 526z" />
    <glyph glyph-name="uni1EA9" unicode="&#x1ea9;" horiz-adv-x="1185" 
d="M1061 1896q115 0 181.5 -55t66.5 -151q0 -62 -30.5 -100.5t-102.5 -90.5q-52 -39 -59 -49q-9 -13 -9 -35l-174 -29q-1 31 -1.5 48.5t1.5 37.5t4 29.5t9 24t13 21.5t21 20t28 21.5t38 25.5q32 23 42.5 34.5t10.5 28.5q0 23 -19.5 36t-52.5 13q-57 0 -100 -40l-123 92
q86 118 256 118zM618 1376l-135 -176h-256l240 332h301l240 -332h-254zM618 1061q449 0 449 -445v-616h-254l-12 137q-58 -79 -151.5 -121.5t-194.5 -42.5q-95 0 -175.5 35.5t-133 111t-52.5 177.5q0 84 36 148.5t97 102t133.5 56.5t151.5 19q141 0 274 -39v22
q0 106 -55.5 156.5t-169.5 50.5q-170 0 -297 -96l-106 201q190 143 460 143zM530 199q99 0 177 59t79 150q-103 32 -221 32q-83 0 -134.5 -31t-51.5 -94q0 -56 41 -86t110 -30z" />
    <glyph glyph-name="uni1EAA" unicode="&#x1eaa;" horiz-adv-x="1576" 
d="M635 2107q-33 0 -50.5 -25.5t-29.5 -76.5l-158 61q26 128 83 191t138 63q69 0 166 -51l47 -24q65 -33 95 -33q57 0 75 110l164 -63q-50 -260 -231 -260q-68 0 -164 51l-47 27q-66 30 -88 30zM782 1774l-135 -175h-254l240 332h301l240 -332h-256zM1208 0l-121 322h-598
l-120 -322h-318l563 1434h349l563 -1434h-318zM592 600h393l-197 526z" />
    <glyph glyph-name="uni1EAB" unicode="&#x1eab;" horiz-adv-x="1185" 
d="M469 1708q-33 0 -50.5 -25.5t-29.5 -76.5l-158 61q26 128 83 191t139 63q68 0 165 -51l48 -25q65 -33 94 -33q58 0 76 111l163 -63q-23 -121 -79.5 -191t-151.5 -70q-66 0 -164 52l-47 26q-3 1 -21.5 10t-25 11.5t-19 6t-22.5 3.5zM616 1374l-135 -174h-254l240 332h301
l240 -332h-256zM618 1061q449 0 449 -445v-616h-254l-12 137q-58 -79 -151.5 -121.5t-194.5 -42.5q-95 0 -175.5 35.5t-133 111t-52.5 177.5q0 84 36 148.5t97 102t133.5 56.5t151.5 19q141 0 274 -39v22q0 106 -55.5 156.5t-169.5 50.5q-170 0 -297 -96l-106 201
q190 143 460 143zM530 199q99 0 177 59t79 150q-103 32 -221 32q-83 0 -134.5 -31t-51.5 -94q0 -56 41 -86t110 -30z" />
    <glyph glyph-name="uni1EAC" unicode="&#x1eac;" horiz-adv-x="1576" 
d="M784 1776l-135 -177h-256l240 332h301l240 -332h-254zM1526 0h-318l-121 322h-598l-120 -322h-318l563 1434h349zM592 600h393l-197 526zM782 -141q69 0 119.5 -51t50.5 -121t-50.5 -120t-119.5 -50q-72 0 -122 49.5t-50 120.5t50 121.5t122 50.5z" />
    <glyph glyph-name="uni1EAD" unicode="&#x1ead;" horiz-adv-x="1185" 
d="M618 1376l-135 -176h-256l240 332h301l240 -332h-254zM618 1061q449 0 449 -445v-616h-254l-12 137q-58 -79 -151.5 -121.5t-194.5 -42.5q-95 0 -175.5 35.5t-133 111t-52.5 177.5q0 84 36 148.5t97 102t133.5 56.5t151.5 19q141 0 274 -39v22q0 106 -55.5 156.5
t-169.5 50.5q-170 0 -297 -96l-106 201q190 143 460 143zM530 199q99 0 177 59t79 150q-103 32 -221 32q-83 0 -134.5 -31t-51.5 -94q0 -56 41 -86t110 -30zM612 -141q69 0 119.5 -51t50.5 -121t-50.5 -120t-119.5 -50q-72 0 -122 49.5t-50 120.5t50 121.5t122 50.5z" />
    <glyph glyph-name="uni1EAE" unicode="&#x1eae;" horiz-adv-x="1576" 
d="M1178 2275l-277 -331h-262l219 331h320zM782 1577q-160 0 -268 91t-131 243l225 31q6 -74 53 -122t119 -48q73 0 122 45t56 125l226 -31q-25 -154 -134 -244t-268 -90zM1208 0l-121 322h-598l-120 -322h-318l563 1434h349l563 -1434h-318zM592 600h393l-197 526z" />
    <glyph glyph-name="uni1EAF" unicode="&#x1eaf;" horiz-adv-x="1185" 
d="M1012 1876l-277 -332h-262l219 332h320zM616 1178q-160 0 -268 90.5t-131 242.5l225 31q6 -74 53 -122t119 -48q74 0 123 45t56 125l225 -31q-25 -154 -134 -243.5t-268 -89.5zM618 1061q449 0 449 -445v-616h-254l-12 137q-58 -79 -151.5 -121.5t-194.5 -42.5
q-95 0 -175.5 35.5t-133 111t-52.5 177.5q0 84 36 148.5t97 102t133.5 56.5t151.5 19q141 0 274 -39v22q0 106 -55.5 156.5t-169.5 50.5q-170 0 -297 -96l-106 201q190 143 460 143zM530 199q99 0 177 59t79 150q-103 32 -221 32q-83 0 -134.5 -31t-51.5 -94q0 -56 41 -86
t110 -30z" />
    <glyph glyph-name="uni1EB0" unicode="&#x1eb0;" horiz-adv-x="1576" 
d="M924 1944h-262l-279 331h322zM782 1772q74 0 122 45t54 125l226 -31q-25 -154 -133.5 -244t-266.5 -90q-161 0 -268.5 91t-130.5 243l223 31q8 -74 54.5 -122t119.5 -48zM1208 0l-121 322h-598l-120 -322h-318l563 1434h349l563 -1434h-318zM592 600h393l-197 526z" />
    <glyph glyph-name="uni1EB1" unicode="&#x1eb1;" horiz-adv-x="1185" 
d="M758 1544h-262l-279 332h322zM616 1372q74 0 122.5 45t54.5 125l225 -31q-25 -154 -133.5 -243.5t-266.5 -89.5q-161 0 -268.5 90.5t-130.5 242.5l223 31q8 -74 54.5 -122t119.5 -48zM618 1061q449 0 449 -445v-616h-254l-12 137q-58 -79 -151.5 -121.5t-194.5 -42.5
q-95 0 -175.5 35.5t-133 111t-52.5 177.5q0 84 36 148.5t97 102t133.5 56.5t151.5 19q141 0 274 -39v22q0 106 -55.5 156.5t-169.5 50.5q-170 0 -297 -96l-106 201q190 143 460 143zM530 199q99 0 177 59t79 150q-103 32 -221 32q-83 0 -134.5 -31t-51.5 -94q0 -56 41 -86
t110 -30z" />
    <glyph glyph-name="uni1EB2" unicode="&#x1eb2;" horiz-adv-x="1576" 
d="M784 2243q-60 0 -100 -43l-125 94q92 119 258 119q114 0 181 -55.5t67 -151.5q0 -43 -18.5 -78t-41 -55.5t-73.5 -59.5q-45 -31 -56 -44t-10 -40l-176 -28q-2 43 -2.5 63.5t3.5 45t9 34.5t20 26.5t32 27t49 30.5q32 23 43.5 35.5t11.5 29.5q0 23 -19.5 36.5t-52.5 13.5z
M782 1577q-160 0 -268 91t-131 243l225 31q6 -74 53 -122t119 -48q73 0 122 45t56 125l226 -31q-25 -154 -134 -244t-268 -90zM1208 0l-121 322h-598l-120 -322h-318l563 1434h349l563 -1434h-318zM592 600h393l-197 526z" />
    <glyph glyph-name="uni1EB3" unicode="&#x1eb3;" horiz-adv-x="1185" 
d="M618 1843q-60 0 -100 -43l-125 94q92 119 258 119q114 0 181 -55.5t67 -151.5q0 -33 -8 -58t-29.5 -49.5t-39 -39.5t-56.5 -45q-45 -31 -56 -44t-10 -40l-176 -29q-2 43 -2.5 63.5t3 45t9 35t20.5 26.5t32 27.5t49 30.5q32 23 43.5 35.5t11.5 29.5q0 23 -19.5 36
t-52.5 13zM616 1178q-160 0 -268 90.5t-131 242.5l225 31q6 -74 53 -122t119 -48q74 0 123 45t56 125l225 -31q-25 -154 -134 -243.5t-268 -89.5zM618 1061q449 0 449 -445v-616h-254l-12 137q-58 -79 -151.5 -121.5t-194.5 -42.5q-95 0 -175.5 35.5t-133 111t-52.5 177.5
q0 84 36 148.5t97 102t133.5 56.5t151.5 19q141 0 274 -39v22q0 106 -55.5 156.5t-169.5 50.5q-170 0 -297 -96l-106 201q190 143 460 143zM530 199q99 0 177 59t79 150q-103 32 -221 32q-83 0 -134.5 -31t-51.5 -94q0 -56 41 -86t110 -30z" />
    <glyph glyph-name="uni1EB4" unicode="&#x1eb4;" horiz-adv-x="1576" 
d="M637 2101q-33 0 -50.5 -25.5t-29.5 -76.5l-158 61q26 128 83 191t139 63q68 0 165 -51l48 -25q61 -34 92 -34q32 0 50 29.5t28 82.5l163 -65q-23 -119 -80.5 -189.5t-150.5 -70.5q-67 0 -164 53l-47 24q-64 33 -88 33zM782 1577q-160 0 -268 91t-131 243l225 31
q6 -74 53 -122t119 -48q73 0 122 45t56 125l226 -31q-25 -154 -134 -244t-268 -90zM1208 0l-121 322h-598l-120 -322h-318l563 1434h349l563 -1434h-318zM592 600h393l-197 526z" />
    <glyph glyph-name="uni1EB5" unicode="&#x1eb5;" horiz-adv-x="1185" 
d="M471 1702q-33 0 -50.5 -26t-29.5 -77l-158 62q26 128 83 191t139 63q69 0 166 -51l47 -25q63 -35 92 -35q56 0 78 113l163 -66q-23 -119 -80.5 -189.5t-150.5 -70.5q-65 0 -164 54l-47 24q-64 33 -88 33zM616 1178q-160 0 -268 90.5t-131 242.5l225 31q6 -74 53 -122
t119 -48q74 0 123 45t56 125l225 -31q-25 -154 -134 -243.5t-268 -89.5zM618 1061q449 0 449 -445v-616h-254l-12 137q-58 -79 -151.5 -121.5t-194.5 -42.5q-95 0 -175.5 35.5t-133 111t-52.5 177.5q0 84 36 148.5t97 102t133.5 56.5t151.5 19q141 0 274 -39v22
q0 106 -55.5 156.5t-169.5 50.5q-170 0 -297 -96l-106 201q190 143 460 143zM530 199q99 0 177 59t79 150q-103 32 -221 32q-83 0 -134.5 -31t-51.5 -94q0 -56 41 -86t110 -30z" />
    <glyph glyph-name="uni1EB6" unicode="&#x1eb6;" horiz-adv-x="1576" 
d="M782 1577q-160 0 -268 91t-131 243l225 31q6 -74 53 -122t119 -48q73 0 122 45t56 125l226 -31q-25 -154 -134 -244t-268 -90zM1526 0h-318l-121 322h-598l-120 -322h-318l563 1434h349zM592 600h393l-197 526zM782 -141q69 0 119.5 -51t50.5 -121t-50.5 -120t-119.5 -50
q-72 0 -122 49.5t-50 120.5t50 121.5t122 50.5z" />
    <glyph glyph-name="uni1EB7" unicode="&#x1eb7;" horiz-adv-x="1185" 
d="M616 1178q-160 0 -268 90.5t-131 242.5l225 31q6 -74 53 -122t119 -48q74 0 123 45t56 125l225 -31q-25 -154 -134 -243.5t-268 -89.5zM618 1061q449 0 449 -445v-616h-254l-12 137q-58 -79 -151.5 -121.5t-194.5 -42.5q-95 0 -175.5 35.5t-133 111t-52.5 177.5
q0 84 36 148.5t97 102t133.5 56.5t151.5 19q141 0 274 -39v22q0 106 -55.5 156.5t-169.5 50.5q-170 0 -297 -96l-106 201q190 143 460 143zM530 199q99 0 177 59t79 150q-103 32 -221 32q-83 0 -134.5 -31t-51.5 -94q0 -56 41 -86t110 -30zM612 -141q69 0 119.5 -51
t50.5 -121t-50.5 -120t-119.5 -50q-72 0 -122 49.5t-50 120.5t50 121.5t122 50.5z" />
    <glyph glyph-name="uni1EB8" unicode="&#x1eb8;" horiz-adv-x="1329" 
d="M465 276h774v-276h-1073v1434h1057v-277h-758v-293h725v-278h-725v-310zM682 -141q69 0 119.5 -51t50.5 -121t-50.5 -120t-119.5 -50q-72 0 -122 49.5t-50 120.5t50 121.5t122 50.5z" />
    <glyph glyph-name="uni1EB9" unicode="&#x1eb9;" horiz-adv-x="1218" 
d="M377 418q23 -97 91 -149t171 -52q144 0 248 96l184 -176q-81 -78 -190.5 -121t-233.5 -43q-244 0 -402.5 151t-158.5 396q0 237 150 389t391 152q124 0 223 -41.5t159.5 -111t92 -156t31.5 -181.5q0 -80 -15 -153h-741zM625 815q-97 0 -161.5 -53t-86.5 -148h481
q-8 92 -69 146.5t-164 54.5zM618 -141q69 0 119.5 -51t50.5 -121t-50.5 -120t-119.5 -50q-72 0 -122 49.5t-50 120.5t50 121.5t122 50.5z" />
    <glyph glyph-name="uni1EBA" unicode="&#x1eba;" horiz-adv-x="1329" 
d="M653 1868q-61 0 -102 -41l-123 94q88 117 258 117q115 0 180.5 -54.5t65.5 -152.5q0 -61 -30 -99.5t-101 -91.5q-35 -25 -45 -33t-16.5 -20t-6.5 -31l-174 -28q-1 32 -2 49t1 37.5t3.5 30t9 24t13 20.5t21 19t27.5 21.5t38 25.5q33 23 44 35.5t11 28.5q0 23 -19.5 36
t-52.5 13zM465 276h774v-276h-1073v1434h1057v-277h-758v-293h725v-278h-725v-310z" />
    <glyph glyph-name="uni1EBB" unicode="&#x1ebb;" horiz-adv-x="1218" 
d="M590 1468q-62 0 -103 -41l-122 95q87 116 258 116q115 0 180 -54t65 -152q0 -61 -30 -99.5t-101 -91.5q-46 -33 -56.5 -45.5t-10.5 -38.5l-174 -29q-2 43 -2.5 63t3.5 44.5t8.5 33.5t21 26.5t31.5 28t48 32.5q34 24 45 35.5t11 27.5q0 23 -19.5 36t-52.5 13zM377 418
q23 -97 91 -149t171 -52q144 0 248 96l184 -176q-81 -78 -190.5 -121t-233.5 -43q-244 0 -402.5 151t-158.5 396q0 237 150 389t391 152q124 0 223 -41.5t159.5 -111t92 -156t31.5 -181.5q0 -80 -15 -153h-741zM625 815q-97 0 -161.5 -53t-86.5 -148h481q-8 92 -69 146.5
t-164 54.5z" />
    <glyph glyph-name="uni1EBC" unicode="&#x1ebc;" horiz-adv-x="1329" 
d="M535 1702q-33 0 -50.5 -26t-29.5 -77l-158 64q51 252 221 252q69 0 166 -51l47 -25q65 -33 92 -33q32 0 50 29t28 82l164 -64q-23 -119 -80.5 -189.5t-150.5 -70.5q-66 0 -164 52l-47 26q-60 31 -88 31zM465 276h774v-276h-1073v1434h1057v-277h-758v-293h725v-278h-725
v-310z" />
    <glyph glyph-name="uni1EBD" unicode="&#x1ebd;" horiz-adv-x="1218" 
d="M471 1303q-33 0 -50.5 -26t-29.5 -77l-158 64q26 127 83 189.5t139 62.5q67 0 166 -52l47 -24q65 -33 92 -33q32 0 50 29t28 82l163 -64q-23 -119 -80.5 -189.5t-150.5 -70.5q-68 0 -164 51l-47 27q-60 31 -88 31zM377 418q23 -97 91 -149t171 -52q144 0 248 96l184 -176
q-81 -78 -190.5 -121t-233.5 -43q-244 0 -402.5 151t-158.5 396q0 237 150 389t391 152q124 0 223 -41.5t159.5 -111t92 -156t31.5 -181.5q0 -80 -15 -153h-741zM625 815q-97 0 -161.5 -53t-86.5 -148h481q-8 92 -69 146.5t-164 54.5z" />
    <glyph glyph-name="uni1EBE" unicode="&#x1ebe;" horiz-adv-x="1329" 
d="M1499 2177l-276 -334h-262l219 334h319zM684 1776l-135 -177h-256l239 332h302l239 -332h-254zM465 586v-310h774v-276h-1073v1434h1057v-277h-758v-293h725v-278h-725z" />
    <glyph glyph-name="uni1EBF" unicode="&#x1ebf;" horiz-adv-x="1218" 
d="M1116 1778h320l-277 -334h-262zM621 1376l-136 -176h-256l240 332h301l240 -332h-254zM627 1061q124 0 223 -41.5t159.5 -111t92 -156t31.5 -181.5q0 -80 -15 -153h-741q23 -97 91 -149t171 -52q144 0 248 96l184 -176q-81 -78 -190.5 -121t-233.5 -43q-244 0 -402.5 151
t-158.5 396q0 237 150 389t391 152zM625 815q-97 0 -161.5 -53t-86.5 -148h481q-8 92 -69 146.5t-164 54.5z" />
    <glyph glyph-name="uni1EC0" unicode="&#x1ec0;" horiz-adv-x="1329" 
d="M1315 1843h-262l-279 334h322zM684 1776l-135 -177h-256l239 332h302l239 -332h-254zM465 586v-310h774v-276h-1073v1434h1057v-277h-758v-293h725v-278h-725z" />
    <glyph glyph-name="uni1EC1" unicode="&#x1ec1;" horiz-adv-x="1218" 
d="M1251 1444h-262l-278 334h321zM621 1376l-136 -176h-256l240 332h301l240 -332h-254zM627 1061q124 0 223 -41.5t159.5 -111t92 -156t31.5 -181.5q0 -80 -15 -153h-741q23 -97 91 -149t171 -52q144 0 248 96l184 -176q-81 -78 -190.5 -121t-233.5 -43q-244 0 -402.5 151
t-158.5 396q0 237 150 389t391 152zM625 815q-97 0 -161.5 -53t-86.5 -148h481q-8 92 -69 146.5t-164 54.5z" />
    <glyph glyph-name="uni1EC2" unicode="&#x1ec2;" horiz-adv-x="1329" 
d="M1126 2296q114 0 181 -55.5t67 -151.5q0 -62 -30.5 -100.5t-102.5 -90.5q-51 -38 -58 -48q-9 -13 -9 -35l-175 -29q-1 31 -1.5 48t1.5 37.5t4 30t9 24t13 21t21.5 19.5t28 21.5l37.5 25.5q32 23 42.5 35t10.5 29q0 23 -19 36t-52 13q-57 0 -101 -41l-123 92
q87 119 256 119zM684 1776l-135 -177h-256l239 332h302l239 -332h-254zM465 586v-310h774v-276h-1073v1434h1057v-277h-758v-293h725v-278h-725z" />
    <glyph glyph-name="uni1EC3" unicode="&#x1ec3;" horiz-adv-x="1218" 
d="M1063 1896q115 0 181.5 -55t66.5 -151q0 -62 -30.5 -100.5t-102.5 -90.5q-52 -39 -59 -49q-9 -13 -9 -35l-174 -29q-1 31 -1.5 48.5t1.5 37.5t4 29.5t9 24t13 21.5t21 20t28 21.5t38 25.5q32 23 42.5 34.5t10.5 28.5q0 23 -19.5 36t-52.5 13q-57 0 -100 -40l-123 92
q86 118 256 118zM621 1376l-136 -176h-256l240 332h301l240 -332h-254zM627 1061q124 0 223 -41.5t159.5 -111t92 -156t31.5 -181.5q0 -80 -15 -153h-741q23 -97 91 -149t171 -52q144 0 248 96l184 -176q-81 -78 -190.5 -121t-233.5 -43q-244 0 -402.5 151t-158.5 396
q0 237 150 389t391 152zM625 815q-97 0 -161.5 -53t-86.5 -148h481q-8 92 -69 146.5t-164 54.5z" />
    <glyph glyph-name="uni1EC4" unicode="&#x1ec4;" horiz-adv-x="1329" 
d="M535 2107q-33 0 -50.5 -25.5t-29.5 -76.5l-158 61q26 128 83 191t138 63q69 0 166 -51l47 -24q65 -33 94 -33q58 0 76 110l164 -63q-50 -260 -231 -260q-68 0 -164 51l-47 27q-66 30 -88 30zM682 1774l-135 -175h-254l239 332h302l239 -332h-256zM465 276h774v-276h-1073
v1434h1057v-277h-758v-293h725v-278h-725v-310z" />
    <glyph glyph-name="uni1EC5" unicode="&#x1ec5;" horiz-adv-x="1218" 
d="M471 1708q-33 0 -50.5 -25.5t-29.5 -76.5l-158 61q26 128 83 191t139 63q69 0 166 -51l47 -25q65 -33 94 -33q58 0 76 111l163 -63q-23 -121 -79.5 -191t-151.5 -70q-66 0 -164 52l-47 26q-3 1 -21.5 10t-25 11.5t-19 6t-22.5 3.5zM618 1374l-135 -174h-254l240 332h301
l240 -332h-256zM377 418q23 -97 91 -149t171 -52q144 0 248 96l184 -176q-81 -78 -190.5 -121t-233.5 -43q-244 0 -402.5 151t-158.5 396q0 237 150 389t391 152q124 0 223 -41.5t159.5 -111t92 -156t31.5 -181.5q0 -80 -15 -153h-741zM625 815q-97 0 -161.5 -53t-86.5 -148
h481q-8 92 -69 146.5t-164 54.5z" />
    <glyph glyph-name="uni1EC6" unicode="&#x1ec6;" horiz-adv-x="1329" 
d="M684 1776l-135 -177h-256l239 332h302l239 -332h-254zM465 276h774v-276h-1073v1434h1057v-277h-758v-293h725v-278h-725v-310zM682 -141q69 0 119.5 -51t50.5 -121t-50.5 -120t-119.5 -50q-72 0 -122 49.5t-50 120.5t50 121.5t122 50.5z" />
    <glyph glyph-name="uni1EC7" unicode="&#x1ec7;" horiz-adv-x="1218" 
d="M621 1376l-136 -176h-256l240 332h301l240 -332h-254zM377 418q23 -97 91 -149t171 -52q144 0 248 96l184 -176q-81 -78 -190.5 -121t-233.5 -43q-244 0 -402.5 151t-158.5 396q0 237 150 389t391 152q124 0 223 -41.5t159.5 -111t92 -156t31.5 -181.5q0 -80 -15 -153
h-741zM625 815q-97 0 -161.5 -53t-86.5 -148h481q-8 92 -69 146.5t-164 54.5zM618 -141q69 0 119.5 -51t50.5 -121t-50.5 -120t-119.5 -50q-72 0 -122 49.5t-50 120.5t50 121.5t122 50.5z" />
    <glyph glyph-name="uni1EC8" unicode="&#x1ec8;" horiz-adv-x="630" 
d="M190 1528q-1 32 -2 49t1 37.5t3.5 30t9 24t13 20.5t21 19t27.5 21.5t38 25.5q33 23 44 35.5t11 28.5q0 23 -19 36t-52 13q-62 0 -103 -41l-123 94q88 117 258 117q115 0 180.5 -54.5t65.5 -152.5q0 -61 -30 -99.5t-101 -91.5q-46 -33 -56.5 -45.5t-10.5 -38.5zM465 1434
v-1434h-299v1434h299z" />
    <glyph glyph-name="uni1EC9" unicode="&#x1ec9;" horiz-adv-x="528" 
d="M141 1128q-1 36 -1 55.5t0.5 40t6.5 32.5t11.5 24t21.5 24t29.5 22.5t42.5 29.5q33 24 44 35.5t11 27.5q0 23 -19 36t-52 13q-62 0 -103 -41l-123 95q87 116 258 116q115 0 180.5 -54t65.5 -152q0 -61 -30 -99.5t-101 -91.5q-35 -25 -45 -33t-16.5 -20t-6.5 -31z
M406 1034v-1034h-283v1034h283z" />
    <glyph glyph-name="uni1ECA" unicode="&#x1eca;" horiz-adv-x="630" 
d="M465 1434v-1434h-299v1434h299zM313 -483q-72 0 -122 49.5t-50 120.5t50 121.5t122 50.5q69 0 119.5 -51t50.5 -121t-50.5 -120t-119.5 -50z" />
    <glyph glyph-name="uni1ECB" unicode="&#x1ecb;" horiz-adv-x="593" 
d="M297 1161q-71 0 -121.5 50t-50.5 120q0 71 50.5 121.5t121.5 50.5t121.5 -50.5t50.5 -121.5q0 -70 -50.5 -120t-121.5 -50zM438 1034v-1034h-282v1034h282zM295 -483q-72 0 -122 49.5t-50 120.5t50 121.5t122 50.5q69 0 119.5 -51t50.5 -121t-50.5 -120t-119.5 -50z" />
    <glyph glyph-name="uni1ECC" unicode="&#x1ecc;" horiz-adv-x="1685" 
d="M842 -27q-214 0 -385.5 94t-269 264t-97.5 386q0 162 57 300.5t156.5 235.5t239 152t299.5 55q214 0 385 -93t268.5 -263.5t97.5 -386.5q0 -162 -57 -301t-156.5 -236t-238.5 -152t-299 -55zM842 260q196 0 319 127t123 330t-123 330t-319 127t-318.5 -127t-122.5 -330
t122.5 -330t318.5 -127zM844 -483q-72 0 -122 49.5t-50 120.5t50 121.5t122 50.5q69 0 119.5 -51t50.5 -121t-50.5 -120t-119.5 -50z" />
    <glyph glyph-name="uni1ECD" unicode="&#x1ecd;" horiz-adv-x="1284" 
d="M641 -27q-243 0 -399 152.5t-156 392.5q0 239 156.5 391t398.5 152q243 0 400 -151.5t157 -391.5t-157 -392.5t-400 -152.5zM641 238q120 0 193 77t73 203q0 125 -73.5 203t-192.5 78q-120 0 -193 -77.5t-73 -203.5t73 -203t193 -77zM641 -483q-72 0 -122 49.5t-50 120.5
t50 121.5t122 50.5q69 0 119.5 -51t50.5 -121t-50.5 -120t-119.5 -50z" />
    <glyph glyph-name="uni1ECE" unicode="&#x1ece;" horiz-adv-x="1685" 
d="M723 1528q-1 32 -2 49t1 37.5t3.5 30t9 24t13 20.5t21 19t27.5 21.5t38 25.5q33 23 44 35.5t11 28.5q0 23 -19.5 36t-52.5 13q-61 0 -102 -41l-123 94q88 117 258 117q115 0 180.5 -54.5t65.5 -152.5q0 -61 -30 -99.5t-101 -91.5q-35 -25 -45 -33t-16.5 -20t-6.5 -31z
M842 -27q-214 0 -385.5 94t-269 264t-97.5 386q0 162 57 300.5t156.5 235.5t239 152t299.5 55q214 0 385 -93t268.5 -263.5t97.5 -386.5q0 -162 -57 -301t-156.5 -236t-238.5 -152t-299 -55zM842 260q196 0 319 127t123 330t-123 330t-319 127t-318.5 -127t-122.5 -330
t122.5 -330t318.5 -127z" />
    <glyph glyph-name="uni1ECF" unicode="&#x1ecf;" horiz-adv-x="1284" 
d="M516 1128q-1 36 -1 55.5t0.5 40t6.5 32.5t11.5 24t21.5 24t29.5 22.5t42.5 29.5q33 24 44 35.5t11 27.5q0 23 -19.5 36t-52.5 13q-61 0 -102 -41l-123 95q87 116 258 116q115 0 180.5 -54t65.5 -152q0 -61 -30 -99.5t-101 -91.5q-35 -25 -45 -33t-16.5 -20t-6.5 -31z
M641 -27q-243 0 -399 152.5t-156 392.5q0 239 156.5 391t398.5 152q243 0 400 -151.5t157 -391.5t-157 -392.5t-400 -152.5zM641 238q120 0 193 77t73 203q0 125 -73.5 203t-192.5 78q-120 0 -193 -77.5t-73 -203.5t73 -203t193 -77z" />
    <glyph glyph-name="uni1ED0" unicode="&#x1ed0;" horiz-adv-x="1685" 
d="M1663 2177l-277 -334h-262l219 334h320zM848 1776l-135 -177h-256l239 332h301l240 -332h-254zM842 1460q214 0 385 -93t268.5 -263.5t97.5 -386.5q0 -162 -57 -301t-156.5 -236t-238.5 -152t-299 -55q-214 0 -385.5 94t-269 264t-97.5 386q0 162 57 300.5t156.5 235.5
t239 152t299.5 55zM842 260q196 0 319 127t123 330t-123 330t-319 127t-318.5 -127t-122.5 -330t122.5 -330t318.5 -127z" />
    <glyph glyph-name="uni1ED1" unicode="&#x1ed1;" horiz-adv-x="1284" 
d="M1456 1778l-276 -334h-262l219 334h319zM641 1376l-135 -176h-256l239 332h302l239 -332h-254zM641 1061q243 0 400 -151.5t157 -391.5t-157 -392.5t-400 -152.5t-399 152.5t-156 392.5q0 239 156.5 391t398.5 152zM641 238q120 0 193 77t73 203q0 125 -73.5 203
t-192.5 78q-120 0 -193 -77.5t-73 -203.5t73 -203t193 -77z" />
    <glyph glyph-name="uni1ED2" unicode="&#x1ed2;" horiz-adv-x="1685" 
d="M1479 1843h-262l-279 334h322zM848 1776l-135 -177h-256l239 332h301l240 -332h-254zM842 1460q214 0 385 -93t268.5 -263.5t97.5 -386.5q0 -162 -57 -301t-156.5 -236t-238.5 -152t-299 -55q-214 0 -385.5 94t-269 264t-97.5 386q0 162 57 300.5t156.5 235.5t239 152
t299.5 55zM842 260q196 0 319 127t123 330t-123 330t-319 127t-318.5 -127t-122.5 -330t122.5 -330t318.5 -127z" />
    <glyph glyph-name="uni1ED3" unicode="&#x1ed3;" horiz-adv-x="1284" 
d="M1272 1444h-262l-279 334h322zM641 1376l-135 -176h-256l239 332h302l239 -332h-254zM641 1061q243 0 400 -151.5t157 -391.5t-157 -392.5t-400 -152.5t-399 152.5t-156 392.5q0 239 156.5 391t398.5 152zM641 238q120 0 193 77t73 203q0 125 -73.5 203t-192.5 78
q-120 0 -193 -77.5t-73 -203.5t73 -203t193 -77z" />
    <glyph glyph-name="uni1ED4" unicode="&#x1ed4;" horiz-adv-x="1685" 
d="M1257 2126q-56 0 -100 -41l-123 92q87 119 256 119q114 0 181 -55.5t67 -151.5q0 -62 -30.5 -100.5t-102.5 -90.5q-6 -4 -16.5 -12t-14.5 -11t-11 -8.5t-9 -8t-6.5 -7t-5.5 -7.5t-2.5 -8t-2 -10t-0.5 -11l-174 -29q-1 31 -1.5 48t1.5 37.5t4 30t9 24t13 21t21.5 19.5
t28 21.5l37.5 25.5q32 23 42.5 35t10.5 29q0 23 -19.5 36t-52.5 13zM848 1776l-135 -177h-256l239 332h301l240 -332h-254zM842 1460q214 0 385 -93t268.5 -263.5t97.5 -386.5q0 -162 -57 -301t-156.5 -236t-238.5 -152t-299 -55q-214 0 -385.5 94t-269 264t-97.5 386
q0 162 57 300.5t156.5 235.5t239 152t299.5 55zM842 260q196 0 319 127t123 330t-123 330t-319 127t-318.5 -127t-122.5 -330t122.5 -330t318.5 -127z" />
    <glyph glyph-name="uni1ED5" unicode="&#x1ed5;" horiz-adv-x="1284" 
d="M1083 1896q115 0 181.5 -55t66.5 -151q0 -62 -30.5 -100.5t-102.5 -90.5q-52 -39 -59 -49q-9 -13 -9 -35l-174 -29q-1 31 -1.5 48.5t1.5 37.5t4 29.5t9 24t13 21.5t21 20t28 21.5t38 25.5q32 23 42.5 34.5t10.5 28.5q0 23 -19 36t-52 13q-58 0 -101 -40l-123 92
q86 118 256 118zM641 1376l-135 -176h-256l239 332h302l239 -332h-254zM641 1061q243 0 400 -151.5t157 -391.5t-157 -392.5t-400 -152.5t-399 152.5t-156 392.5q0 239 156.5 391t398.5 152zM641 238q120 0 193 77t73 203q0 125 -73.5 203t-192.5 78q-120 0 -193 -77.5
t-73 -203.5t73 -203t193 -77z" />
    <glyph glyph-name="uni1ED6" unicode="&#x1ed6;" horiz-adv-x="1685" 
d="M698 2107q-33 0 -50.5 -25.5t-29.5 -76.5l-157 61q26 128 83 191t138 63q69 0 166 -51l47 -24q65 -33 94 -33q58 0 76 110l164 -63q-23 -120 -80 -190t-152 -70q-67 0 -163 51l-48 27q-66 30 -88 30zM846 1774l-135 -175h-254l239 332h301l240 -332h-256zM842 1460
q214 0 385 -93t268.5 -263.5t97.5 -386.5q0 -162 -57 -301t-156.5 -236t-238.5 -152t-299 -55q-214 0 -385.5 94t-269 264t-97.5 386q0 162 57 300.5t156.5 235.5t239 152t299.5 55zM842 260q196 0 319 127t123 330t-123 330t-319 127t-318.5 -127t-122.5 -330t122.5 -330
t318.5 -127z" />
    <glyph glyph-name="uni1ED7" unicode="&#x1ed7;" horiz-adv-x="1284" 
d="M492 1708q-33 0 -50.5 -25.5t-29.5 -76.5l-158 61q26 128 83 191t138 63q69 0 166 -51l47 -25q65 -33 94 -33q58 0 76 111l164 -63q-23 -121 -79.5 -191t-151.5 -70q-66 0 -164 52l-47 26q-3 1 -21.5 10t-25 11.5t-19 6t-22.5 3.5zM639 1374l-135 -174h-254l239 332h302
l239 -332h-256zM641 1061q243 0 400 -151.5t157 -391.5t-157 -392.5t-400 -152.5t-399 152.5t-156 392.5q0 239 156.5 391t398.5 152zM641 238q120 0 193 77t73 203q0 125 -73.5 203t-192.5 78q-120 0 -193 -77.5t-73 -203.5t73 -203t193 -77z" />
    <glyph glyph-name="uni1ED8" unicode="&#x1ed8;" horiz-adv-x="1685" 
d="M848 1776l-135 -177h-256l239 332h301l240 -332h-254zM842 1460q214 0 385 -93t268.5 -263.5t97.5 -386.5q0 -162 -57 -301t-156.5 -236t-238.5 -152t-299 -55q-214 0 -385.5 94t-269 264t-97.5 386q0 162 57 300.5t156.5 235.5t239 152t299.5 55zM842 260q196 0 319 127
t123 330t-123 330t-319 127t-318.5 -127t-122.5 -330t122.5 -330t318.5 -127zM844 -141q69 0 119.5 -51t50.5 -121t-50.5 -120t-119.5 -50q-72 0 -122 49.5t-50 120.5t50 121.5t122 50.5z" />
    <glyph glyph-name="uni1ED9" unicode="&#x1ed9;" horiz-adv-x="1284" 
d="M641 1376l-135 -176h-256l239 332h302l239 -332h-254zM641 1061q243 0 400 -151.5t157 -391.5t-157 -392.5t-400 -152.5t-399 152.5t-156 392.5q0 239 156.5 391t398.5 152zM641 238q120 0 193 77t73 203q0 125 -73.5 203t-192.5 78q-120 0 -193 -77.5t-73 -203.5
t73 -203t193 -77zM641 -141q69 0 119.5 -51t50.5 -121t-50.5 -120t-119.5 -50q-72 0 -122 49.5t-50 120.5t50 121.5t122 50.5z" />
    <glyph glyph-name="uni1EDA" unicode="&#x1eda;" horiz-adv-x="1724" 
d="M1227 1931l-279 -332h-262l219 332h322zM1604 1520q0 -249 -162 -334q151 -197 151 -469q0 -162 -57 -301t-156.5 -236t-238.5 -152t-299 -55q-214 0 -385.5 94t-269 264t-97.5 386q0 162 57 300.5t156.5 235.5t239 152t299.5 55q173 0 321 -63q12 -2 33 -2q65 0 94 31
t29 100v157h285v-163zM842 260q196 0 319 127t123 330t-123 330t-319 127t-318.5 -127t-122.5 -330t122.5 -330t318.5 -127z" />
    <glyph glyph-name="uni1EDB" unicode="&#x1edb;" horiz-adv-x="1298" 
d="M1008 1532l-279 -332h-262l219 332h322zM1022 1288h285v-164q0 -255 -172 -340q63 -117 63 -266q0 -240 -157 -392.5t-400 -152.5t-399 152.5t-156 392.5q0 239 156.5 391t398.5 152q145 0 272 -62q57 3 83 35.5t26 98.5v155zM641 238q120 0 193 77t73 203
q0 125 -73.5 203t-192.5 78q-120 0 -193 -77.5t-73 -203.5t73 -203t193 -77z" />
    <glyph glyph-name="uni1EDC" unicode="&#x1edc;" horiz-adv-x="1724" 
d="M940 1599h-262l-279 332h320zM1604 1520q0 -249 -162 -334q151 -197 151 -469q0 -162 -57 -301t-156.5 -236t-238.5 -152t-299 -55q-214 0 -385.5 94t-269 264t-97.5 386q0 162 57 300.5t156.5 235.5t239 152t299.5 55q173 0 321 -63q12 -2 33 -2q65 0 94 31t29 100v157
h285v-163zM842 260q196 0 319 127t123 330t-123 330t-319 127t-318.5 -127t-122.5 -330t122.5 -330t318.5 -127z" />
    <glyph glyph-name="uni1EDD" unicode="&#x1edd;" horiz-adv-x="1298" 
d="M721 1200h-262l-279 332h320zM1022 1288h285v-164q0 -255 -172 -340q63 -117 63 -266q0 -240 -157 -392.5t-400 -152.5t-399 152.5t-156 392.5q0 239 156.5 391t398.5 152q145 0 272 -62q57 3 83 35.5t26 98.5v155zM641 238q120 0 193 77t73 203q0 125 -73.5 203
t-192.5 78q-120 0 -193 -77.5t-73 -203.5t73 -203t193 -77z" />
    <glyph glyph-name="uni1EDE" unicode="&#x1ede;" horiz-adv-x="1724" 
d="M786 1868q-61 0 -102 -41l-123 94q88 117 258 117q115 0 180.5 -54.5t65.5 -152.5q0 -61 -30 -99.5t-101 -91.5q-35 -25 -45 -33t-16.5 -20t-6.5 -31l-174 -28q-1 32 -2 49t1 37.5t3.5 30t9 24t13 20.5t21 19t27.5 21.5t38 25.5q33 23 44 35.5t11 28.5q0 23 -19.5 36
t-52.5 13zM1604 1520q0 -249 -162 -334q151 -197 151 -469q0 -162 -57 -301t-156.5 -236t-238.5 -152t-299 -55q-214 0 -385.5 94t-269 264t-97.5 386q0 162 57 300.5t156.5 235.5t239 152t299.5 55q173 0 321 -63q12 -2 33 -2q65 0 94 31t29 100v157h285v-163zM842 260
q196 0 319 127t123 330t-123 330t-319 127t-318.5 -127t-122.5 -330t122.5 -330t318.5 -127z" />
    <glyph glyph-name="uni1EDF" unicode="&#x1edf;" horiz-adv-x="1298" 
d="M567 1468q-61 0 -102 -41l-123 95q87 116 258 116q115 0 180.5 -54t65.5 -152q0 -61 -30 -99.5t-101 -91.5q-35 -25 -45 -33t-16.5 -20t-6.5 -31l-174 -29q-1 36 -1 55.5t0.5 40t6.5 32.5t11.5 24t21.5 24t29.5 22.5t42.5 29.5q33 24 44 35.5t11 27.5q0 23 -19.5 36
t-52.5 13zM1022 1288h285v-164q0 -255 -172 -340q63 -117 63 -266q0 -240 -157 -392.5t-400 -152.5t-399 152.5t-156 392.5q0 239 156.5 391t398.5 152q145 0 272 -62q57 3 83 35.5t26 98.5v155zM641 238q120 0 193 77t73 203q0 125 -73.5 203t-192.5 78q-120 0 -193 -77.5
t-73 -203.5t73 -203t193 -77z" />
    <glyph glyph-name="uni1EE0" unicode="&#x1ee0;" horiz-adv-x="1724" 
d="M668 1702q-33 0 -50.5 -26t-29.5 -77l-158 64q51 252 221 252q69 0 166 -51l47 -25q65 -33 92 -33q32 0 50 29t28 82l164 -64q-23 -119 -80.5 -189.5t-150.5 -70.5q-66 0 -164 52l-47 26q-60 31 -88 31zM1604 1520q0 -249 -162 -334q151 -197 151 -469q0 -162 -57 -301
t-156.5 -236t-238.5 -152t-299 -55q-214 0 -385.5 94t-269 264t-97.5 386q0 162 57 300.5t156.5 235.5t239 152t299.5 55q173 0 321 -63q12 -2 33 -2q65 0 94 31t29 100v157h285v-163zM842 260q196 0 319 127t123 330t-123 330t-319 127t-318.5 -127t-122.5 -330t122.5 -330
t318.5 -127z" />
    <glyph glyph-name="uni1EE1" unicode="&#x1ee1;" horiz-adv-x="1298" 
d="M449 1303q-33 0 -50.5 -26t-29.5 -77l-158 64q51 252 221 252q67 0 166 -52l47 -24q65 -33 92 -33q32 0 50 29t28 82l164 -64q-23 -119 -80.5 -189.5t-150.5 -70.5q-68 0 -164 51l-47 27q-60 31 -88 31zM1022 1288h285v-164q0 -255 -172 -340q63 -117 63 -266
q0 -240 -157 -392.5t-400 -152.5t-399 152.5t-156 392.5q0 239 156.5 391t398.5 152q145 0 272 -62q57 3 83 35.5t26 98.5v155zM641 238q120 0 193 77t73 203q0 125 -73.5 203t-192.5 78q-120 0 -193 -77.5t-73 -203.5t73 -203t193 -77z" />
    <glyph glyph-name="uni1EE2" unicode="&#x1ee2;" horiz-adv-x="1724" 
d="M1604 1520q0 -249 -162 -334q151 -197 151 -469q0 -162 -57 -301t-156.5 -236t-238.5 -152t-299 -55q-214 0 -385.5 94t-269 264t-97.5 386q0 162 57 300.5t156.5 235.5t239 152t299.5 55q173 0 321 -63q12 -2 33 -2q65 0 94 31t29 100v157h285v-163zM842 260
q196 0 319 127t123 330t-123 330t-319 127t-318.5 -127t-122.5 -330t122.5 -330t318.5 -127zM844 -141q69 0 119.5 -51t50.5 -121t-50.5 -120t-119.5 -50q-72 0 -122 49.5t-50 120.5t50 121.5t122 50.5z" />
    <glyph glyph-name="uni1EE3" unicode="&#x1ee3;" horiz-adv-x="1298" 
d="M1022 1288h285v-164q0 -255 -172 -340q63 -117 63 -266q0 -240 -157 -392.5t-400 -152.5t-399 152.5t-156 392.5q0 239 156.5 391t398.5 152q145 0 272 -62q57 3 83 35.5t26 98.5v155zM641 238q120 0 193 77t73 203q0 125 -73.5 203t-192.5 78q-120 0 -193 -77.5
t-73 -203.5t73 -203t193 -77zM641 -141q69 0 119.5 -51t50.5 -121t-50.5 -120t-119.5 -50q-72 0 -122 49.5t-50 120.5t50 121.5t122 50.5z" />
    <glyph glyph-name="uni1EE4" unicode="&#x1ee4;" horiz-adv-x="1521" 
d="M760 -27q-138 0 -243.5 33t-174 91t-111.5 145t-61 186.5t-18 224.5v781h301v-783q0 -212 70 -301.5t237 -89.5q168 0 238.5 89t70.5 302v783h303v-781q0 -123 -17 -221.5t-60 -186t-111.5 -146t-175.5 -92.5t-248 -34zM760 -483q-72 0 -122 49.5t-50 120.5t50 121.5
t122 50.5q69 0 119.5 -51t50.5 -121t-50.5 -120t-119.5 -50z" />
    <glyph glyph-name="uni1EE5" unicode="&#x1ee5;" horiz-adv-x="1196" 
d="M799 1034h282v-1034h-256l-12 125q-52 -72 -131.5 -112t-177.5 -40q-167 0 -278 110t-111 288v663h282v-610q0 -88 55 -138t136 -50q84 0 147.5 54t63.5 146v598zM594 -141q69 0 119.5 -51t50.5 -121t-50.5 -120t-119.5 -50q-72 0 -122 49.5t-50 120.5t50 121.5t122 50.5
z" />
    <glyph glyph-name="uni1EE6" unicode="&#x1ee6;" horiz-adv-x="1521" 
d="M637 1528q-1 32 -2 49t1 37.5t3.5 30t9 24t13 20.5t21 19t27.5 21.5t38 25.5q33 23 44 35.5t11 28.5q0 23 -19.5 36t-52.5 13q-61 0 -102 -41l-123 94q88 117 258 117q115 0 180.5 -54.5t65.5 -152.5q0 -61 -30 -99.5t-101 -91.5q-35 -25 -45 -33t-16.5 -20t-6.5 -31z
M760 -27q-138 0 -243.5 33t-174 91t-111.5 145t-61 186.5t-18 224.5v781h301v-783q0 -212 70 -301.5t237 -89.5q168 0 238.5 89t70.5 302v783h303v-781q0 -123 -17 -221.5t-60 -186t-111.5 -146t-175.5 -92.5t-248 -34z" />
    <glyph glyph-name="uni1EE7" unicode="&#x1ee7;" horiz-adv-x="1196" 
d="M565 1468q-61 0 -102 -41l-123 95q87 116 258 116q115 0 180.5 -54t65.5 -152q0 -61 -30 -99.5t-101 -91.5q-35 -25 -45 -33t-16.5 -20t-6.5 -31l-174 -29q-1 36 -1 55.5t0.5 40t6.5 32.5t11.5 24t21.5 24t29.5 22.5t42.5 29.5q33 24 44 35.5t11 27.5q0 23 -19.5 36
t-52.5 13zM799 1034h282v-1034h-256l-12 125q-52 -72 -131.5 -112t-177.5 -40q-167 0 -278 110t-111 288v663h282v-610q0 -88 55 -138t136 -50q84 0 147.5 54t63.5 146v598z" />
    <glyph glyph-name="uni1EE8" unicode="&#x1ee8;" horiz-adv-x="1536" 
d="M1171 1931l-278 -332h-262l219 332h321zM1413 1722h285v-163q0 -350 -326 -377v-529q0 -123 -17 -221.5t-60 -186t-111.5 -146t-175.5 -92.5t-248 -34q-138 0 -243.5 33t-174 91t-111.5 145t-61 186.5t-18 224.5v781h301v-783q0 -212 70 -301.5t237 -89.5q168 0 238.5 89
t70.5 302v783h172h49q63 0 93 32t30 101v155z" />
    <glyph glyph-name="uni1EE9" unicode="&#x1ee9;" horiz-adv-x="1196" 
d="M1006 1532l-279 -332h-262l219 332h322zM1065 1325h285v-164q0 -157 -68 -252t-201 -121v-788h-256l-12 125q-52 -72 -131.5 -112t-177.5 -40q-167 0 -278 110t-111 288v663h282v-610q0 -88 55 -138t136 -50q85 2 148 55.5t63 144.5v598h96h47q64 0 93.5 32t29.5 101v158
z" />
    <glyph glyph-name="uni1EEA" unicode="&#x1eea;" horiz-adv-x="1536" 
d="M885 1599h-262l-279 332h320zM1413 1722h285v-163q0 -350 -326 -377v-529q0 -123 -17 -221.5t-60 -186t-111.5 -146t-175.5 -92.5t-248 -34q-138 0 -243.5 33t-174 91t-111.5 145t-61 186.5t-18 224.5v781h301v-783q0 -212 70 -301.5t237 -89.5q168 0 238.5 89t70.5 302
v783h172h49q63 0 93 32t30 101v155z" />
    <glyph glyph-name="uni1EEB" unicode="&#x1eeb;" horiz-adv-x="1196" 
d="M719 1200h-262l-279 332h320zM1065 1325h285v-164q0 -157 -68 -252t-201 -121v-788h-256l-12 125q-52 -72 -131.5 -112t-177.5 -40q-167 0 -278 110t-111 288v663h282v-610q0 -88 55 -138t136 -50q85 2 148 55.5t63 144.5v598h96h47q64 0 93.5 32t29.5 101v158z" />
    <glyph glyph-name="uni1EEC" unicode="&#x1eec;" horiz-adv-x="1536" 
d="M731 1868q-61 0 -102 -41l-123 94q88 117 258 117q115 0 180.5 -54.5t65.5 -152.5q0 -61 -30 -99.5t-101 -91.5q-35 -25 -45 -33t-16.5 -20t-6.5 -31l-174 -28q-1 32 -2 49t1 37.5t3.5 30t9 24t13 20.5t21 19t27.5 21.5t38 25.5q33 23 44 35.5t11 28.5q0 23 -19.5 36
t-52.5 13zM1413 1722h285v-163q0 -350 -326 -377v-529q0 -123 -17 -221.5t-60 -186t-111.5 -146t-175.5 -92.5t-248 -34q-138 0 -243.5 33t-174 91t-111.5 145t-61 186.5t-18 224.5v781h301v-783q0 -212 70 -301.5t237 -89.5q168 0 238.5 89t70.5 302v783h172h49q63 0 93 32
t30 101v155z" />
    <glyph glyph-name="uni1EED" unicode="&#x1eed;" horiz-adv-x="1196" 
d="M565 1468q-61 0 -102 -41l-123 95q87 116 258 116q115 0 180.5 -54t65.5 -152q0 -61 -30 -99.5t-101 -91.5q-35 -25 -45 -33t-16.5 -20t-6.5 -31l-174 -29q-1 36 -1 55.5t0.5 40t6.5 32.5t11.5 24t21.5 24t29.5 22.5t42.5 29.5q33 24 44 35.5t11 27.5q0 23 -19.5 36
t-52.5 13zM1065 1325h285v-164q0 -157 -68 -252t-201 -121v-788h-256l-12 125q-52 -72 -131.5 -112t-177.5 -40q-167 0 -278 110t-111 288v663h282v-610q0 -88 55 -138t136 -50q85 2 148 55.5t63 144.5v598h96h47q64 0 93.5 32t29.5 101v158z" />
    <glyph glyph-name="uni1EEE" unicode="&#x1eee;" horiz-adv-x="1536" 
d="M612 1702q-33 0 -50.5 -26t-29.5 -77l-157 64q51 252 221 252q69 0 166 -51l47 -25q65 -33 92 -33q32 0 50 29t28 82l164 -64q-23 -118 -81 -189t-151 -71q-65 0 -163 52l-48 26q-60 31 -88 31zM1413 1722h285v-163q0 -350 -326 -377v-529q0 -123 -17 -221.5t-60 -186
t-111.5 -146t-175.5 -92.5t-248 -34q-138 0 -243.5 33t-174 91t-111.5 145t-61 186.5t-18 224.5v781h301v-783q0 -212 70 -301.5t237 -89.5q168 0 238.5 89t70.5 302v783h172h49q63 0 93 32t30 101v155z" />
    <glyph glyph-name="uni1EEF" unicode="&#x1eef;" horiz-adv-x="1196" 
d="M446 1303q-33 0 -50 -26t-29 -77l-158 64q51 252 221 252q67 0 166 -52l47 -24q65 -33 92 -33q32 0 50 29t28 82l164 -64q-23 -118 -81 -189t-151 -71q-67 0 -163 51l-47 27q-60 31 -89 31zM1065 1325h285v-164q0 -157 -68 -252t-201 -121v-788h-256l-12 125
q-52 -72 -131.5 -112t-177.5 -40q-167 0 -278 110t-111 288v663h282v-610q0 -88 55 -138t136 -50q85 2 148 55.5t63 144.5v598h96h47q64 0 93.5 32t29.5 101v158z" />
    <glyph glyph-name="uni1EF0" unicode="&#x1ef0;" horiz-adv-x="1536" 
d="M1413 1722h285v-163q0 -350 -326 -377v-529q0 -123 -17 -221.5t-60 -186t-111.5 -146t-175.5 -92.5t-248 -34q-138 0 -243.5 33t-174 91t-111.5 145t-61 186.5t-18 224.5v781h301v-783q0 -212 70 -301.5t237 -89.5q168 0 238.5 89t70.5 302v783h172h49q63 0 93 32t30 101
v155zM760 -141q69 0 119.5 -51t50.5 -121t-50.5 -120t-119.5 -50q-72 0 -122 49.5t-50 120.5t50 121.5t122 50.5z" />
    <glyph glyph-name="uni1EF1" unicode="&#x1ef1;" horiz-adv-x="1196" 
d="M1065 1325h285v-164q0 -157 -68 -252t-201 -121v-788h-256l-12 125q-52 -72 -131.5 -112t-177.5 -40q-167 0 -278 110t-111 288v663h282v-610q0 -88 55 -138t136 -50q85 2 148 55.5t63 144.5v598h96h47q64 0 93.5 32t29.5 101v158zM594 -131q69 0 119.5 -51t50.5 -121
t-50.5 -120t-119.5 -50q-72 0 -122 49.5t-50 120.5t50 121.5t122 50.5z" />
    <glyph glyph-name="Ygrave" unicode="&#x1ef2;" horiz-adv-x="1507" 
d="M874 1599h-262l-278 332h319zM1456 1434l-553 -869v-565h-297v561l-555 873h357l346 -594l346 594h356z" />
    <glyph glyph-name="ygrave" unicode="&#x1ef3;" horiz-adv-x="1189" 
d="M723 1200h-262l-279 332h320zM854 1034h305l-573 -1444h-264l151 410l-442 1034h303l272 -674z" />
    <glyph glyph-name="uni1EF4" unicode="&#x1ef4;" horiz-adv-x="1507" 
d="M606 0v561l-555 873h357l346 -594l346 594h356l-553 -869v-565h-297zM752 -141q69 0 119.5 -51t50.5 -121t-50.5 -120t-119.5 -50q-72 0 -122 49.5t-50 120.5t50 121.5t122 50.5z" />
    <glyph glyph-name="uni1EF5" unicode="&#x1ef5;" horiz-adv-x="1189" 
d="M854 1034h305l-573 -1444h-264l151 410l-442 1034h303l272 -674zM1034 -141q70 0 120 -50.5t50 -121.5t-50 -120.5t-120 -49.5t-120 49.5t-50 120.5t50 121.5t120 50.5z" />
    <glyph glyph-name="uni1EF6" unicode="&#x1ef6;" horiz-adv-x="1507" 
d="M721 1868q-62 0 -103 -41l-122 94q88 117 258 117q115 0 180 -54.5t65 -152.5q0 -61 -30 -99.5t-101 -91.5q-46 -33 -56.5 -45.5t-10.5 -38.5l-174 -28q-2 43 -2.5 63t4 44t8.5 33t20.5 26.5t31 27.5t48.5 33q34 24 45 36t11 28q0 23 -19.5 36t-52.5 13zM1456 1434
l-553 -869v-565h-297v561l-555 873h357l346 -594l346 594h356z" />
    <glyph glyph-name="uni1EF7" unicode="&#x1ef7;" horiz-adv-x="1189" 
d="M569 1468q-61 0 -102 -41l-123 95q87 116 258 116q115 0 180.5 -54t65.5 -152q0 -61 -30 -99.5t-101 -91.5q-35 -25 -45 -33t-16.5 -20t-6.5 -31l-174 -29q-1 36 -1 55.5t0.5 40t6.5 32.5t11.5 24t21.5 24t29.5 22.5t42.5 29.5q33 24 44 35.5t11 27.5q0 23 -19.5 36
t-52.5 13zM854 1034h305l-573 -1444h-264l151 410l-442 1034h303l272 -674z" />
    <glyph glyph-name="uni1EF8" unicode="&#x1ef8;" horiz-adv-x="1507" 
d="M602 1702q-33 0 -50.5 -26t-29.5 -77l-157 64q51 252 221 252q69 0 166 -51l47 -25q65 -33 92 -33q32 0 50 29t28 82l164 -64q-23 -118 -81 -189t-151 -71q-66 0 -164 52l-47 26q-60 31 -88 31zM1456 1434l-553 -869v-565h-297v561l-555 873h357l346 -594l346 594h356z
" />
    <glyph glyph-name="uni1EF9" unicode="&#x1ef9;" horiz-adv-x="1189" 
d="M451 1303q-33 0 -50.5 -26t-29.5 -77l-158 64q51 252 221 252q67 0 166 -52l47 -24q65 -33 92 -33q32 0 50 29t28 82l164 -64q-23 -119 -80.5 -189.5t-150.5 -70.5q-68 0 -164 51l-47 27q-60 31 -88 31zM854 1034h305l-573 -1444h-264l151 410l-442 1034h303l272 -674z
" />
    <glyph glyph-name="uni2009" unicode="&#x2009;" horiz-adv-x="204" 
 />
    <glyph glyph-name="endash" unicode="&#x2013;" horiz-adv-x="1177" 
d="M92 700h995v-254h-995v254z" />
    <glyph glyph-name="emdash" unicode="&#x2014;" horiz-adv-x="1824" 
d="M92 700h1641v-254h-1641v254z" />
    <glyph glyph-name="quoteleft" unicode="&#x2018;" horiz-adv-x="589" 
d="M125 836l149 649h234l-82 -649h-301z" />
    <glyph glyph-name="quoteright" unicode="&#x2019;" horiz-adv-x="589" 
d="M84 836l82 649h299l-148 -649h-233z" />
    <glyph glyph-name="quotesinglbase" unicode="&#x201a;" horiz-adv-x="589" 
d="M84 -322l82 650h299l-148 -650h-233z" />
    <glyph glyph-name="quotedblleft" unicode="&#x201c;" horiz-adv-x="1050" 
d="M125 836l149 649h234l-82 -649h-301zM586 836l149 649h232l-80 -649h-301z" />
    <glyph glyph-name="quotedblright" unicode="&#x201d;" horiz-adv-x="1050" 
d="M84 836l82 649h299l-148 -649h-233zM545 836l82 649h299l-150 -649h-231z" />
    <glyph glyph-name="quotedblbase" unicode="&#x201e;" horiz-adv-x="1050" 
d="M84 -322l82 650h299l-148 -650h-233zM545 -322l82 650h299l-150 -650h-231z" />
    <glyph glyph-name="dagger" unicode="&#x2020;" horiz-adv-x="1202" 
d="M1118 985v-276h-368v-1119h-299v1119h-367v276h367v475h299v-475h368z" />
    <glyph glyph-name="daggerdbl" unicode="&#x2021;" horiz-adv-x="1196" 
d="M1118 709h-368v-367h368v-276h-368v-476h-299v476h-367v276h367v367h-367v276h367v475h299v-475h368v-276z" />
    <glyph glyph-name="bullet" unicode="&#x2022;" horiz-adv-x="888" 
d="M444 244q-132 0 -225.5 93.5t-93.5 225.5q0 133 93.5 226.5t225.5 93.5t226 -93.5t94 -226.5q0 -132 -94 -225.5t-226 -93.5z" />
    <glyph glyph-name="uni2023" unicode="&#x2023;" horiz-adv-x="888" 
d="M125 883l639 -320l-639 -319v639z" />
    <glyph glyph-name="ellipsis" unicode="&#x2026;" horiz-adv-x="1595" 
d="M285 -27q-73 0 -126 52.5t-53 126.5t52 125t127 51q73 0 124.5 -51t51.5 -125t-51.5 -126.5t-124.5 -52.5zM797 -27q-72 0 -124 53t-52 126q0 74 50.5 125t125.5 51q74 0 126 -51.5t52 -124.5q0 -74 -52.5 -126.5t-125.5 -52.5zM1311 -27q-73 0 -125.5 52.5t-52.5 126.5
t51.5 125t126.5 51q74 0 126 -51.5t52 -124.5q0 -74 -52.5 -126.5t-125.5 -52.5z" />
    <glyph glyph-name="perthousand" unicode="&#x2030;" horiz-adv-x="2842" 
d="M369 -27l929 1487h289l-932 -1487h-286zM463 676q-173 0 -285 108t-112 277t112 277t285 108t285 -107t112 -278q0 -169 -112 -277t-285 -108zM463 883q77 0 123.5 48.5t46.5 129.5t-46.5 129.5t-123.5 48.5q-78 0 -124 -47t-46 -131q0 -82 46 -130t124 -48zM1497 -12
q-172 0 -283.5 107.5t-111.5 277.5t111.5 277.5t283.5 107.5q173 0 285 -108t112 -277q0 -171 -112 -278t-285 -107zM2380 -12q-173 0 -285.5 108t-112.5 277t112.5 277t285.5 108t285 -108t112 -277q0 -171 -112 -278t-285 -107zM1497 195q78 0 124 48t46 130
q0 81 -46.5 129.5t-123.5 48.5t-122.5 -47.5t-45.5 -130.5q0 -82 45.5 -130t122.5 -48zM2380 195q77 0 123.5 48.5t46.5 129.5t-46.5 129.5t-123.5 48.5t-123.5 -47.5t-46.5 -130.5q0 -82 46 -130t124 -48z" />
    <glyph glyph-name="guilsinglleft" unicode="&#x2039;" horiz-adv-x="743" 
d="M692 973l-340 -404l340 -403h-303l-338 403l338 404h303z" />
    <glyph glyph-name="guilsinglright" unicode="&#x203a;" horiz-adv-x="743" 
d="M354 973l338 -404l-338 -403h-303l340 403l-340 404h303z" />
    <glyph glyph-name="uni2043" unicode="&#x2043;" horiz-adv-x="1007" 
d="M131 782h746v-417h-746v417z" />
    <glyph glyph-name="fraction" unicode="&#x2044;" horiz-adv-x="1312" 
d="M66 -27l929 1487h252l-930 -1487h-251z" />
    <glyph glyph-name="uni2056" unicode="&#x2056;" horiz-adv-x="1150" 
d="M807 944q-71 0 -121.5 50t-50.5 120t50.5 121t121.5 51t121.5 -51t50.5 -121t-50.5 -120t-121.5 -50zM262 399q-70 0 -120 50.5t-50 121.5q0 72 49.5 122t120.5 50t121.5 -50t50.5 -122q0 -71 -51 -121.5t-121 -50.5zM807 -139q-71 0 -121.5 50t-50.5 120
q0 71 50.5 121.5t121.5 50.5t121.5 -50.5t50.5 -121.5q0 -70 -50.5 -120t-121.5 -50z" />
    <glyph glyph-name="Euro" unicode="&#x20ac;" horiz-adv-x="1505" 
d="M1194 387l221 -203q-93 -99 -223 -155t-283 -56q-238 0 -417 130.5t-250 351.5h-170v196h133q-2 20 -2 66q0 44 2 67h-133v197h172q71 220 250 349.5t415 129.5q299 0 494 -205l-207 -217q-119 136 -289 136q-108 0 -192.5 -51t-136.5 -142h471v-197h-531q-4 -46 -4 -67
q0 -26 4 -66h531v-196h-471q50 -92 136 -142.5t195 -50.5q170 0 285 125z" />
    <glyph glyph-name="uni2116" unicode="&#x2116;" horiz-adv-x="2463" 
d="M1987 696q-169 0 -278.5 106t-109.5 271q0 161 109.5 267t278.5 106q168 0 277.5 -104.5t109.5 -268.5q0 -165 -109.5 -271t-277.5 -106zM1090 528v906h294v-1434h-266l-667 909v-909h-295v1434h266zM1987 1233q-70 0 -113 -44t-43 -116q0 -74 43 -119t113 -45
q69 0 111 45t42 119q0 72 -42 116t-111 44zM1599 377v219h775v-219h-775z" />
    <glyph glyph-name="uni2117" unicode="&#x2117;" horiz-adv-x="1798" 
d="M899 1460q219 0 394 -93.5t274.5 -263.5t99.5 -386t-99.5 -386t-274.5 -264t-394 -94t-394 94t-274.5 264t-99.5 386t99.5 386t274.5 263.5t394 93.5zM899 164q243 0 398 154t155 399t-155 399t-398 154t-399 -154t-156 -399t155.5 -399t399.5 -154zM961 1106
q138 0 223.5 -76.5t85.5 -200.5t-85.5 -200t-223.5 -76h-125v-229h-207v782h332zM952 737q103 0 103 92q0 95 -103 95h-116v-187h116z" />
    <glyph glyph-name="uni2120" unicode="&#x2120;" horiz-adv-x="1789" 
d="M428 1133q124 -24 179 -51q122 -60 122 -183q0 -111 -88 -177.5t-229 -64.5q-97 0 -191.5 33t-142.5 70l80 139q51 -40 124 -65t136 -25q59 0 92 21.5t33 60.5q0 35 -30 49.5t-107 30.5q-175 38 -240.5 83.5t-65.5 141.5q0 128 92.5 190t233.5 62q158 0 283 -80l-80 -139
q-101 65 -213 65q-131 0 -131 -82q0 -33 29.5 -49t113.5 -30zM1700 1434v-762h-170v518l-162 -436h-186l-162 436v-518h-168v762h242l182 -504l182 504h242z" />
    <glyph glyph-name="trademark" unicode="&#x2122;" horiz-adv-x="1722" 
d="M690 1434v-154h-237v-608h-172v608h-238v154h647zM1630 1434v-762h-168v522l-162 -440h-186l-162 436v-518h-168v762h240l182 -502l183 502h241z" />
    <glyph glyph-name="estimated" unicode="&#x212e;" horiz-adv-x="1357" 
d="M680 1237q225 0 369.5 -145.5t144.5 -374.5v-31h-836v-215q0 -84 60 -129q105 -82 262 -82q123 0 220 54t153 149l61 -43q-68 -106 -180.5 -164.5t-253.5 -58.5q-228 0 -372 145t-144 375q0 229 146 374.5t370 145.5zM358 748h641v215q0 87 -59 129q-108 82 -260 82
q-153 0 -264 -84q-58 -44 -58 -129v-213z" />
    <glyph glyph-name="uni2150" unicode="&#x2150;" horiz-adv-x="1757" 
d="M1128 1460h252l-929 -1487h-252zM219 604v567l-188 -73v192l344 144h53v-830h-209zM1126 829h607v-157l-328 -672h-238l322 637h-363v192z" />
    <glyph glyph-name="uni2152" unicode="&#x2152;" horiz-adv-x="2480" 
d="M1128 1460h252l-929 -1487h-252zM219 604v567l-188 -73v192l344 144h53v-830h-209zM2044 844q165 0 273 -120.5t108 -309.5q0 -188 -108 -309t-273 -121q-164 0 -271.5 120.5t-107.5 309.5q0 190 107.5 310t271.5 120zM1116 686l344 143h53v-829h-208v567l-189 -73v192z
M2044 186q71 0 117.5 63t46.5 165q0 104 -46 166.5t-118 62.5q-70 0 -115 -63t-45 -166q0 -102 45 -165t115 -63z" />
    <glyph glyph-name="uni2153" unicode="&#x2153;" horiz-adv-x="1759" 
d="M1128 1460h252l-929 -1487h-252zM219 604v567l-188 -73v192l344 144h53v-830h-209zM1573 422q62 -28 96.5 -77.5t34.5 -113.5q0 -108 -94 -177.5t-244 -69.5q-103 0 -180 34.5t-119 90.5l121 127q67 -78 172 -78q62 0 94.5 25t32.5 65q0 41 -31.5 66.5t-89.5 25.5h-115
v164h109q49 0 77.5 21.5t28.5 62.5q0 35 -27 57.5t-83 22.5q-104 0 -162 -74l-119 117q87 133 287 133q141 0 229 -67.5t88 -174.5q0 -119 -106 -180z" />
    <glyph glyph-name="uni2154" unicode="&#x2154;" horiz-adv-x="1964" 
d="M1333 1460h252l-930 -1487h-252zM70 604v160l8 8l274 275q35 37 50.5 61t15.5 53q0 42 -25 67t-71 25q-43 0 -85 -24t-69 -66l-127 125q45 76 125.5 118t175.5 42q128 0 210.5 -74.5t82.5 -202.5q0 -71 -31.5 -129.5t-111.5 -138.5l-103 -104h262v-195h-581zM1778 422
q62 -28 96.5 -77.5t34.5 -113.5q0 -108 -94 -177.5t-244 -69.5q-103 0 -180 34.5t-119 90.5l121 127q67 -78 172 -78q62 0 94.5 25t32.5 65q0 41 -31.5 66.5t-89.5 25.5h-115v164h109q49 0 77.5 21.5t28.5 62.5q0 35 -27 57.5t-83 22.5q-104 0 -162 -74l-119 117
q87 133 287 133q141 0 229 -67.5t88 -174.5q0 -119 -106 -180z" />
    <glyph glyph-name="uni2155" unicode="&#x2155;" horiz-adv-x="1746" 
d="M1128 1460h252l-929 -1487h-252zM219 604v567l-188 -73v192l344 144h53v-830h-209zM1352 530q149 0 241.5 -75t92.5 -197q0 -123 -93 -198.5t-241 -75.5q-101 0 -180 37.5t-121 97.5l110 135q63 -90 185 -90q60 0 91 26t31 70q0 45 -30.5 71.5t-87.5 26.5q-62 0 -109 -26
l-119 127l19 370h495v-186h-299l-6 -113h21z" />
    <glyph glyph-name="uni2156" unicode="&#x2156;" horiz-adv-x="1951" 
d="M1333 1460h252l-930 -1487h-252zM70 604v160l8 8l274 275q35 37 50.5 61t15.5 53q0 42 -25 67t-71 25q-43 0 -85 -24t-69 -66l-127 125q45 76 125.5 118t175.5 42q128 0 210.5 -74.5t82.5 -202.5q0 -71 -31.5 -129.5t-111.5 -138.5l-103 -104h262v-195h-581zM1556 530
q149 0 241.5 -75t92.5 -197q0 -123 -93 -198.5t-241 -75.5q-101 0 -180 37.5t-121 97.5l111 135q63 -90 184 -90q60 0 91.5 26t31.5 70q0 45 -31 71.5t-88 26.5q-61 0 -108 -26l-119 127l19 370h495v-186h-299l-6 -113h20z" />
    <glyph glyph-name="uni2157" unicode="&#x2157;" horiz-adv-x="1886" 
d="M1268 1460h252l-930 -1487h-252zM678 836q0 -108 -94 -178t-244 -70q-103 0 -180 34.5t-119 90.5l121 127q67 -78 172 -78q62 0 94.5 25t32.5 65q0 41 -31.5 66.5t-89.5 25.5h-115v164h109q49 0 77.5 21.5t28.5 62.5q0 35 -27 57.5t-83 22.5q-104 0 -162 -74l-119 117
q87 133 287 133q141 0 229 -67.5t88 -174.5q0 -119 -106 -180q62 -28 96.5 -77t34.5 -113zM1491 530q149 0 241.5 -75t92.5 -197q0 -123 -93 -198.5t-241 -75.5q-101 0 -180 37.5t-121 97.5l110 135q63 -90 185 -90q60 0 91.5 26t31.5 70q0 45 -31 71.5t-88 26.5
q-62 0 -109 -26l-118 127l18 370h496v-186h-299l-7 -113h21z" />
    <glyph glyph-name="uni2158" unicode="&#x2158;" horiz-adv-x="1968" 
d="M1350 1460h252l-930 -1487h-252zM436 604v133h-393v162l223 535h221l-213 -502h162v172h193v-172h98v-195h-98v-133h-193zM1573 530q149 0 241.5 -75t92.5 -197q0 -123 -93 -198.5t-241 -75.5q-101 0 -180 37.5t-121 97.5l110 135q63 -90 185 -90q60 0 91.5 26t31.5 70
q0 45 -31 71.5t-88 26.5q-62 0 -109 -26l-119 127l19 370h496v-186h-299l-7 -113h21z" />
    <glyph glyph-name="uni2159" unicode="&#x2159;" horiz-adv-x="1622" 
d="M1128 1460h252l-929 -1487h-252zM219 604v567l-188 -73v192l344 144h53v-830h-209zM1278 553q134 0 215.5 -77t81.5 -200q0 -131 -92 -211.5t-236 -80.5q-142 0 -234.5 80.5t-92.5 205.5q0 88 55 166l260 393h223l-182 -276h2zM1247 164q55 0 86 29t31 79t-30 78.5
t-85 28.5t-87 -30.5t-32 -78.5t31 -77t86 -29z" />
    <glyph glyph-name="uni215A" unicode="&#x215a;" horiz-adv-x="1769" 
d="M1276 1460h252l-930 -1487h-252zM690 862q0 -123 -93 -198.5t-241 -75.5q-101 0 -180 37.5t-121 97.5l111 135q63 -90 184 -90q60 0 91.5 26t31.5 70q0 45 -31 72t-88 27q-59 0 -108 -27l-119 127l18 371h496v-187h-299l-6 -112h20q148 0 241 -75.5t93 -197.5zM1425 553
q134 0 215.5 -77t81.5 -200q0 -131 -91.5 -211.5t-235.5 -80.5q-143 0 -235.5 81t-92.5 205q0 88 55 166l260 393h224l-183 -276h2zM1395 164q55 0 85.5 29t30.5 79t-29.5 78.5t-84.5 28.5t-87 -30.5t-32 -78.5t31 -77t86 -29z" />
    <glyph glyph-name="oneeighth" unicode="&#x215b;" horiz-adv-x="1769" 
d="M1128 1460h252l-929 -1487h-252zM219 604v567l-188 -73v192l344 144h53v-830h-209zM1583 422q131 -56 131 -189q0 -110 -94.5 -179.5t-243.5 -69.5q-152 0 -247 70.5t-95 181.5q0 128 131 186q-108 55 -108 180q0 109 88 175.5t227 66.5q143 0 231.5 -66.5t88.5 -177.5
q0 -122 -109 -178zM1374 670q-50 0 -76 -23t-26 -59q0 -78 102 -78q49 0 77 19.5t28 58.5q0 36 -26.5 59t-78.5 23zM1376 158q56 0 88.5 25.5t32.5 64.5q0 40 -32.5 65t-88.5 25q-59 0 -92 -24.5t-33 -65.5q0 -39 34.5 -64.5t90.5 -25.5z" />
    <glyph glyph-name="threeeighths" unicode="&#x215c;" horiz-adv-x="1908" 
d="M1268 1460h252l-930 -1487h-252zM678 836q0 -108 -94 -178t-244 -70q-103 0 -180 34.5t-119 90.5l121 127q67 -78 172 -78q62 0 94.5 25t32.5 65q0 41 -31.5 66.5t-89.5 25.5h-115v164h109q49 0 77.5 21.5t28.5 62.5q0 35 -27 57.5t-83 22.5q-104 0 -162 -74l-119 117
q87 133 287 133q141 0 229 -67.5t88 -174.5q0 -119 -106 -180q62 -28 96.5 -77t34.5 -113zM1722 422q131 -56 131 -189q0 -110 -94 -179.5t-243 -69.5q-152 0 -247 70.5t-95 181.5q0 128 131 186q-109 56 -109 180q0 109 88 175.5t227 66.5q143 0 231.5 -66.5t88.5 -177.5
q0 -122 -109 -178zM1513 670q-50 0 -76 -23t-26 -59q0 -78 102 -78q49 0 77 19.5t28 58.5q0 36 -26.5 59t-78.5 23zM1516 158q56 0 88 25.5t32 64.5q0 40 -32 65t-88 25q-59 0 -92 -24.5t-33 -65.5q0 -39 34.5 -64.5t90.5 -25.5z" />
    <glyph glyph-name="fiveeighths" unicode="&#x215d;" horiz-adv-x="1916" 
d="M1276 1460h252l-930 -1487h-252zM690 862q0 -123 -93 -198.5t-241 -75.5q-101 0 -180 37.5t-121 97.5l111 135q63 -90 184 -90q60 0 91.5 26t31.5 70q0 45 -31 72t-88 27q-59 0 -108 -27l-119 127l18 371h496v-187h-299l-6 -112h20q148 0 241 -75.5t93 -197.5zM1731 422
q131 -56 131 -189q0 -110 -94.5 -179.5t-243.5 -69.5q-152 0 -247 70.5t-95 181.5q0 128 131 186q-109 56 -109 180q0 109 88.5 175.5t227.5 66.5q142 0 230.5 -66.5t88.5 -177.5q0 -122 -108 -178zM1522 670q-50 0 -76.5 -23t-26.5 -59q0 -78 103 -78q49 0 76.5 19.5
t27.5 58.5q0 36 -26.5 59t-77.5 23zM1524 158q56 0 88.5 25.5t32.5 64.5q0 40 -32.5 65t-88.5 25q-59 0 -92 -24.5t-33 -65.5q0 -39 34.5 -64.5t90.5 -25.5z" />
    <glyph glyph-name="seveneighths" unicode="&#x215e;" horiz-adv-x="1693" 
d="M1053 1460h252l-930 -1487h-252zM303 604h-237l321 637h-362v193h606v-158zM1507 422q131 -56 131 -189q0 -110 -94.5 -179.5t-243.5 -69.5q-152 0 -247 70.5t-95 181.5q0 128 132 186q-109 56 -109 180q0 109 88 175.5t227 66.5q143 0 231.5 -66.5t88.5 -177.5
q0 -122 -109 -178zM1298 670q-50 0 -76 -23t-26 -59q0 -78 102 -78q49 0 77 19.5t28 58.5q0 36 -26.5 59t-78.5 23zM1300 158q56 0 88.5 25.5t32.5 64.5q0 40 -32.5 65t-88.5 25q-59 0 -91.5 -24.5t-32.5 -65.5q0 -39 34 -64.5t90 -25.5z" />
    <glyph glyph-name="uni215F" unicode="&#x215f;" horiz-adv-x="1445" 
d="M1128 1460h252l-929 -1487h-252zM219 604v567l-188 -73v192l344 144h53v-830h-209z" />
    <glyph glyph-name="uni2189" unicode="&#x2189;" horiz-adv-x="1994" 
d="M1364 1460h252l-930 -1487h-252zM815 1018q0 -188 -108 -309t-273 -121q-164 0 -271.5 120.5t-107.5 309.5q0 190 107.5 310t271.5 120q165 0 273 -120.5t108 -309.5zM274 1018q0 -102 45 -164.5t115 -62.5q71 0 117.5 62.5t46.5 164.5q0 104 -46 166.5t-118 62.5
q-70 0 -115 -63t-45 -166zM1808 422q62 -28 96.5 -77.5t34.5 -113.5q0 -108 -93.5 -177.5t-243.5 -69.5q-103 0 -180 34.5t-119 90.5l120 127q67 -78 172 -78q62 0 94.5 25t32.5 65q0 41 -31 66.5t-89 25.5h-115v164h108q49 0 78 21.5t29 62.5q0 35 -27 57.5t-84 22.5
q-103 0 -161 -74l-119 117q87 133 286 133q141 0 229.5 -67.5t88.5 -174.5q0 -119 -107 -180z" />
    <glyph glyph-name="arrowleft" unicode="&#x2190;" horiz-adv-x="1765" 
d="M1694 848v-266h-1145l332 -332l-172 -172l-637 637l637 637l172 -172l-332 -332h1145z" />
    <glyph glyph-name="arrowup" unicode="&#x2191;" horiz-adv-x="1417" 
d="M1348 889l-174 -172l-332 332v-1145h-267v1145l-331 -332l-172 172l637 637z" />
    <glyph glyph-name="arrowright" unicode="&#x2192;" horiz-adv-x="1765" 
d="M1057 1352l637 -637l-637 -637l-172 172l332 332h-1145v266h1145l-332 332z" />
    <glyph glyph-name="arrowdown" unicode="&#x2193;" horiz-adv-x="1417" 
d="M1174 713l174 -172l-639 -637l-637 637l172 172l331 -332v1145h267v-1145z" />
    <glyph glyph-name="arrowboth" unicode="&#x2194;" horiz-adv-x="2562" 
d="M1853 1352l637 -639l-637 -637l-172 172l334 334h-1466l332 -332l-172 -172l-637 637l637 637l172 -172l-332 -332h1462l-330 332z" />
    <glyph glyph-name="arrowupdn" unicode="&#x2195;" horiz-adv-x="1419" 
d="M842 8l332 289l174 -170l-639 -580l-637 580l172 170l331 -289v1262l-331 -289l-172 172l637 578l639 -578l-172 -172l-334 291v-1264z" />
    <glyph glyph-name="uni2196" unicode="&#x2196;" horiz-adv-x="1454" 
d="M1384 236l-188 -189l-811 809v-469h-244v901h903v-244h-469z" />
    <glyph glyph-name="uni2197" unicode="&#x2197;" horiz-adv-x="1454" 
d="M412 1288h901v-901h-244v469l-809 -809l-188 189l809 808h-469v244z" />
    <glyph glyph-name="uni2198" unicode="&#x2198;" horiz-adv-x="1454" 
d="M1069 1042h244v-901h-901v244h469l-809 809l188 188l809 -809v469z" />
    <glyph glyph-name="uni2199" unicode="&#x2199;" horiz-adv-x="1454" 
d="M1384 1194l-809 -809h469v-244h-903v901h244v-469l811 809z" />
    <glyph glyph-name="uni21A9" unicode="&#x21a9;" horiz-adv-x="2107" 
d="M1425 1405q243 0 400 -150.5t157 -388.5q0 -156 -72 -279t-199 -191t-286 -68h-874l330 -332l-172 -172l-637 639l637 637l172 -170l-332 -334h876q120 0 193.5 75t73.5 195q0 121 -74 197t-193 76v266z" />
    <glyph glyph-name="uni21AA" unicode="&#x21aa;" horiz-adv-x="2107" 
d="M1399 1100l637 -637l-637 -639l-174 172l331 332h-874q-159 0 -286 68t-199 191t-72 279q0 238 157 388.5t400 150.5v-266q-120 0 -193 -76t-73 -197q0 -120 73 -195t193 -75h877l-334 334z" />
    <glyph glyph-name="uni21B0" unicode="&#x21b0;" horiz-adv-x="1859" 
d="M1694 1401v-1577h-269v1311h-876l332 -332l-172 -172l-637 637l637 639l172 -172l-332 -334h1145z" />
    <glyph glyph-name="uni21B1" unicode="&#x21b1;" horiz-adv-x="1859" 
d="M1151 1907l637 -639l-637 -637l-172 172l332 332h-877v-1311h-268v1577h1145l-332 334z" />
    <glyph glyph-name="uni21B2" unicode="&#x21b2;" horiz-adv-x="1859" 
d="M1425 1907h269v-1579h-1143l330 -332l-172 -172l-637 639l637 637l172 -170l-332 -334h876v1311z" />
    <glyph glyph-name="uni21B3" unicode="&#x21b3;" horiz-adv-x="1859" 
d="M1151 1100l637 -637l-637 -639l-172 172l330 332h-1143v1579h268v-1311h877l-332 334z" />
    <glyph glyph-name="uni21B4" unicode="&#x21b4;" horiz-adv-x="2224" 
d="M1980 864l172 -174l-636 -635l-639 635l172 174l331 -329v874h-1308v268h1577v-1145z" />
    <glyph glyph-name="uni21B8" unicode="&#x21b8;" horiz-adv-x="1421" 
d="M109 1583h1241v-231h-1241v231zM1012 924h-471l809 -809l-189 -189l-809 809v-469h-243v901h903v-243z" />
    <glyph glyph-name="uni21C4" unicode="&#x21c4;" horiz-adv-x="2037" 
d="M1157 686l332 332h-1417v266h1417l-332 334l172 172l637 -639l-637 -637zM881 639l-332 -332h1417v-266h-1417l332 -334l-172 -172l-637 639l637 637z" />
    <glyph glyph-name="uni21C5" unicode="&#x21c5;" horiz-adv-x="2396" 
d="M1174 801l-332 332v-1418h-267v1418l-331 -332l-172 172l637 637l639 -637zM2152 524l175 -172l-639 -637l-637 637l170 172l333 -331v1417h267v-1417z" />
    <glyph glyph-name="uni21C6" unicode="&#x21c6;" horiz-adv-x="2037" 
d="M549 1284h1417v-266h-1417l332 -332l-172 -172l-637 637l637 639l172 -172zM1157 639l172 172l637 -637l-637 -639l-172 172l332 334h-1417v266h1417z" />
    <glyph glyph-name="uni21C7" unicode="&#x21c7;" horiz-adv-x="1765" 
d="M1694 1315v-268h-1145l332 -332l-332 -332h1145v-268h-1143l330 -332l-172 -172l-637 639l465 465l-465 465l637 639l172 -172l-330 -332h1143z" />
    <glyph glyph-name="uni21C8" unicode="&#x21c8;" horiz-adv-x="2349" 
d="M2277 889l-172 -172l-331 332v-1145h-267v1145l-333 -332l-332 332v-1145h-267v1145l-331 -332l-172 172l637 637l467 -465l464 465z" />
    <glyph glyph-name="uni21C9" unicode="&#x21c9;" horiz-adv-x="1765" 
d="M1694 1180l-465 -465l465 -465l-637 -639l-172 172l329 332h-1142v268h1145l-332 332l332 332h-1145v268h1142l-329 332l172 172z" />
    <glyph glyph-name="uni21CA" unicode="&#x21ca;" horiz-adv-x="2349" 
d="M2277 541l-637 -637l-464 467l-467 -467l-637 637l172 172l331 -332v1145h267v-1145l332 332l333 -332v1145h267v-1145l331 332z" />
    <glyph glyph-name="uni21E4" unicode="&#x21e4;" horiz-adv-x="2304" 
d="M176 78v1274h268v-1274h-268zM2234 848v-266h-1147l332 -332l-170 -172l-639 637l639 637l170 -172l-332 -332h1147z" />
    <glyph glyph-name="uni21E5" unicode="&#x21e5;" horiz-adv-x="2304" 
d="M885 1180l172 172l637 -637l-637 -637l-172 172l332 332h-1145v266h1145zM1862 1352h266v-1274h-266v1274z" />
    <glyph glyph-name="uni21F1" unicode="&#x21f1;" horiz-adv-x="1970" 
d="M1866 1339v-229h-1426v-1427h-231v1656h1657zM1526 680h-467l807 -809l-189 -188l-809 809v-472h-243v904h901v-244z" />
    <glyph glyph-name="uni21F2" unicode="&#x21f2;" horiz-adv-x="1970" 
d="M1530 1343h229v-1656h-1657v229h1428v1427zM442 346h469l-809 809l191 188l809 -808v469h241v-902h-901v244z" />
    <glyph glyph-name="uni21F5" unicode="&#x21f5;" horiz-adv-x="2396" 
d="M842 193l332 331l174 -172l-639 -637l-637 637l172 172l331 -331v1417h267v-1417zM2327 973l-175 -172l-331 332v-1418h-267v1418l-333 -332l-170 172l637 637z" />
    <glyph glyph-name="minus" unicode="&#x2212;" horiz-adv-x="1118" 
d="M59 451v241h1000v-241h-1000z" />
    <glyph glyph-name="approxequal" unicode="&#x2248;" horiz-adv-x="1107" 
d="M254 672l-188 69q29 136 100 211.5t184 75.5q73 0 205 -61l66 -29q78 -37 124 -37q44 0 66.5 31.5t36.5 89.5l194 -70q-30 -142 -104 -219.5t-190 -77.5q-65 0 -207 64l-62 29q-66 34 -119 34q-46 0 -68.5 -26t-37.5 -84zM254 250l-188 69q29 134 99.5 210.5t184.5 76.5
q67 0 205 -61l66 -29q78 -37 124 -37q44 0 66.5 31.5t36.5 89.5l194 -70q-30 -141 -103.5 -219t-190.5 -78q-65 0 -207 64l-62 29q-66 34 -119 34q-47 0 -69.5 -27.5t-36.5 -82.5z" />
    <glyph glyph-name="uni2259" unicode="&#x2259;" horiz-adv-x="1181" 
d="M582 1231l-136 -174h-253l239 332h301l240 -332h-256zM92 911h998v-243h-998v243zM92 233v242h998v-242h-998z" />
    <glyph glyph-name="notequal" unicode="&#x2260;" horiz-adv-x="1118" 
d="M1059 668h-324l-94 -193h418v-242h-537l-127 -260h-260l127 260h-203v242h322l94 193h-416v243h535l129 263h260l-129 -263h205v-243z" />
    <glyph glyph-name="lessequal" unicode="&#x2264;" horiz-adv-x="1009" 
d="M918 1282v-268l-562 -209l562 -209v-268l-846 346v260zM72 0v248h846v-248h-846z" />
    <glyph glyph-name="greaterequal" unicode="&#x2265;" horiz-adv-x="983" 
d="M72 1282l846 -348v-260l-846 -346v268l561 209l-561 209v268zM72 0v248h846v-248h-846z" />
    <glyph glyph-name="circleplus" unicode="&#x2295;" horiz-adv-x="1798" 
d="M899 1460q219 0 394 -93.5t274.5 -263.5t99.5 -386t-99.5 -386t-274.5 -264t-394 -94t-394 94t-274.5 264t-99.5 386t99.5 386t274.5 263.5t394 93.5zM899 137q167 0 300 72.5t207.5 205.5t74.5 302t-74.5 301.5t-207 205t-300.5 72.5q-254 0 -418 -161.5t-164 -417.5
q0 -169 74.5 -302t207.5 -205.5t300 -72.5zM1010 827h352v-221h-352v-354h-222v354h-352v221h352v355h222v-355z" />
    <glyph glyph-name="house" unicode="&#x2302;" horiz-adv-x="1957" 
d="M166 -236v1080l813 813l813 -813v-1080h-1626zM385 -35h1188v801l-594 594l-594 -594v-801z" />
    <glyph glyph-name="uni239A" unicode="&#x239a;" horiz-adv-x="1734" 
d="M866 -29q-148 0 -305 13q-190 13 -302 129t-126 307q-2 49 -2 119q0 69 2 112q6 191 122 311t306 132q181 12 305 12q165 0 310 -12q189 -13 301.5 -132t121.5 -311q5 -108 5 -112q0 -18 -1 -36t-2 -41.5t-2 -41.5q-8 -190 -121.5 -308t-301.5 -128q-200 -13 -310 -13z
M866 178q114 0 295 12q208 15 217 240q2 43 2 109q0 63 -2 106q-6 222 -217 240q-148 14 -295 14q-122 0 -291 -14q-106 -8 -162.5 -69t-56.5 -171q0 -22 -1 -54.5t-1 -51.5q0 -64 2 -109q9 -222 219 -240q150 -12 291 -12z" />
    <glyph glyph-name="uni23CF" unicode="&#x23cf;" horiz-adv-x="1171" 
d="M586 1434l465 -467h-932zM1051 821v-254h-932v254h932z" />
    <glyph glyph-name="uni2460" unicode="&#x2460;" horiz-adv-x="1798" 
d="M899 -27q-219 0 -394 94t-274.5 264t-99.5 386t99.5 386t274.5 263.5t394 93.5t394 -93.5t274.5 -263.5t99.5 -386t-99.5 -386t-274.5 -264t-394 -94zM899 162q244 0 400.5 154.5t156.5 400.5t-156.5 400.5t-400.5 154.5q-243 0 -400 -154.5t-157 -400.5t156.5 -400.5
t400.5 -154.5zM811 303h209v827h-53l-344 -141v-192l188 75v-569z" />
    <glyph glyph-name="uni2461" unicode="&#x2461;" horiz-adv-x="1798" 
d="M899 -27q-219 0 -394 94t-274.5 264t-99.5 386t99.5 386t274.5 263.5t394 93.5t394 -93.5t274.5 -263.5t99.5 -386t-99.5 -386t-274.5 -264t-394 -94zM899 162q244 0 400.5 154.5t156.5 400.5t-156.5 400.5t-400.5 154.5q-243 0 -400 -154.5t-157 -400.5t156.5 -400.5
t400.5 -154.5zM618 322h580v190h-262l104 104q80 79 112 136.5t32 126.5q0 126 -83 200t-210 74q-95 0 -175.5 -41.5t-127.5 -116.5l129 -123q28 43 68 67t83 24q46 0 72.5 -26t26.5 -67q0 -31 -16 -55.5t-50 -56.5l-283 -281v-155z" />
    <glyph glyph-name="uni2462" unicode="&#x2462;" horiz-adv-x="1798" 
d="M899 -27q-219 0 -394 94t-274.5 264t-99.5 386t99.5 386t274.5 263.5t394 93.5t394 -93.5t274.5 -263.5t99.5 -386t-99.5 -386t-274.5 -264t-394 -94zM899 162q244 0 400.5 154.5t156.5 400.5t-156.5 400.5t-400.5 154.5q-243 0 -400 -154.5t-157 -400.5t156.5 -400.5
t400.5 -154.5zM881 287q150 0 244 69.5t94 178.5q0 64 -35.5 112.5t-98.5 77.5q109 61 109 180q0 107 -88.5 174.5t-228.5 67.5q-200 0 -287 -133l121 -117q58 74 159 74q57 0 84 -22.5t27 -57.5q0 -41 -29 -62.5t-78 -21.5h-106v-164h113q58 0 89 -26t31 -66t-33 -65
t-94 -25q-101 0 -172 78l-120 -127q42 -56 119 -90.5t180 -34.5z" />
    <glyph glyph-name="uni2463" unicode="&#x2463;" horiz-adv-x="1798" 
d="M899 -27q-219 0 -394 94t-274.5 264t-99.5 386t99.5 386t274.5 263.5t394 93.5t394 -93.5t274.5 -263.5t99.5 -386t-99.5 -386t-274.5 -264t-394 -94zM899 162q244 0 400.5 154.5t156.5 400.5t-156.5 400.5t-400.5 154.5q-243 0 -400 -154.5t-157 -400.5t156.5 -400.5
t400.5 -154.5zM918 309h192v133h98v195h-98v170h-192v-170h-164l213 500h-219l-224 -537v-158h394v-133z" />
    <glyph glyph-name="uni2464" unicode="&#x2464;" horiz-adv-x="1798" 
d="M899 -27q-219 0 -394 94t-274.5 264t-99.5 386t99.5 386t274.5 263.5t394 93.5t394 -93.5t274.5 -263.5t99.5 -386t-99.5 -386t-274.5 -264t-394 -94zM899 162q244 0 400.5 154.5t156.5 400.5t-156.5 400.5t-400.5 154.5q-243 0 -400 -154.5t-157 -400.5t156.5 -400.5
t400.5 -154.5zM870 279q147 0 240.5 76t93.5 198q0 113 -80 186t-211 84q-34 3 -63 0l4 117h301v184h-498l-18 -368l121 -129q47 28 108 28q57 0 88 -26.5t31 -71.5t-31.5 -71.5t-91.5 -26.5q-121 0 -184 90l-111 -135q42 -60 121 -97.5t180 -37.5z" />
    <glyph glyph-name="uni2465" unicode="&#x2465;" horiz-adv-x="1798" 
d="M899 -27q-219 0 -394 94t-274.5 264t-99.5 386t99.5 386t274.5 263.5t394 93.5t394 -93.5t274.5 -263.5t99.5 -386t-99.5 -386t-274.5 -264t-394 -94zM899 162q244 0 400.5 154.5t156.5 400.5t-156.5 400.5t-400.5 154.5q-243 0 -400 -154.5t-157 -400.5t156.5 -400.5
t400.5 -154.5zM887 293q143 0 235 80.5t92 210.5q0 109 -67.5 184t-179.5 88q-36 4 -56 4l187 285h-224l-270 -414q-45 -70 -45 -153q0 -124 92.5 -204.5t235.5 -80.5zM887 471q-55 0 -87 29.5t-32 77.5t33 78t88 30q54 0 84.5 -28t30.5 -78t-31.5 -79.5t-85.5 -29.5z" />
    <glyph glyph-name="uni2466" unicode="&#x2466;" horiz-adv-x="1798" 
d="M899 -27q-219 0 -394 94t-274.5 264t-99.5 386t99.5 386t274.5 263.5t394 93.5t394 -93.5t274.5 -263.5t99.5 -386t-99.5 -386t-274.5 -264t-394 -94zM899 162q244 0 400.5 154.5t156.5 400.5t-156.5 400.5t-400.5 154.5q-243 0 -400 -154.5t-157 -400.5t156.5 -400.5
t400.5 -154.5zM659 299h232l321 657v154h-594v-188h355z" />
    <glyph glyph-name="uni2467" unicode="&#x2467;" horiz-adv-x="1798" 
d="M899 -27q-219 0 -394 94t-274.5 264t-99.5 386t99.5 386t274.5 263.5t394 93.5t394 -93.5t274.5 -263.5t99.5 -386t-99.5 -386t-274.5 -264t-394 -94zM899 162q244 0 400.5 154.5t156.5 400.5t-156.5 400.5t-400.5 154.5q-243 0 -400 -154.5t-157 -400.5t156.5 -400.5
t400.5 -154.5zM899 287q149 0 243.5 70t94.5 180q0 131 -135 188q112 56 112 178q0 109 -89 176.5t-230 67.5q-140 0 -227.5 -66t-87.5 -176q0 -125 112 -180q-135 -58 -135 -186q0 -111 95 -181.5t247 -70.5zM897 813q-102 0 -102 78q0 36 26 59t76 23q51 0 77.5 -23
t26.5 -59q0 -39 -27.5 -58.5t-76.5 -19.5zM899 461q-56 0 -89.5 26t-33.5 66q0 39 32 62.5t91 23.5q56 0 88.5 -24t32.5 -64q0 -39 -32.5 -64.5t-88.5 -25.5z" />
    <glyph glyph-name="uni2468" unicode="&#x2468;" horiz-adv-x="1798" 
d="M899 -27q-219 0 -394 94t-274.5 264t-99.5 386t99.5 386t274.5 263.5t394 93.5t394 -93.5t274.5 -263.5t99.5 -386t-99.5 -386t-274.5 -264t-394 -94zM899 162q244 0 400.5 154.5t156.5 400.5t-156.5 400.5t-400.5 154.5q-243 0 -400 -154.5t-157 -400.5t156.5 -400.5
t400.5 -154.5zM692 303h223l265 406q47 75 47 151q0 126 -93.5 206.5t-236.5 80.5q-142 0 -235 -81t-93 -210q0 -111 67.5 -186t180.5 -88q32 -4 53 -4zM895 752q-54 0 -84.5 28t-30.5 78q0 51 31 80t86 29q54 0 85.5 -29t31.5 -78q0 -48 -32 -78t-87 -30z" />
    <glyph glyph-name="uni24EA" unicode="&#x24ea;" horiz-adv-x="1798" 
d="M899 -27q-219 0 -394 94t-274.5 264t-99.5 386t99.5 386t274.5 263.5t394 93.5t394 -93.5t274.5 -263.5t99.5 -386t-99.5 -386t-274.5 -264t-394 -94zM899 162q244 0 400.5 154.5t156.5 400.5t-156.5 400.5t-400.5 154.5q-243 0 -400 -154.5t-157 -400.5t156.5 -400.5
t400.5 -154.5zM899 287q164 0 272.5 121t108.5 309q0 189 -108.5 309.5t-272.5 120.5t-271.5 -120t-107.5 -310q0 -189 107.5 -309.5t271.5 -120.5zM899 487q-70 0 -116 64t-46 166t46 165.5t116 63.5q72 0 118 -62.5t46 -166.5q0 -102 -46.5 -166t-117.5 -64z" />
    <glyph glyph-name="uni24FF" unicode="&#x24ff;" horiz-adv-x="1798" 
d="M899 -27q-219 0 -394 94t-274.5 264t-99.5 386t99.5 386t274.5 263.5t394 93.5t394 -93.5t274.5 -263.5t99.5 -386t-99.5 -386t-274.5 -264t-394 -94zM899 287q164 0 272.5 121t108.5 309q0 189 -108.5 309.5t-272.5 120.5t-271.5 -120t-107.5 -310q0 -189 107.5 -309.5
t271.5 -120.5zM899 487q-70 0 -116 64t-46 166t46 165.5t116 63.5q72 0 118 -62.5t46 -166.5q0 -102 -46.5 -166t-117.5 -64z" />
    <glyph glyph-name="uni25D0" unicode="&#x25d0;" 
d="M907 -27q-212 0 -381.5 94t-265.5 264t-96 386q0 162 56 300.5t154.5 235.5t236 152t296.5 55q212 0 381.5 -93.5t266 -263.5t96.5 -386t-96.5 -386t-266 -264t-381.5 -94zM907 100q261 0 426.5 172t165.5 445t-165.5 444.5t-426.5 171.5v-1233z" />
    <glyph glyph-name="uni25D1" unicode="&#x25d1;" 
d="M907 -27q-212 0 -381.5 94t-265.5 264t-96 386q0 162 56 300.5t154.5 235.5t236 152t296.5 55q212 0 381.5 -93.5t266 -263.5t96.5 -386t-96.5 -386t-266 -264t-381.5 -94zM907 100v1233q-261 0 -426.5 -171.5t-165.5 -444.5t165.5 -445t426.5 -172z" />
    <glyph glyph-name="uni25D2" unicode="&#x25d2;" 
d="M907 -27q-216 0 -386 96.5t-263.5 266t-93.5 381.5q0 159 54.5 296.5t151.5 236t236 154.5t301 56q216 0 386 -96t264 -265.5t94 -381.5t-94 -381.5t-264 -266t-386 -96.5zM315 717h1184q0 273 -165.5 444.5t-426.5 171.5q-263 0 -427.5 -171t-164.5 -445z" />
    <glyph glyph-name="uni25D3" unicode="&#x25d3;" 
d="M907 -27q-216 0 -386 96.5t-263.5 266t-93.5 381.5q0 159 55 296.5t152 236t235.5 154.5t300.5 56q216 0 386 -96t264 -265.5t94 -381.5t-93.5 -381.5t-264 -266t-386.5 -96.5zM907 100q173 0 308 77.5t209.5 218.5t74.5 321h-1184q0 -273 165.5 -445t426.5 -172z" />
    <glyph glyph-name="invbullet" unicode="&#x25d8;" horiz-adv-x="1245" 
d="M125 72v995h995v-995h-995zM623 250q132 0 225.5 93.5t93.5 225.5t-93.5 226t-225.5 94t-225 -94t-93 -226t93 -225.5t225 -93.5z" />
    <glyph glyph-name="openbullet" unicode="&#x25e6;" horiz-adv-x="798" 
d="M399 244q-132 0 -225.5 93.5t-93.5 225.5q0 133 93.5 226.5t225.5 93.5t226 -93.5t94 -226.5q0 -132 -94 -225.5t-226 -93.5zM399 295q110 0 188.5 79t78.5 189t-78.5 189t-188.5 79t-188 -79t-78 -189t78 -189t188 -79z" />
    <glyph glyph-name="uni2605" unicode="&#x2605;" horiz-adv-x="1744" 
d="M1581 897l-430 -315l170 -525l-447 324l-444 -324l170 523l-436 317h538l172 530l173 -530h534z" />
    <glyph glyph-name="uni2606" unicode="&#x2606;" horiz-adv-x="1744" 
d="M1581 897l-432 -313l172 -527l-447 324l-444 -324l170 523l-436 317h538l172 530l173 -530h534zM1319 815h-346l-99 299l-98 -299h-350l285 -207l-103 -311l266 192l267 -194l-103 315z" />
    <glyph glyph-name="uni2610" unicode="&#x2610;" horiz-adv-x="1959" 
d="M166 -236v1616h1628v-1616h-1628zM385 -35h1190v1215h-1190v-1215z" />
    <glyph glyph-name="uni2611" unicode="&#x2611;" horiz-adv-x="1959" 
d="M166 -236v1616h1628v-1616h-1628zM385 -35h1190v1215h-1190v-1215zM737 59h324l405 1024h-305l-262 -708l-111 293h-294z" />
    <glyph glyph-name="uni2612" unicode="&#x2612;" horiz-adv-x="1959" 
d="M166 -236v1616h1628v-1616h-1628zM385 -35h1190v1215h-1190v-1215zM688 109l293 292l291 -292l172 172l-291 290l291 293l-172 172l-291 -293l-293 293l-172 -172l293 -293l-293 -290z" />
    <glyph glyph-name="uni26D4" unicode="&#x26d4;" 
d="M907 -27q-212 0 -381.5 94t-265.5 264t-96 386q0 162 56 300.5t154.5 235.5t236 152t296.5 55q212 0 381.5 -93.5t266 -263.5t96.5 -386t-96.5 -386t-266 -264t-381.5 -94zM408 596h999v242h-999v-242z" />
    <glyph glyph-name="uni2705" unicode="&#x2705;" horiz-adv-x="1816" 
d="M166 -170v1485h1485v-1485h-1485zM666 59h323l406 1024h-305l-263 -708l-110 293h-295z" />
    <glyph glyph-name="uni2709" unicode="&#x2709;" horiz-adv-x="1527" 
d="M164 954v166h1200v-166l-600 -303zM164 858l600 -301l600 301v-633h-1200v633z" />
    <glyph glyph-name="uni270F" unicode="&#x270f;" horiz-adv-x="1601" 
d="M80 725q0 57 40.5 98t98.5 41h137v-278h-137q-58 0 -98.5 41t-40.5 98zM1477 778q43 -24 43 -53t-43 -53l-172 -86h-891v278h891z" />
    <glyph glyph-name="uni272A" unicode="&#x272a;" 
d="M907 -27q-212 0 -381.5 94t-265.5 264t-96 386q0 162 56 300.5t154.5 235.5t236 152t296.5 55q212 0 381.5 -93.5t266 -263.5t96.5 -386t-96.5 -386t-266 -264t-381.5 -94zM1243 244l-127 393l324 237h-402l-129 400l-129 -400h-405l327 -237l-127 -393l334 241z" />
    <glyph glyph-name="uni2733" unicode="&#x2733;" horiz-adv-x="1695" 
d="M1565 860v-287l-400 13l291 -275l-203 -202l-274 290l12 -399h-286l12 397l-275 -288l-202 202l290 275l-399 -13v287l399 -12l-290 274l202 203l275 -289l-12 398h286l-12 -400l274 291l203 -203l-291 -274z" />
    <glyph glyph-name="uni2734" unicode="&#x2734;" horiz-adv-x="1695" 
d="M1565 813v-192l-420 -27l278 -315l-139 -138l-313 277l-27 -418h-194l-25 418l-315 -277l-140 138l279 315l-418 27v192l418 27l-279 315l140 137l315 -276l25 418h194l27 -418l313 276l139 -137l-278 -315z" />
    <glyph glyph-name="uni274E" unicode="&#x274e;" horiz-adv-x="1816" 
d="M166 -170v1485h1485v-1485h-1485zM616 109l293 292l291 -292l172 172l-291 290l291 293l-172 172l-291 -293l-293 293l-172 -172l293 -293l-293 -290z" />
    <glyph glyph-name="uni2776" unicode="&#x2776;" horiz-adv-x="1798" 
d="M899 -27q-219 0 -394 94t-274.5 264t-99.5 386t99.5 386t274.5 263.5t394 93.5t394 -93.5t274.5 -263.5t99.5 -386t-99.5 -386t-274.5 -264t-394 -94zM811 303h209v827h-53l-344 -141v-192l188 75v-569z" />
    <glyph glyph-name="uni2777" unicode="&#x2777;" horiz-adv-x="1798" 
d="M899 -27q-219 0 -394 94t-274.5 264t-99.5 386t99.5 386t274.5 263.5t394 93.5t394 -93.5t274.5 -263.5t99.5 -386t-99.5 -386t-274.5 -264t-394 -94zM618 303h580v195h-262l104 104q81 81 112.5 138.5t31.5 127.5q0 129 -83 204t-210 75q-95 0 -175.5 -42t-127.5 -118
l129 -127q27 44 67.5 68t83.5 24q46 0 72.5 -25.5t26.5 -66.5q0 -31 -16 -56t-50 -59l-283 -282v-160z" />
    <glyph glyph-name="uni2778" unicode="&#x2778;" horiz-adv-x="1798" 
d="M899 -27q-219 0 -394 94t-274.5 264t-99.5 386t99.5 386t274.5 263.5t394 93.5t394 -93.5t274.5 -263.5t99.5 -386t-99.5 -386t-274.5 -264t-394 -94zM881 287q150 0 244 69.5t94 178.5q0 64 -35.5 112.5t-98.5 77.5q109 61 109 180q0 107 -88.5 174.5t-228.5 67.5
q-200 0 -287 -133l121 -117q58 74 159 74q57 0 84 -22.5t27 -57.5q0 -41 -29 -62.5t-78 -21.5h-106v-164h113q58 0 89 -26t31 -66t-33 -65t-94 -25q-101 0 -172 78l-120 -127q42 -56 119 -90.5t180 -34.5z" />
    <glyph glyph-name="uni2779" unicode="&#x2779;" horiz-adv-x="1798" 
d="M899 -27q-219 0 -394 94t-274.5 264t-99.5 386t99.5 386t274.5 263.5t394 93.5t394 -93.5t274.5 -263.5t99.5 -386t-99.5 -386t-274.5 -264t-394 -94zM918 303h192v133h98v193h-98v172h-192v-172h-164l213 501h-219l-224 -536v-158h394v-133z" />
    <glyph glyph-name="uni277A" unicode="&#x277a;" horiz-adv-x="1798" 
d="M899 -27q-219 0 -394 94t-274.5 264t-99.5 386t99.5 386t274.5 263.5t394 93.5t394 -93.5t274.5 -263.5t99.5 -386t-99.5 -386t-274.5 -264t-394 -94zM870 287q147 0 240.5 76t93.5 198q0 113 -79.5 185t-211.5 83q-30 5 -63 2l4 115h301v187h-498l-18 -371l121 -127
q52 27 108 27q57 0 88 -27t31 -72q0 -44 -31.5 -70t-91.5 -26q-121 0 -184 90l-111 -135q42 -60 121 -97.5t180 -37.5z" />
    <glyph glyph-name="uni277B" unicode="&#x277b;" horiz-adv-x="1798" 
d="M899 -27q-219 0 -394 94t-274.5 264t-99.5 386t99.5 386t274.5 263.5t394 93.5t394 -93.5t274.5 -263.5t99.5 -386t-99.5 -386t-274.5 -264t-394 -94zM887 291q143 2 235 82.5t92 210.5q0 109 -67.5 184t-179.5 88q-36 4 -56 4l187 285h-224l-270 -414q-45 -70 -45 -153
q0 -125 93 -206t235 -81zM887 471q-55 0 -87 29.5t-32 77.5t33 78t88 30q54 0 84.5 -28t30.5 -78t-31.5 -79.5t-85.5 -29.5z" />
    <glyph glyph-name="uni277C" unicode="&#x277c;" horiz-adv-x="1798" 
d="M899 -27q-219 0 -394 94t-274.5 264t-99.5 386t99.5 386t274.5 263.5t394 93.5t394 -93.5t274.5 -263.5t99.5 -386t-99.5 -386t-274.5 -264t-394 -94zM655 301h238l328 670v157h-607v-192h361z" />
    <glyph glyph-name="uni277D" unicode="&#x277d;" horiz-adv-x="1798" 
d="M899 -27q-219 0 -394 94t-274.5 264t-99.5 386t99.5 386t274.5 263.5t394 93.5t394 -93.5t274.5 -263.5t99.5 -386t-99.5 -386t-274.5 -264t-394 -94zM899 287q149 0 243.5 70t94.5 180q0 131 -135 188q112 56 112 178q0 109 -89 176.5t-230 67.5q-140 0 -227.5 -66
t-87.5 -176q0 -125 112 -180q-135 -58 -135 -186q0 -111 95 -181.5t247 -70.5zM897 813q-102 0 -102 78q0 36 26 59t76 23q51 0 77.5 -23t26.5 -59q0 -39 -27.5 -58.5t-76.5 -19.5zM899 461q-56 0 -89.5 26t-33.5 66q0 39 32 62.5t91 23.5q56 0 88.5 -24t32.5 -64
q0 -39 -32.5 -64.5t-88.5 -25.5z" />
    <glyph glyph-name="uni277E" unicode="&#x277e;" horiz-adv-x="1798" 
d="M899 -27q-219 0 -394 94t-274.5 264t-99.5 386t99.5 386t274.5 263.5t394 93.5t394 -93.5t274.5 -263.5t99.5 -386t-99.5 -386t-274.5 -264t-394 -94zM692 303h223l265 406q47 75 47 151q0 126 -93.5 206.5t-236.5 80.5q-142 0 -235 -81t-93 -210q0 -111 67.5 -186
t180.5 -88q32 -4 53 -4zM895 752q-54 0 -84.5 28t-30.5 78q0 51 31 80t86 29q54 0 85.5 -29t31.5 -78q0 -48 -32 -78t-87 -30z" />
    <glyph glyph-name="uni27B2" unicode="&#x27b2;" horiz-adv-x="1716" 
d="M164 1106q95 166 264 260t381 94q159 0 296.5 -55t236 -152t154.5 -235.5t56 -300.5q0 -216 -96 -386t-265.5 -264t-381.5 -94t-381 94.5t-264 260.5h645v-226l614 615l-614 614v-225h-645z" />
    <glyph glyph-name="uni2A70" unicode="&#x2a70;" horiz-adv-x="1181" 
d="M291 1055l-191 67q29 134 100.5 211.5t184.5 77.5q68 0 209 -61l63 -29q82 -39 123 -39q46 0 69 33t36 90l194 -72q-30 -140 -104 -217.5t-191 -77.5q-65 0 -204 64l-64 28q-80 35 -119 35q-47 0 -69.5 -27.5t-36.5 -82.5zM92 668v243h998v-243h-998zM92 233v242h998
v-242h-998z" />
    <glyph glyph-name="uni2B05" unicode="&#x2b05;" horiz-adv-x="1742" 
d="M696 971h963v-512h-963v-359l-614 615l614 614v-358z" />
    <glyph glyph-name="uni2B06" unicode="&#x2b06;" horiz-adv-x="1394" 
d="M696 1503l617 -614h-361v-963h-512v963h-358z" />
    <glyph glyph-name="uni2B07" unicode="&#x2b07;" horiz-adv-x="1394" 
d="M952 541h361l-617 -615l-614 615h358v962h512v-962z" />
    </font>
</defs>
</svg>
