<svg version="1.1" id="Layer_1" xmlns="http://www.w3.org/2000/svg" xmlns:xlink="http://www.w3.org/1999/xlink" x="0px" y="0px"
	 width="100%" viewBox="0 0 512 512" enable-background="new 0 0 512 512" xml:space="preserve">
<path fill="#FFFFFF" opacity="1.000000" stroke="none" 
	d="
M513.000000,263.000000 
	C513.000000,346.297516 513.000000,429.595001 513.000000,512.946289 
	C342.442535,512.946289 171.885040,512.946289 1.000000,512.946289 
	C1.000000,430.644928 1.000000,348.289459 1.338548,265.546722 
	C7.397243,274.708008 16.562714,276.048553 26.586348,276.043854 
	C165.519363,275.978973 304.452423,276.000000 443.385468,276.000000 
	C445.128113,276.000000 446.870789,276.000000 448.613434,276.000000 
	C448.801361,276.385681 448.989258,276.771362 449.177155,277.157043 
	C447.780273,278.273651 446.261414,279.268158 445.004059,280.524414 
	C403.286774,322.205170 361.598297,363.914764 319.893158,405.607666 
	C315.500458,409.999084 314.129395,415.021667 314.826050,421.310699 
	C315.711304,429.301819 319.733978,434.521057 327.068024,436.363220 
	C334.366852,438.196533 341.299530,437.391296 347.353760,431.304993 
	C399.750946,378.630432 452.367401,326.174072 504.828705,273.563171 
	C507.947235,270.435760 510.294067,266.538849 513.000000,263.000000 
z"/>
<path fill="#FFFFFF" opacity="1.000000" stroke="none" 
	d="
M0.999998,249.000000 
	C1.000000,166.368866 1.000000,83.737740 1.000000,1.053304 
	C171.557739,1.053304 342.115509,1.053304 513.000000,1.053304 
	C513.000000,84.021729 513.000000,167.043884 512.645935,250.425827 
	C511.061951,248.552795 510.268463,245.884781 508.538849,244.150299 
	C454.665405,190.126938 400.690521,136.204727 346.764496,82.233742 
	C341.026093,76.490578 334.165497,75.909874 326.870300,77.675453 
	C313.620728,80.882111 310.861847,99.553596 319.640533,108.271950 
	C361.600372,149.943375 403.332855,191.843674 445.173676,233.635040 
	C446.399933,234.859848 447.932678,235.777756 449.322540,236.838776 
	C449.039154,237.225845 448.755768,237.612930 448.472412,238.000000 
	C446.699219,238.000000 444.926056,238.000000 443.152893,238.000000 
	C304.721771,238.000000 166.290573,238.044174 27.859571,237.910980 
	C17.472469,237.900986 7.818078,238.410065 1.854928,248.598312 
	C1.723848,248.822296 1.291705,248.870041 0.999998,249.000000 
z"/>
<path fill="#171A17" opacity="1.000000" stroke="none" 
	d="
M0.999998,249.466858 
	C1.291705,248.870041 1.723848,248.822296 1.854928,248.598312 
	C7.818078,238.410065 17.472469,237.900986 27.859571,237.910980 
	C166.290573,238.044174 304.721771,238.000000 443.152893,238.000000 
	C444.926056,238.000000 446.699219,238.000000 448.472412,238.000000 
	C448.755768,237.612930 449.039154,237.225845 449.322540,236.838776 
	C447.932678,235.777756 446.399933,234.859848 445.173676,233.635040 
	C403.332855,191.843674 361.600372,149.943375 319.640533,108.271950 
	C310.861847,99.553596 313.620728,80.882111 326.870300,77.675453 
	C334.165497,75.909874 341.026093,76.490578 346.764496,82.233742 
	C400.690521,136.204727 454.665405,190.126938 508.538849,244.150299 
	C510.268463,245.884781 511.061951,248.552795 512.645935,250.892807 
	C513.000000,254.692917 513.000000,258.385834 513.000000,262.539368 
	C510.294067,266.538849 507.947235,270.435760 504.828705,273.563171 
	C452.367401,326.174072 399.750946,378.630432 347.353760,431.304993 
	C341.299530,437.391296 334.366852,438.196533 327.068024,436.363220 
	C319.733978,434.521057 315.711304,429.301819 314.826050,421.310699 
	C314.129395,415.021667 315.500458,409.999084 319.893158,405.607666 
	C361.598297,363.914764 403.286774,322.205170 445.004059,280.524414 
	C446.261414,279.268158 447.780273,278.273651 449.177155,277.157043 
	C448.989258,276.771362 448.801361,276.385681 448.613434,276.000000 
	C446.870789,276.000000 445.128113,276.000000 443.385468,276.000000 
	C304.452423,276.000000 165.519363,275.978973 26.586348,276.043854 
	C16.562714,276.048553 7.397243,274.708008 1.338548,265.079742 
	C1.000000,259.977905 1.000000,254.955811 0.999998,249.466858 
z"/>
</svg>