<?xml version="1.0" standalone="no"?>
<!DOCTYPE svg PUBLIC "-//W3C//DTD SVG 20010904//EN"
 "http://www.w3.org/TR/2001/REC-SVG-20010904/DTD/svg10.dtd">
<svg version="1.0" xmlns="http://www.w3.org/2000/svg"
 width="726.000000pt" height="726.000000pt" viewBox="0 0 726.000000 726.000000"
 preserveAspectRatio="xMidYMid meet">
<metadata>
Created by potrace 1.14, written by Peter Selinger 2001-2017
</metadata>
<g transform="translate(0.000000,726.000000) scale(0.100000,-0.100000)"
fill="#000000" stroke="none">
<path d="M1760 7204 c-462 -44 -814 -181 -1117 -435 -173 -146 -306 -319 -418
-544 -154 -311 -212 -580 -213 -985 0 -233 13 -362 54 -549 125 -559 471 -997
971 -1232 145 -68 354 -132 498 -154 64 -9 76 -15 71 -33 -53 -172 -46 -445
15 -625 67 -193 203 -348 399 -454 100 -53 164 -76 308 -109 127 -29 344 -38
475 -21 123 17 304 81 420 149 136 79 305 225 418 360 l47 57 71 -79 71 -78 0
-1105 c0 -782 -3 -1113 -11 -1136 -20 -58 -37 -61 -359 -61 l-290 0 0 -60 0
-61 1293 4 c1397 4 1314 1 1531 58 468 121 863 498 1050 1003 35 93 88 289
100 366 25 165 30 231 30 415 0 359 -50 605 -179 882 -80 170 -182 313 -325
453 -244 239 -597 409 -1010 485 -69 13 -96 16 -215 30 -123 14 -212 17 -532
16 l-353 0 47 62 c136 179 243 298 332 366 45 35 121 81 133 81 2 0 3 -48 3
-108 1 -90 4 -114 22 -148 43 -81 118 -124 217 -124 156 1 268 129 253 290 -6
69 -26 112 -80 168 -104 107 -285 109 -470 3 -139 -80 -264 -203 -496 -488
-46 -57 -87 -104 -90 -104 -21 -4 -904 -3 -910 1 -4 3 -25 39 -46 82 l-39 76
70 104 c118 171 196 332 251 520 28 96 30 98 114 185 159 164 268 336 305 483
21 84 24 215 7 310 -17 93 -79 220 -135 278 -80 85 -192 154 -280 176 -21 5
-30 16 -43 58 -27 85 -138 306 -199 397 -194 290 -467 509 -799 640 -129 51
-326 102 -457 117 -30 3 -64 8 -75 11 -25 5 -387 11 -435 7z m455 -142 c453
-111 777 -445 948 -977 50 -156 53 -174 30 -182 -44 -16 -163 -103 -223 -163
-277 -275 -365 -655 -264 -1145 14 -70 68 -278 79 -307 4 -11 -14 -23 -72 -48
-210 -90 -487 -247 -646 -366 -149 -112 -317 -296 -382 -417 -11 -20 -25 -37
-32 -37 -24 0 -199 63 -254 91 -245 128 -460 360 -595 644 -111 233 -165 435
-209 775 -17 135 -12 498 10 685 52 449 230 865 476 1115 186 189 387 297 644
345 112 21 380 13 490 -13z m1650 -1242 c142 -98 214 -243 219 -446 3 -82 -1
-104 -29 -187 -31 -95 -118 -238 -200 -332 -31 -36 -34 -37 -30 -15 23 123 35
482 20 625 -11 110 -36 269 -51 326 -8 31 -14 60 -14 64 0 11 43 -7 85 -35z
m-594 -267 c23 -232 16 -563 -17 -773 -16 -104 -54 -283 -59 -278 -8 8 -67
198 -90 295 -89 360 -53 679 99 882 39 52 40 53 47 28 4 -14 13 -84 20 -154z
m-394 -1527 c53 -140 57 -126 -64 -255 -197 -211 -412 -326 -687 -367 -54 -8
-101 -13 -103 -10 -9 8 69 151 117 216 50 68 186 206 255 261 119 93 410 281
428 276 5 -2 29 -56 54 -121z m2478 -396 c190 -23 435 -101 546 -174 21 -14
41 -26 45 -26 14 0 172 -131 220 -181 121 -130 230 -306 303 -492 36 -95 94
-307 105 -387 2 -19 8 -57 11 -85 4 -27 9 -61 12 -75 3 -14 7 -133 8 -265 4
-288 -6 -419 -51 -642 -61 -307 -190 -590 -359 -787 -62 -72 -174 -163 -259
-211 -102 -57 -163 -79 -341 -121 -36 -9 -1107 -18 -1150 -10 -20 4 -37 17
-50 39 -19 31 -20 57 -22 954 l-1 922 50 -20 c203 -80 520 -89 781 -24 296 74
514 268 627 555 50 125 123 420 109 434 -2 2 -26 6 -53 8 l-49 3 -23 -108
c-100 -474 -327 -697 -709 -699 -128 0 -222 18 -327 61 -112 47 -264 148 -365
241 l-41 39 0 458 c0 296 4 465 11 478 6 11 28 44 50 72 l39 53 202 2 c341 5
577 1 681 -12z m-1557 -23 l27 -27 3 -173 3 -172 -34 50 c-42 62 -105 164
-169 274 l-48 83 95 -4 c88 -4 98 -6 123 -31z m-682 -119 c115 -228 264 -464
426 -676 l79 -103 -29 -37 c-17 -20 -56 -62 -89 -93 -255 -244 -531 -333 -842
-269 -231 47 -432 176 -544 349 -97 148 -130 264 -131 463 -1 75 1 139 4 142
3 3 37 8 75 11 140 10 201 16 230 22 17 4 35 7 40 8 175 17 471 125 670 244
28 16 53 30 57 30 4 1 28 -41 54 -91z"/>
</g>
</svg>
